#N canvas 593 328 1 1 12;
#X floatatom 187 120 5 20 600 0 tempo\ (bpm): - - 10;
#X obj 264 218 * 1000;
#X obj 264 194 / 60;
#X msg 264 171 60;
#X obj 204 249 metro 100;
#X obj 264 150 t b f;
#X obj 204 138 tgl 15 0 empty empty start\\\ metronome: -99 7 0 10
#fcfcfc #000000 #000000 0 1;
#X obj 204 38 inlet bpm;
#X obj 204 62 clip 20 600;
#X obj 276 38 inlet start;
#X obj 204 273 outlet metroOut;
#X text 375 76 Description:;
#X text 375 101 Calculates bpm-value (beats pr minute) into milliceconds
between successive metro-beats. Outputs beats from specified bpm-value
\, like old-fashioned metronome.;
#X text 373 170 Inlets:;
#X text 373 189 1 number (20-600) \, bpm value;
#X text 373 208 2 toggle (0-1) \, turn metro on/off;
#X text 373 239 Outlets:;
#X text 373 256 1 number \, metronome out;
#X obj 115 38 loadbang;
#X msg 115 62 120;
#X obj 237 299 outlet toggleOut;
#X text 373 273 2 toggle out;
#X floatatom 397 30 5 0 0 0 - - - 0;
#X connect 0 0 5 0;
#X connect 1 0 4 1;
#X connect 2 0 1 0;
#X connect 3 0 2 0;
#X connect 4 0 10 0;
#X connect 5 0 3 0;
#X connect 5 1 2 1;
#X connect 6 0 4 0;
#X connect 6 0 20 0;
#X connect 7 0 8 0;
#X connect 8 0 0 0;
#X connect 9 0 6 0;
#X connect 18 0 19 0;
#X connect 19 0 8 0;
#X connect 22 0 8 0;
#X coords 0 -1 1 1 126 55 1 100 100;
