#N canvas 90 233 564 526 12;
#X obj 327 124 % 7;
#X obj 359 118 / 7;
#X obj 435 198 int;
#X obj 435 221 * 12;
#X obj 327 191 list split;
#X obj 327 146 t b f;
#X obj 327 169 list;
#X obj 327 72 t f f;
#X obj 360 240 +;
#X obj 360 215 int;
#X obj 345 95 list length;
#N canvas 753 25 687 407 modi 0;
#X obj 161 34 inlet;
#X obj 161 342 outlet;
#X msg 161 267 0 1 2 3 4 5 6 7 8 9 10 11;
#X text 101 82 jonisk:;
#X text 101 100 dorisk:;
#X text 95 118 frygisk:;
#X text 101 136 lydisk:;
#X text 77 154 mixolydisk:;
#X text 101 172 æolisk:;
#X text 95 190 lokrisk:;
#X msg 161 82 0 2 4 5 7 9 11;
#X msg 161 100 0 2 3 5 7 9 10;
#X msg 161 118 0 1 3 5 7 8 10;
#X msg 161 136 0 2 4 6 7 9 11;
#X msg 161 154 0 2 4 5 7 9 10;
#X msg 161 172 0 2 3 5 7 8 10;
#X msg 161 190 0 1 3 5 6 8 10;
#X text 83 266 kromatisk:;
#X text 65 209 dur-pentaton:;
#X text 65 228 mol-pentaton:;
#X text 107 248 blues:;
#X msg 161 247 0 3 5 6 7 10 11;
#X msg 161 209 0 2 4 4 7 7 9;
#X msg 161 228 0 3 3 5 7 7 10;
#X msg 161 286 0 2 4 6 8 10;
#X text 101 287 heltone:;
#X obj 161 58 select 0 1 2 3 4 5 6 7 8 9 10 11;
#X connect 0 0 26 0;
#X connect 2 0 1 0;
#X connect 10 0 1 0;
#X connect 11 0 1 0;
#X connect 12 0 1 0;
#X connect 13 0 1 0;
#X connect 14 0 1 0;
#X connect 15 0 1 0;
#X connect 16 0 1 0;
#X connect 21 0 1 0;
#X connect 22 0 1 0;
#X connect 23 0 1 0;
#X connect 24 0 1 0;
#X connect 26 0 10 0;
#X connect 26 1 11 0;
#X connect 26 2 12 0;
#X connect 26 3 13 0;
#X connect 26 4 14 0;
#X connect 26 5 15 0;
#X connect 26 6 16 0;
#X connect 26 7 22 0;
#X connect 26 8 23 0;
#X connect 26 9 21 0;
#X connect 26 10 2 0;
#X connect 26 11 24 0;
#X restore 267 61 pd modi;
#X obj 360 262 outlet;
#X obj 361 5 loadbang;
#X obj 435 152 max 3;
#X obj 435 173 min 6;
#X obj 327 50 f;
#N canvas 522 66 341 470 setSymbol 0;
#X obj 45 406 outlet;
#X obj 12 13 inlet;
#X msg 94 98 symbol jonisk;
#X msg 94 123 symbol dorisk;
#X msg 95 149 symbol frygisk;
#X msg 95 174 symbol lydisk;
#X msg 96 199 symbol mixolydisk;
#X msg 96 224 symbol æolisk;
#X msg 97 250 symbol lokrisk;
#X msg 97 275 symbol dur-pentaton;
#X msg 97 300 symbol mol-pentaton;
#X msg 107 326 symbol blues;
#X msg 107 351 symbol kromatisk;
#X msg 107 376 symbol heltone;
#X obj 12 41 select 0 1 2 3 4 5 6 7 8 9 10 11;
#X connect 1 0 14 0;
#X connect 2 0 0 0;
#X connect 3 0 0 0;
#X connect 4 0 0 0;
#X connect 5 0 0 0;
#X connect 6 0 0 0;
#X connect 7 0 0 0;
#X connect 8 0 0 0;
#X connect 9 0 0 0;
#X connect 10 0 0 0;
#X connect 11 0 0 0;
#X connect 12 0 0 0;
#X connect 13 0 0 0;
#X connect 14 0 2 0;
#X connect 14 1 3 0;
#X connect 14 2 4 0;
#X connect 14 3 5 0;
#X connect 14 4 6 0;
#X connect 14 5 7 0;
#X connect 14 6 8 0;
#X connect 14 7 9 0;
#X connect 14 8 10 0;
#X connect 14 9 11 0;
#X connect 14 10 12 0;
#X connect 14 11 13 0;
#X restore 101 160 pd setSymbol;
#X obj 101 132 cnv 15 144 14 empty \$0-label jonisk 2 8 0 9 #e0e0e0
#404040 0;
#X obj 101 210 send \$0-label;
#X msg 101 185 label \$1;
#X obj 105 5 inlet midiPitchIn;
#X obj 232 5 inlet modusNr1-12;
#X obj 435 128 inlet transpose;
#X obj 101 118 hradio 12 1 0 12 empty empty empty 0 -8 0 10 #fcfcfc
#000000 #000000 0;
#X obj 232 29 clip 0 11;
#X msg 361 28 0;
#X text 103 292 Description: Modus-object: transforms chromatic midipitch-input
to specified modus.;
#X text 101 338 inlets:;
#X text 101 355 1 number (0-127) \, midiPitch in;
#X text 101 371 2 number (0-11) \, specify modus;
#X text 101 388 3 number (3-6) \, transpose midipitch-output to specified
octave;
#X text 101 436 outlet:;
#X text 101 453 midi-pitch in specified modus and octave out;
#X connect 0 0 5 0;
#X connect 1 0 2 0;
#X connect 2 0 3 0;
#X connect 3 0 8 1;
#X connect 4 1 9 0;
#X connect 5 0 6 0;
#X connect 5 1 4 1;
#X connect 6 0 4 0;
#X connect 7 0 0 0;
#X connect 7 1 1 0;
#X connect 8 0 12 0;
#X connect 9 0 8 0;
#X connect 10 0 1 1;
#X connect 10 0 0 1;
#X connect 11 0 10 0;
#X connect 11 0 6 1;
#X connect 13 0 26 0;
#X connect 14 0 15 0;
#X connect 15 0 2 0;
#X connect 16 0 7 0;
#X connect 17 0 20 0;
#X connect 20 0 19 0;
#X connect 21 0 16 0;
#X connect 22 0 25 0;
#X connect 23 0 14 0;
#X connect 24 0 11 0;
#X connect 24 0 17 0;
#X connect 25 0 24 0;
#X connect 26 0 25 0;
#X coords 0 -1 1 1 146 49 1 100 100;
