#N canvas 0 25 589 652 10;
#N canvas 0 23 505 352 split64 0;
#X obj 12 42 t f f;
#X obj 87 73 > 64;
#X obj 12 106 spigot;
#X obj 54 106 spigot;
#X obj 45 73 <= 64;
#X obj 12 9 inlet;
#X obj 12 226 outlet;
#X obj 54 226 outlet;
#X obj 12 135 t f f;
#X obj 12 199 spigot;
#X obj 54 135 t f f;
#X obj 54 199 spigot;
#X obj 45 166 >= 0;
#X obj 87 166 <= 127;
#X connect 0 0 2 0;
#X connect 0 0 3 0;
#X connect 0 1 1 0;
#X connect 0 1 4 0;
#X connect 1 0 3 1;
#X connect 2 0 8 0;
#X connect 3 0 10 0;
#X connect 4 0 2 1;
#X connect 5 0 0 0;
#X connect 8 0 9 0;
#X connect 8 1 12 0;
#X connect 9 0 6 0;
#X connect 10 0 11 0;
#X connect 10 1 13 0;
#X connect 11 0 7 0;
#X connect 12 0 9 1;
#X connect 13 0 11 1;
#X restore 103 147 pd split64;
#X obj 103 420 outlet~;
#X obj 206 421 outlet~;
#X obj 103 54 inlet;
#X floatatom 103 253 5 0 0 0 - - - 0;
#X obj 245 379 inlet~;
#X obj 146 378 inlet~;
#X obj 103 394 *~;
#X obj 206 395 *~;
#X obj 151 54 loadbang;
#X msg 151 75 64;
#X text 129 103 panning:;
#X obj 206 304 * 6.28318;
#X obj 206 279 + 0.75;
#X obj 103 287 * 6.28318;
#X obj 103 308 cos;
#X obj 206 325 cos;
#X msg 103 333 \$1 20;
#X obj 103 366 line~;
#X obj 103 169 * 0.00195312;
#X obj 160 189 - 64;
#X obj 160 210 * 0.00198413;
#X obj 160 231 + 0.125;
#X msg 206 347 \$1 20;
#X obj 206 369 line~;
#X obj 106 123 hsl 100 12 0 127 0 0 empty empty empty -2 -8 0 10 #fcfcfc
#000000 #000000 0 1;
#X text 229 53 Inlets:;
#X text 229 68 1 number (0-127) \, specifies stereo-panning (64 is
middle);
#X text 229 82 2 signal \, left channel;
#X text 229 97 3 signal \, right channel;
#X text 93 490 outlets:;
#X text 93 505 1 signal \, left channel;
#X text 93 519 2 signal \, right channel;
#X connect 0 0 19 0;
#X connect 0 1 20 0;
#X connect 3 0 25 0;
#X connect 4 0 13 0;
#X connect 4 0 14 0;
#X connect 5 0 8 1;
#X connect 6 0 7 1;
#X connect 7 0 1 0;
#X connect 8 0 2 0;
#X connect 9 0 10 0;
#X connect 10 0 25 0;
#X connect 12 0 16 0;
#X connect 13 0 12 0;
#X connect 14 0 15 0;
#X connect 15 0 17 0;
#X connect 16 0 23 0;
#X connect 17 0 18 0;
#X connect 18 0 7 0;
#X connect 19 0 4 0;
#X connect 20 0 21 0;
#X connect 21 0 22 0;
#X connect 22 0 4 0;
#X connect 23 0 24 0;
#X connect 24 0 8 0;
#X connect 25 0 0 0;
#X coords 0 -1 1 1 111 38 2 100 100;
