#N canvas 7 69 1431 700 12;
#X obj 90 53 inlet~;
#X obj 404 271 +~;
#X obj 464 294 +~;
#X obj 404 339 +~;
#X obj 513 340 +~;
#X obj 446 339 -~;
#X obj 553 339 -~;
#X obj 404 395 +~;
#X obj 446 396 +~;
#X obj 495 397 -~;
#X obj 535 397 -~;
#X obj 495 442 *~ 0;
#X obj 446 441 *~ 0;
#X obj 404 440 *~ 0;
#X obj 535 443 *~ 0;
#X obj 189 53 inlet;
#X obj 147 191 min 100;
#X obj 146 213 max 0;
#X obj 538 201 delread~ loopDel1-\$0 60;
#X obj 557 228 delread~ loopDel2-\$0 71.9345;
#X obj 513 265 delread~ loopDel3-\$0 86.7545;
#X obj 571 288 delread~ loopDel4-\$0 95.945;
#X obj 535 476 delwrite~ loopDel4-\$0 95.945;
#X obj 495 498 delwrite~ loopDel3-\$0 86.7545;
#X obj 446 522 delwrite~ loopDel2-\$0 71.9345;
#X obj 404 544 delwrite~ loopDel1-\$0 60;
#X floatatom 189 117 5 0 100 0 - - - 0;
#X text 101 116 reverb time:;
#X floatatom 189 138 5 0 100 0 - - - 0;
#X floatatom 189 159 5 0 100 0 - - - 0;
#X text 129 159 dry mix:;
#X text 129 137 wet mix:;
#X obj 204 191 min 100;
#X obj 203 213 max 0;
#X obj 260 191 min 100;
#X obj 259 213 max 0;
#X obj 146 238 * 0.005;
#X obj 226 434 *~;
#X obj 158 434 *~;
#X obj 277 94 loadbang;
#X obj 277 142 unpack f f f;
#X obj 203 237 * 0.005;
#X obj 259 237 * 0.005;
#X obj 138 53 inlet~;
#X obj 212 535 outlet~;
#X obj 142 536 outlet~;
#N canvas 237 262 450 300 reverb-echo 0;
#X obj 66 95 inlet~;
#X obj 130 96 inlet~;
#X obj 68 216 outlet~;
#X obj 141 215 outlet~;
#X obj 67 143 +~;
#X obj 140 141 -~;
#X obj 141 165 delwrite~ gorm-\$0 5.43216;
#X obj 140 191 delread~ gorm-\$0 5.43216;
#X obj 355 95 inlet;
#X text 183 94 input (delay time in ms);
#X connect 0 0 4 0;
#X connect 0 0 5 0;
#X connect 1 0 4 1;
#X connect 1 0 5 1;
#X connect 4 0 2 0;
#X connect 5 0 6 0;
#X connect 7 0 3 0;
#X connect 8 0 6 0;
#X connect 8 0 7 0;
#X restore 404 98 pd reverb-echo;
#N canvas 237 262 450 300 reverb-echo 0;
#X obj 66 95 inlet~;
#X obj 130 96 inlet~;
#X obj 68 216 outlet~;
#X obj 141 215 outlet~;
#X obj 67 143 +~;
#X obj 140 141 -~;
#X obj 355 95 inlet;
#X text 183 94 input (delay time in ms);
#X obj 141 165 delwrite~ tage-\$0 5.43216;
#X obj 140 191 delread~ tage-\$0 5.43216;
#X connect 0 0 4 0;
#X connect 0 0 5 0;
#X connect 1 0 4 1;
#X connect 1 0 5 1;
#X connect 4 0 2 0;
#X connect 5 0 8 0;
#X connect 6 0 8 0;
#X connect 6 0 9 0;
#X connect 9 0 3 0;
#X restore 404 126 pd reverb-echo;
#N canvas 237 262 450 300 reverb-echo 0;
#X obj 66 95 inlet~;
#X obj 130 96 inlet~;
#X obj 68 216 outlet~;
#X obj 141 215 outlet~;
#X obj 67 143 +~;
#X obj 140 141 -~;
#X obj 355 95 inlet;
#X text 183 94 input (delay time in ms);
#X obj 141 165 delwrite~ flem-\$0 5.43216;
#X obj 140 191 delread~ flem-\$0 5.43216;
#X connect 0 0 4 0;
#X connect 0 0 5 0;
#X connect 1 0 4 1;
#X connect 1 0 5 1;
#X connect 4 0 2 0;
#X connect 5 0 8 0;
#X connect 6 0 8 0;
#X connect 6 0 9 0;
#X connect 9 0 3 0;
#X restore 404 153 pd reverb-echo;
#N canvas 237 262 450 300 reverb-echo 0;
#X obj 66 95 inlet~;
#X obj 130 96 inlet~;
#X obj 68 216 outlet~;
#X obj 141 215 outlet~;
#X obj 67 143 +~;
#X obj 140 141 -~;
#X obj 355 95 inlet;
#X text 183 94 input (delay time in ms);
#X obj 141 165 delwrite~ bo-\$0 5.43216;
#X obj 140 191 delread~ bo-\$0 5.43216;
#X connect 0 0 4 0;
#X connect 0 0 5 0;
#X connect 1 0 4 1;
#X connect 1 0 5 1;
#X connect 4 0 2 0;
#X connect 5 0 8 0;
#X connect 6 0 8 0;
#X connect 6 0 9 0;
#X connect 9 0 3 0;
#X restore 404 181 pd reverb-echo;
#N canvas 237 262 450 300 reverb-echo 0;
#X obj 66 95 inlet~;
#X obj 130 96 inlet~;
#X obj 68 216 outlet~;
#X obj 141 215 outlet~;
#X obj 67 143 +~;
#X obj 140 141 -~;
#X obj 355 95 inlet;
#X text 183 94 input (delay time in ms);
#X obj 141 165 delwrite~ ib-\$0 5.43216;
#X obj 140 191 delread~ ib-\$0 5.43216;
#X connect 0 0 4 0;
#X connect 0 0 5 0;
#X connect 1 0 4 1;
#X connect 1 0 5 1;
#X connect 4 0 2 0;
#X connect 5 0 8 0;
#X connect 6 0 8 0;
#X connect 6 0 9 0;
#X connect 9 0 3 0;
#X restore 404 206 pd reverb-echo;
#N canvas 237 262 450 300 reverb-echo 0;
#X obj 66 95 inlet~;
#X obj 130 96 inlet~;
#X obj 68 216 outlet~;
#X obj 141 215 outlet~;
#X obj 67 143 +~;
#X obj 140 141 -~;
#X obj 355 95 inlet;
#X text 183 94 input (delay time in ms);
#X obj 141 165 delwrite~ will-\$0 5.43216;
#X obj 140 191 delread~ will-\$0 5.43216;
#X connect 0 0 4 0;
#X connect 0 0 5 0;
#X connect 1 0 4 1;
#X connect 1 0 5 1;
#X connect 4 0 2 0;
#X connect 5 0 8 0;
#X connect 6 0 8 0;
#X connect 6 0 9 0;
#X connect 9 0 3 0;
#X restore 404 234 pd reverb-echo;
#X msg 542 81 5.43216 8.45346 13.4367 21.5463 34.3876 55.5437;
#X obj 542 105 unpack f f f f f f;
#X obj 542 58 loadbang;
#X obj 195 434 *~;
#X obj 256 434 *~;
#X obj 233 53 inlet;
#X obj 277 53 inlet;
#X text 923 123 inlets:;
#X text 923 244 outlets:;
#X text 923 265 1 signal \, left channel;
#X text 923 283 2 signal \, right channel;
#X msg 277 118 55 75 75;
#X text 923 143 1 signal \, left channel;
#X text 923 160 2 signal \, right channel;
#X text 923 177 3 number (0-100) \, feedback gain to control reverb
time;
#X text 923 196 4 number (0-100) \, wet mix;
#X text 923 214 5 number (0-100) \, dry mix;
#X connect 0 0 37 0;
#X connect 0 0 46 0;
#X connect 1 0 3 0;
#X connect 1 0 5 0;
#X connect 1 0 38 0;
#X connect 2 0 3 1;
#X connect 2 0 5 1;
#X connect 2 0 55 0;
#X connect 3 0 7 0;
#X connect 3 0 9 0;
#X connect 4 0 9 1;
#X connect 4 0 7 1;
#X connect 5 0 8 0;
#X connect 5 0 10 0;
#X connect 6 0 8 1;
#X connect 6 0 10 1;
#X connect 7 0 13 0;
#X connect 8 0 12 0;
#X connect 9 0 11 0;
#X connect 10 0 14 0;
#X connect 11 0 23 0;
#X connect 12 0 24 0;
#X connect 13 0 25 0;
#X connect 14 0 22 0;
#X connect 15 0 26 0;
#X connect 16 0 17 0;
#X connect 17 0 36 0;
#X connect 18 0 1 1;
#X connect 19 0 2 1;
#X connect 20 0 4 0;
#X connect 20 0 6 0;
#X connect 21 0 4 1;
#X connect 21 0 6 1;
#X connect 26 0 16 0;
#X connect 28 0 32 0;
#X connect 29 0 34 0;
#X connect 32 0 33 0;
#X connect 33 0 41 0;
#X connect 34 0 35 0;
#X connect 35 0 42 0;
#X connect 36 0 14 1;
#X connect 36 0 13 1;
#X connect 36 0 12 1;
#X connect 36 0 11 1;
#X connect 37 0 45 0;
#X connect 38 0 45 0;
#X connect 39 0 63 0;
#X connect 40 0 26 0;
#X connect 40 1 28 0;
#X connect 40 2 29 0;
#X connect 41 0 38 1;
#X connect 41 0 55 1;
#X connect 42 0 37 1;
#X connect 42 0 56 1;
#X connect 43 0 46 1;
#X connect 43 0 56 0;
#X connect 46 0 47 0;
#X connect 46 1 47 1;
#X connect 47 0 48 0;
#X connect 47 1 48 1;
#X connect 48 0 49 0;
#X connect 48 1 49 1;
#X connect 49 0 50 0;
#X connect 49 1 50 1;
#X connect 50 0 51 0;
#X connect 50 1 51 1;
#X connect 51 0 1 0;
#X connect 51 1 2 0;
#X connect 52 0 53 0;
#X connect 53 0 46 2;
#X connect 53 1 47 2;
#X connect 53 2 48 2;
#X connect 53 3 49 2;
#X connect 53 4 50 2;
#X connect 53 5 51 2;
#X connect 54 0 52 0;
#X connect 55 0 44 0;
#X connect 56 0 44 0;
#X connect 57 0 28 0;
#X connect 58 0 29 0;
#X connect 63 0 40 0;
#X coords 0 -1 1 1 130 80 1 100 100;
