#N canvas 275 25 1159 784 10;
#X obj 207 197 tgl 15 0 empty empty RecordSample: -80 7 0 10 #fcfcfc
#000000 #000000 0 1;
#N canvas 0 22 450 278 (subpatch) 0;
#X array sample-\$0 22050 float 2;
#X coords 0 1 22050 -1 120 50 2 0 0;
#X restore 102 128 graph;
#X msg 326 218 bang;
#X msg 382 199 stop;
#X obj 38 294 tabwrite~ sample-\$0;
#X msg 363 241 \; \$1 normalize;
#X obj 363 219 symbol sample-\$0;
#X obj 299 159 select 1;
#X obj 299 199 t b b;
#X obj 363 158 delay 500;
#X obj 363 177 t b b b;
#X msg 418 200 0;
#X obj 299 180 delay 50;
#X obj 38 60 inlet~ soundIn;
#X obj 190 353 pack f s;
#X obj 235 328 symbol sample-\$0;
#X obj 190 287 * 44.1;
#X floatatom 190 214 5 20 2000 0 Duration\ (ms): - - 0;
#X msg 190 374 \; \$2 resize \$1;
#X msg 525 223 500;
#X obj 452 60 inlet playSample;
#X obj 207 602 outlet~;
#X obj 207 547 tabread4~ sample-\$0;
#X obj 207 525 vline~;
#X obj 190 310 t f b;
#X obj 207 231 bng 15 250 50 0 empty empty PlaySample: -67 7 0 10 #fcfcfc
#000000 #000000;
#X obj 207 581 *~;
#X obj 80 519 vline~;
#X obj 80 465 f;
#X msg 80 499 0 0 \, 1 5 0 \, 0 5 \$1;
#X obj 248 60 inlet recordSample;
#X floatatom 190 248 5 0.05 10 0 speed: - - 0;
#X obj 102 129 cnv 15 120 48 empty \$0-behind empty 2 10 0 9 #dce4fc
#000000 0;
#X obj 555 405 send \$0-behind;
#X floatatom 190 265 5 0 100 0 start\ from: - - 0;
#X msg 482 364 pos \$1 129;
#X obj 482 338 + 102;
#X msg 555 374 vis_size \$1 \$2;
#X obj 555 353 pack 100 48;
#X msg 555 309 120;
#X obj 555 330 -;
#X obj 555 283 t b f;
#X msg 559 184 color 8 22 22;
#X obj 525 121 loadbang;
#X msg 542 204 0;
#X obj 389 478 *;
#X obj 362 404 t b f;
#X obj 362 456 t f f;
#X obj 362 500 -;
#X obj 362 523 pack f f;
#X obj 362 544 unpack f f;
#X obj 362 430 f;
#X obj 362 378 * 0.00833333;
#X floatatom 419 566 5 0 0 0 - - - 0;
#X obj 362 566 * 44.1;
#X obj 207 474 pack 0 f f f;
#X msg 207 499 \$4 0 \, \$3 \$2 0;
#X obj 230 429 t b f;
#X obj 230 451 *;
#X obj 525 142 t b b b b;
#X msg 576 163 1;
#X obj 521 645 soundfiler;
#X obj 521 451 openpanel;
#X msg 581 531 set read -resize \$1;
#X obj 548 531 f \$0;
#X obj 207 180 bng 15 250 50 0 empty empty Open\\\ Soundfile: -90 7
0 10 #fcfcfc #000000 #000000;
#X obj 521 475 t b s;
#X obj 521 501 t b b;
#X msg 521 584 read -resize /Users/andersmonrad/Desktop/PD-oplæg/PD-patches\ -\ version\ 2/LaserLyd.wav
sample-1034;
#X msg 548 559 add2 sample-\$1;
#X obj 521 666 / 44.1;
#X text 720 133 Inlets:;
#X obj 128 60 inlet openSoundfile;
#X obj 362 60 inlet duration;
#X obj 554 60 inlet speed;
#X obj 626 60 inlet startFrom;
#X text 720 148 1 signal \, audio in;
#X text 720 163 2 bang \, open existing soundfile;
#X text 720 178 3 toggle \, record soundfile;
#X text 720 194 4 number \, specify duration in milliseconds;
#X text 720 209 5 bang \, play sample;
#X text 720 250 7 number \, specify starting point of playback (0-100)
;
#X text 720 278 Outlet:;
#X text 720 295 1 signal \, audio out;
#N canvas 639 324 559 431 speedcalculation 0;
#X obj 95 15 inlet;
#X obj 192 90 >= 0;
#X obj 95 60 t f f;
#X obj 94 178 spigot;
#X obj 142 178 spigot;
#X obj 192 111 select 0 1;
#X msg 163 143 0;
#X msg 192 143 1;
#X msg 233 143 0;
#X msg 262 143 1;
#X obj 142 199 + 1;
#X floatatom 142 220 5 0 0 0 - - - 0;
#X obj 94 199 + 5;
#X obj 94 220 * 0.2;
#X obj 94 286 clip 0.01 6;
#X obj 94 307 outlet;
#X obj 95 37 * -1;
#X connect 0 0 16 0;
#X connect 1 0 5 0;
#X connect 2 0 3 0;
#X connect 2 0 4 0;
#X connect 2 1 1 0;
#X connect 3 0 12 0;
#X connect 4 0 10 0;
#X connect 5 0 8 0;
#X connect 5 0 7 0;
#X connect 5 1 9 0;
#X connect 5 1 6 0;
#X connect 6 0 3 1;
#X connect 7 0 3 1;
#X connect 8 0 4 1;
#X connect 9 0 4 1;
#X connect 10 0 11 0;
#X connect 11 0 14 0;
#X connect 12 0 13 0;
#X connect 13 0 14 0;
#X connect 14 0 15 0;
#X connect 16 0 2 0;
#X restore 829 407 pd speedcalculation;
#X text 720 224 6 number (float) \, specify playback speed (0.1-4 \,
1 is normal speed);
#X obj 554 81 clip 0.05 10;
#X connect 0 0 7 0;
#X connect 2 0 4 0;
#X connect 3 0 4 0;
#X connect 6 0 5 0;
#X connect 7 0 12 0;
#X connect 8 0 9 0;
#X connect 8 1 2 0;
#X connect 9 0 10 0;
#X connect 10 0 6 0;
#X connect 10 1 3 0;
#X connect 10 2 11 0;
#X connect 11 0 0 0;
#X connect 12 0 8 0;
#X connect 13 0 4 0;
#X connect 14 0 18 0;
#X connect 15 0 14 1;
#X connect 16 0 24 0;
#X connect 16 0 28 1;
#X connect 16 0 55 2;
#X connect 17 0 9 1;
#X connect 17 0 16 0;
#X connect 17 0 51 0;
#X connect 19 0 17 0;
#X connect 20 0 25 0;
#X connect 22 0 26 0;
#X connect 23 0 22 0;
#X connect 24 0 14 0;
#X connect 24 1 15 0;
#X connect 25 0 28 0;
#X connect 25 0 55 0;
#X connect 26 0 21 0;
#X connect 27 0 26 1;
#X connect 28 0 29 0;
#X connect 29 0 27 0;
#X connect 30 0 0 0;
#X connect 31 0 57 0;
#X connect 34 0 36 0;
#X connect 34 0 41 0;
#X connect 35 0 33 0;
#X connect 36 0 35 0;
#X connect 37 0 33 0;
#X connect 38 0 37 0;
#X connect 39 0 40 0;
#X connect 40 0 38 0;
#X connect 40 0 52 0;
#X connect 41 0 39 0;
#X connect 41 1 40 1;
#X connect 42 0 33 0;
#X connect 43 0 59 0;
#X connect 44 0 34 0;
#X connect 45 0 49 1;
#X connect 45 0 48 1;
#X connect 46 0 51 0;
#X connect 46 1 45 1;
#X connect 47 0 48 0;
#X connect 47 1 45 0;
#X connect 48 0 49 0;
#X connect 49 0 50 0;
#X connect 50 0 54 0;
#X connect 50 1 53 0;
#X connect 51 0 47 0;
#X connect 52 0 46 0;
#X connect 53 0 58 0;
#X connect 54 0 55 3;
#X connect 55 0 56 0;
#X connect 56 0 23 0;
#X connect 57 0 16 0;
#X connect 57 0 58 0;
#X connect 57 1 58 1;
#X connect 58 0 55 1;
#X connect 59 0 19 0;
#X connect 59 1 44 0;
#X connect 59 2 42 0;
#X connect 59 3 60 0;
#X connect 60 0 31 0;
#X connect 61 0 70 0;
#X connect 62 0 66 0;
#X connect 63 0 68 0;
#X connect 64 0 69 0;
#X connect 65 0 62 0;
#X connect 66 0 67 0;
#X connect 66 1 63 0;
#X connect 67 0 68 0;
#X connect 67 1 64 0;
#X connect 68 0 61 0;
#X connect 69 0 68 0;
#X connect 70 0 17 0;
#X connect 72 0 65 0;
#X connect 73 0 17 0;
#X connect 74 0 86 0;
#X connect 75 0 34 0;
#X connect 86 0 31 0;
#X coords 0 -1 1 1 124 182 1 100 100;
