#N canvas 107 36 1114 670 12;
#X obj 343 108 tgl 18 0 empty empty empty 0 -6 0 8 #fcfcfc #000000
#000000 0 1;
#N canvas 0 0 450 300 (subpatch) 0;
#X array \$0-spectrum 259 float 0;
#X coords 0 0.51 258 -0.008 256 130 1 0 0;
#X restore 105 132 graph;
#X obj 491 135 inlet~;
#X obj 490 294 rfft~;
#X obj 490 327 *~;
#X obj 521 327 *~;
#X obj 490 357 sqrt~;
#X obj 490 383 biquad~ 0 0 0 0 1;
#X text 554 295 Fourier series;
#X text 559 348 magnitude;
#X text 557 333 calculate;
#X text 546 140 signal to analyze;
#X text 658 334 delay two samples;
#X text 656 352 for better graphing;
#X obj 755 158 samplerate~;
#X obj 755 133 bang~;
#X msg 674 492 \; pd dsp 1;
#X obj 521 214 osc~;
#X obj 521 242 +~ 1;
#X obj 491 267 *~;
#X text 576 217 hanning window;
#X obj 717 158 0.5;
#X obj 700 469 tabwrite~ \$0-spectrum;
#X msg 924 206 4096;
#X floatatom 924 254 5 0 0 0 - - - 0;
#X obj 924 230 * 0.25;
#X obj 703 431 metro 200;
#X obj 700 291 block~ 4096 1;
#X obj 755 181 / 4096;
#X obj 490 407 /~ 4096;
#X text 49 394 Inlets:;
#X text 49 414 1 signal in to be analyzed;
#X obj 618 41 inlet toggleOnOff;
#X text 49 432 2 toggle on/off;
#X text 49 336 Description: This abstraction computes the spectrum
of the incoming signal with a (rectangular windowed) FFT.;
#X connect 0 0 16 0;
#X connect 0 0 26 0;
#X connect 2 0 19 0;
#X connect 3 0 4 0;
#X connect 3 0 4 1;
#X connect 3 1 5 0;
#X connect 3 1 5 1;
#X connect 4 0 6 0;
#X connect 5 0 6 0;
#X connect 6 0 7 0;
#X connect 7 0 29 0;
#X connect 14 0 28 0;
#X connect 15 0 14 0;
#X connect 15 0 21 0;
#X connect 17 0 18 0;
#X connect 18 0 19 1;
#X connect 19 0 3 0;
#X connect 21 0 17 1;
#X connect 23 0 25 0;
#X connect 25 0 24 0;
#X connect 26 0 22 0;
#X connect 28 0 17 0;
#X connect 29 0 22 0;
#X connect 32 0 0 0;
#X coords 0 -1 1 1 266 164 1 100 100;
