#N canvas 66 25 441 330 10;
#N canvas 0 23 450 278 (subpatch) 0;
#X array waveform-\$0 256 float 4;
#X coords 0 1 255 -1 250 100 2 0 0;
#X restore 125 125 graph;
#X obj 360 105 tgl 15 0 empty empty empty 17 7 0 10 #fcfcfc #000000
#000000 0 1;
#X obj 200 236 inlet~;
#X obj 360 59 loadbang;
#X msg 360 80 1;
#X text 115 118 1;
#X text 115 167 0;
#X obj 200 284 tabwrite~ waveform-\$0;
#X obj 200 259 clip~ -1 1;
#X obj 268 259 metro 25;
#X floatatom 313 105 5 0 0 0 - - - 0;
#X text 213 105 render-frequency;
#X text 15 32 Inlets:;
#X text 15 47 1 signal in to be displayed;
#X text 15 8 Description: live-display (waveform) of incoming signal
;
#X obj 323 59 inlet;
#X msg 392 81 25;
#X obj 245 43 inlet;
#X obj 245 64 clip 1 100;
#X text 15 73 3 toggle on/off;
#X text 15 60 2 number (1-100) \, render frequency;
#X connect 1 0 9 0;
#X connect 2 0 8 0;
#X connect 3 0 4 0;
#X connect 3 0 16 0;
#X connect 4 0 1 0;
#X connect 8 0 7 0;
#X connect 9 0 7 0;
#X connect 10 0 9 1;
#X connect 15 0 1 0;
#X connect 16 0 18 0;
#X connect 17 0 18 0;
#X connect 18 0 10 0;
#X coords 0 0 400 100 280 130 2 100 100;
