#N canvas 0 28 1436 583 12;
#X floatatom 179 124 5 2 28 0 Subdivision: - - 10;
#X obj 573 20 loadbang;
#X obj 331 46 inlet setSubDivision;
#X obj 350 187 symbol seq-\$0;
#N canvas 493 190 632 380 seq-\$0 0;
#X obj 150 2 r seq-1007Preset;
#X obj 150 27 unpack f f f f f f f f f f f f f f f f f f f f f f f
f f f f f;
#X obj 10 2 r seq-1007CountIn;
#X obj 10 52 select 0 1 2 3 4 5 6 7 8 9 10 11 12 13 14 15 16 17 18
19 20 21 22 23 24 25 26 27;
#X obj 10 300 s seq-1007Out;
#X obj 4 107 tgl 15 0 empty empty empty 17 7 0 10 #fcfcfc #000000 #000000
0 1;
#X obj 4 160 spigot 1;
#X obj 4 87 bng 15 250 50 0 empty empty empty 17 7 0 10 #fcfcfc #000000
#000000;
#X obj 66 107 tgl 15 0 empty empty empty 17 7 0 10 #fcfcfc #000000
#000000 0 1;
#X obj 66 160 spigot 1;
#X obj 66 87 bng 15 250 50 0 empty empty empty 17 7 0 10 #fcfcfc #000000
#000000;
#X obj 129 107 tgl 15 0 empty empty empty 17 7 0 10 #fcfcfc #000000
#000000 0 1;
#X obj 129 160 spigot 1;
#X obj 129 87 bng 15 250 50 0 empty empty empty 17 7 0 10 #fcfcfc #000000
#000000;
#X obj 191 107 tgl 15 0 empty empty empty 17 7 0 10 #fcfcfc #000000
#000000 0 1;
#X obj 191 160 spigot 1;
#X obj 191 87 bng 15 250 50 0 empty empty empty 17 7 0 10 #fcfcfc #000000
#000000;
#X obj 254 107 tgl 15 0 empty empty empty 17 7 0 10 #fcfcfc #000000
#000000 0 1;
#X obj 254 160 spigot 1;
#X obj 254 87 bng 15 250 50 0 empty empty empty 17 7 0 10 #fcfcfc #000000
#000000;
#X obj 316 107 tgl 15 0 empty empty empty 17 7 0 10 #fcfcfc #000000
#000000 0 1;
#X obj 316 160 spigot 1;
#X obj 316 87 bng 15 250 50 0 empty empty empty 17 7 0 10 #fcfcfc #000000
#000000;
#X obj 379 107 tgl 15 0 empty empty empty 17 7 0 10 #fcfcfc #000000
#000000 0 1;
#X obj 379 160 spigot 1;
#X obj 379 87 bng 15 250 50 0 empty empty empty 17 7 0 10 #fcfcfc #000000
#000000;
#X obj 441 107 tgl 15 0 empty empty empty 17 7 0 10 #fcfcfc #000000
#000000 0 1;
#X obj 441 160 spigot 1;
#X obj 441 87 bng 15 250 50 0 empty empty empty 17 7 0 10 #fcfcfc #000000
#000000;
#X connect 0 0 1 0;
#X connect 1 0 5 0;
#X connect 1 1 8 0;
#X connect 1 2 11 0;
#X connect 1 3 14 0;
#X connect 1 4 17 0;
#X connect 1 5 20 0;
#X connect 1 6 23 0;
#X connect 1 7 26 0;
#X connect 2 0 3 0;
#X connect 3 0 7 0;
#X connect 3 1 10 0;
#X connect 3 2 13 0;
#X connect 3 3 16 0;
#X connect 3 4 19 0;
#X connect 3 5 22 0;
#X connect 3 6 25 0;
#X connect 3 7 28 0;
#X connect 5 0 6 1;
#X connect 6 0 4 0;
#X connect 7 0 6 0;
#X connect 8 0 9 1;
#X connect 9 0 4 0;
#X connect 10 0 9 0;
#X connect 11 0 12 1;
#X connect 12 0 4 0;
#X connect 13 0 12 0;
#X connect 14 0 15 1;
#X connect 15 0 4 0;
#X connect 16 0 15 0;
#X connect 17 0 18 1;
#X connect 18 0 4 0;
#X connect 19 0 18 0;
#X connect 20 0 21 1;
#X connect 21 0 4 0;
#X connect 22 0 21 0;
#X connect 23 0 24 1;
#X connect 24 0 4 0;
#X connect 25 0 24 0;
#X connect 26 0 27 1;
#X connect 27 0 4 0;
#X connect 28 0 27 0;
#X coords 0 -1 1 1 508 39 2 0 85;
#X restore 240 102 pd seq-\$0;
#X obj 242 237 r seq-\$0Out;
#X obj 242 264 bng 15 250 50 0 empty empty empty 17 7 0 10 #fcfcfc
#000000 #000000;
#X obj 114 46 inlet trigger;
#X obj 242 289 outlet;
#N canvas 348 227 1092 532 subDivisionCounter 0;
#X obj 440 152 / 4;
#X floatatom 440 176 5 0 0 0 - - - 0;
#X obj 319 171 tgl 25 0 empty empty empty 17 7 0 10 #fcfcfc #000000
#000000 0 1;
#X obj 319 225 metro;
#X obj 277 225 sel 0;
#X obj 277 253 bng 15 250 50 0 empty empty empty 17 7 0 10 #fcfcfc
#000000 #000000;
#X obj 319 254 bng 15 250 50 0 empty empty empty 17 7 0 10 #fcfcfc
#000000 #000000;
#X obj 319 307 int 1;
#X obj 415 309 + 1;
#X floatatom 319 331 5 0 0 0 - - - 0;
#X obj 319 354 % 4;
#X obj 240 189 loadbang;
#X text 238 252 Reset;
#X msg 382 368 0;
#X msg 277 273 0;
#X obj 377 36 inlet setSubDivision;
#X msg 372 139 0;
#X obj 382 344 select 3;
#X obj 319 420 send;
#X obj 564 53 inlet name;
#X obj 344 397 makefilename %sCountIn;
#N canvas 29 67 1262 759 generateSequencer 0;
#X obj 314 136 until;
#X obj 346 189 i;
#X obj 381 189 + 1;
#X msg 390 135 0;
#X obj 374 237 /;
#X obj 346 104 t f b b f;
#X obj 346 266 *;
#X msg 374 213 500;
#X obj 346 339 t f f f;
#X obj 147 303 i;
#X obj 147 388 + 5;
#X obj 179 437 + 1;
#X obj 246 461 + 1;
#X obj 314 162 t b b;
#X obj 147 359 * 3;
#X obj 182 303 + 1;
#X obj 147 327 t f f;
#X obj 221 368 - 1;
#X obj 223 435 t f f f;
#X obj 147 412 t f f f;
#X obj 346 74 clip 2 28;
#X obj 346 301 + 4;
#X obj 314 6 inlet;
#X obj 314 30 t b f;
#X obj 666 123 symbol;
#X obj 649 205 pack symbol symbol;
#X obj 633 265 symbol;
#X obj 617 337 symbol;
#X obj 601 421 pack symbol symbol;
#X msg 617 360 \; \$1 connect 0 0 1 0;
#X msg 666 146 \; \$1 clear;
#X msg 584 503 \; \$1 obj 10 52 select 0 1 2 3 4 5 6 7 8 9 10 11 12
13 14 15 16 17 18 19 20 21 22 23 24 25 26 27;
#X obj 584 480 symbol;
#X msg 568 576 \; \$1 connect 2 0 3 0;
#X obj 568 554 symbol;
#X obj 552 636 pack symbol symbol;
#X obj 552 613 makefilename %sOut;
#X msg 601 443 \; \$2 obj 10 2 r \$1;
#X msg 552 659 \; \$2 obj 10 300 s \$1;
#X obj 392 507 pack f 160 symbol;
#X obj 108 600 pack f f symbol;
#X obj 195 671 pack f f symbol;
#X obj 223 487 pack f f symbol;
#X obj 105 463 pack f f symbol;
#X obj 269 595 pack f symbol;
#X msg 269 620 \; \$2 connect \$1 0 4 0;
#X msg 195 694 \; \$3 connect 3 \$1 \$2 0;
#X msg 223 554 \; \$3 connect \$2 0 \$1 0;
#X msg 105 514 \; \$3 connect \$1 0 \$2 1;
#X msg 346 399 \; \$3 obj \$1 \$2 bng;
#X msg 369 466 \; \$3 obj \$1 \$2 tgl 1;
#X msg 392 535 \; \$3 obj \$1 \$2 spigot 1;
#X msg 108 628 \; \$3 connect 1 \$1 \$2 0;
#X obj 893 206 send;
#X obj 778 100 makefilename pd-%s;
#X obj 778 67 inlet name;
#X obj 536 76 symbol;
#X obj 536 100 t b a b b a b b a b;
#X obj 649 182 makefilename %sPreset;
#X obj 601 398 makefilename %sCountIn;
#X msg 649 228 \; \$2 obj 150 2 r \$1;
#X msg 633 287 \; \$1 obj 150 27 unpack f f f f f f f f f f f f f f
f f f f f f f f f f f f f f;
#X obj 935 175 makefilename %sPreset;
#X obj 893 175 list;
#X obj 918 106 inlet PresetIn;
#X msg 858 68 0 0 0 0 0 0 0 0 0 0 0 0 0 0 0 0 0 0 0 0 0 0 0 0 0 0 0
0;
#X obj 858 42 loadbang;
#X obj 346 372 pack f 87 symbol;
#X obj 369 441 pack f 107 symbol;
#X connect 0 0 13 0;
#X connect 1 0 2 0;
#X connect 1 0 6 0;
#X connect 2 0 1 1;
#X connect 3 0 1 1;
#X connect 3 0 9 1;
#X connect 4 0 6 1;
#X connect 5 0 0 0;
#X connect 5 1 3 0;
#X connect 5 2 7 0;
#X connect 5 2 56 0;
#X connect 5 3 4 1;
#X connect 6 0 21 0;
#X connect 7 0 4 0;
#X connect 8 0 67 0;
#X connect 8 1 39 0;
#X connect 8 2 68 0;
#X connect 9 0 15 0;
#X connect 9 0 16 0;
#X connect 10 0 19 0;
#X connect 11 0 18 0;
#X connect 11 0 43 1;
#X connect 12 0 41 1;
#X connect 12 0 42 1;
#X connect 13 0 9 0;
#X connect 13 1 1 0;
#X connect 14 0 10 0;
#X connect 15 0 9 1;
#X connect 16 0 40 0;
#X connect 16 0 41 0;
#X connect 16 1 17 0;
#X connect 16 1 14 0;
#X connect 18 0 42 0;
#X connect 18 1 12 0;
#X connect 18 2 44 0;
#X connect 19 0 43 0;
#X connect 19 1 11 0;
#X connect 19 2 40 1;
#X connect 20 0 5 0;
#X connect 21 0 8 0;
#X connect 22 0 23 0;
#X connect 23 0 63 0;
#X connect 23 1 20 0;
#X connect 24 0 30 0;
#X connect 25 0 60 0;
#X connect 26 0 61 0;
#X connect 27 0 29 0;
#X connect 28 0 37 0;
#X connect 32 0 31 0;
#X connect 34 0 33 0;
#X connect 35 0 38 0;
#X connect 36 0 35 0;
#X connect 39 0 51 0;
#X connect 40 0 52 0;
#X connect 41 0 46 0;
#X connect 42 0 47 0;
#X connect 43 0 48 0;
#X connect 44 0 45 0;
#X connect 54 0 26 1;
#X connect 54 0 27 1;
#X connect 54 0 24 1;
#X connect 54 0 32 1;
#X connect 54 0 34 1;
#X connect 54 0 28 1;
#X connect 54 0 25 1;
#X connect 54 0 35 1;
#X connect 54 0 43 2;
#X connect 54 0 42 2;
#X connect 54 0 39 2;
#X connect 54 0 40 2;
#X connect 54 0 41 2;
#X connect 54 0 44 1;
#X connect 54 0 67 2;
#X connect 54 0 68 2;
#X connect 55 0 54 0;
#X connect 55 0 56 1;
#X connect 55 0 62 0;
#X connect 56 0 57 0;
#X connect 57 1 36 0;
#X connect 57 2 34 0;
#X connect 57 3 32 0;
#X connect 57 4 59 0;
#X connect 57 5 27 0;
#X connect 57 6 26 0;
#X connect 57 7 58 0;
#X connect 57 8 24 0;
#X connect 58 0 25 0;
#X connect 59 0 28 0;
#X connect 62 0 53 1;
#X connect 63 0 53 0;
#X connect 64 0 63 1;
#X connect 65 0 63 1;
#X connect 66 0 65 0;
#X connect 67 0 49 0;
#X connect 68 0 50 0;
#X restore 512 275 pd generateSequencer;
#X obj 440 120 f;
#X obj 377 70 t b f b;
#X msg 649 240 1 1 1 1 0 0 1 1 0 0 0 0 0 0 0 0 0 0 0 0 0 0 0 0 0 0
0 0;
#X obj 412 245 - 1;
#X obj 180 35 inlet ONE!;
#X obj 257 36 inlet whole_time;
#X obj 698 61 inlet preset;
#X connect 0 0 1 0;
#X connect 1 0 3 1;
#X connect 2 0 3 0;
#X connect 2 0 4 0;
#X connect 3 0 6 0;
#X connect 4 0 5 0;
#X connect 5 0 14 0;
#X connect 6 0 7 0;
#X connect 7 0 8 0;
#X connect 7 0 9 0;
#X connect 8 0 7 1;
#X connect 9 0 10 0;
#X connect 10 0 17 0;
#X connect 10 0 18 0;
#X connect 11 0 5 0;
#X connect 13 0 2 0;
#X connect 14 0 7 1;
#X connect 15 0 21 0;
#X connect 15 0 23 0;
#X connect 16 0 2 0;
#X connect 17 0 13 0;
#X connect 19 0 20 0;
#X connect 19 0 21 1;
#X connect 20 0 18 1;
#X connect 22 0 0 0;
#X connect 23 0 22 0;
#X connect 23 1 0 1;
#X connect 23 1 10 1;
#X connect 23 1 25 0;
#X connect 23 2 16 0;
#X connect 24 0 21 2;
#X connect 25 0 17 1;
#X connect 26 0 2 0;
#X connect 27 0 22 0;
#X connect 28 0 21 2;
#X restore 242 213 pd subDivisionCounter;
#X obj 153 105 bng 15 250 50 0 empty empty Trigger: -50 7 0 10 #fcfcfc
#000000 #000000;
#X msg 242 182 1;
#X obj 479 46 inlet preset;
#X obj 331 70 clip 2 28;
#X floatatom 205 104 5 100 6000 0 Time: - - 10;
#X obj 212 46 inlet whole_time;
#X msg 605 70 2000;
#X msg 573 70 8;
#X obj 573 46 t b b;
#X text 371 291 Inlets:;
#X text 371 308 1 bang \, trigger one period;
#X text 371 343 3 number (2-28) \, specify amount of steps in one period
;
#X text 371 361 4 list of numbers \, preset;
#X text 371 326 2 number (100-6000) \, time in milliseconds of one
period;
#X text 372 424 Outlet:;
#X text 372 442 1 sequencer output;
#X connect 0 0 9 2;
#X connect 1 0 18 0;
#X connect 2 0 13 0;
#X connect 3 0 9 3;
#X connect 5 0 6 0;
#X connect 6 0 8 0;
#X connect 7 0 10 0;
#X connect 10 0 11 0;
#X connect 11 0 9 0;
#X connect 12 0 9 4;
#X connect 13 0 0 0;
#X connect 14 0 9 1;
#X connect 15 0 14 0;
#X connect 16 0 14 0;
#X connect 17 0 0 0;
#X connect 18 0 17 0;
#X connect 18 1 3 0;
#X connect 18 1 16 0;
#X coords 0 -1 1 1 650 43 2 100 100;
