#N canvas 1 25 1439 741 12;
#X floatatom 179 123 5 2 16 0 Subdivision: - - 10;
#X obj -71 32 inlet setSubDivision;
#X obj -148 -16 inlet trigger;
#X obj 153 104 bng 15 250 50 0 empty empty Trigger: -50 7 0 10 #fcfcfc
#000000 #000000;
#X floatatom 205 103 5 100 6000 0 Time: - - 10;
#X obj -117 8 inlet whole_time;
#X msg 173 48 2000;
#X obj 141 -4 loadbang;
#X obj 242 102 bng 15 250 50 0 empty \$0-b1 empty 17 7 0 10 #fcfcfc
#000000 #000000;
#X obj 242 120 tgl 15 0 empty \$0-t1 empty 17 7 0 10 #fcfcfc #000000
#000000 0 1;
#X obj 242 156 vsl 15 50 0 127 0 0 empty \$0-s1 velocity: -57 5 0 10
#fcfcfc #000000 #000000 0 1;
#X obj 242 73 spigot;
#X obj 239 359 pack 0 0 0;
#X obj 483 451 list split 1, f 15;
#X obj 534 477 outlet;
#X obj 280 102 bng 15 250 50 0 empty \$0-b2 empty 17 7 0 10 #fcfcfc
#000000 #000000;
#X obj 280 120 tgl 15 0 empty \$0-t2 empty 17 7 0 10 #fcfcfc #000000
#000000 0 1;
#X obj 280 156 vsl 15 50 0 127 0 0 empty \$0-s2 empty 0 -9 0 10 #fcfcfc
#000000 #000000 0 1;
#X obj 264 54 spigot;
#X obj 259 378 pack 0 0 0;
#X obj 318 102 bng 15 250 50 0 empty \$0-b3 empty 17 7 0 10 #fcfcfc
#000000 #000000;
#X obj 318 120 tgl 15 0 empty \$0-t3 empty 17 7 0 10 #fcfcfc #000000
#000000 0 1;
#X obj 318 156 vsl 15 50 0 127 0 0 empty \$0-s3 empty 0 -9 0 10 #fcfcfc
#000000 #000000 0 1;
#X obj 286 35 spigot;
#X obj 281 397 pack 0 0 0;
#X obj 356 102 bng 15 250 50 0 empty \$0-b4 empty 17 7 0 10 #fcfcfc
#000000 #000000;
#X obj 356 120 tgl 15 0 empty \$0-t4 empty 17 7 0 10 #fcfcfc #000000
#000000 0 1;
#X obj 356 156 vsl 15 50 0 127 0 0 empty \$0-s4 empty 0 -9 0 10 #fcfcfc
#000000 #000000 0 1;
#X obj 308 16 spigot;
#X obj 303 416 pack 0 0 0;
#X obj 394 102 bng 15 250 50 0 empty \$0-b5 empty 17 7 0 10 #fcfcfc
#000000 #000000;
#X obj 394 120 tgl 15 0 empty \$0-t5 empty 17 7 0 10 #fcfcfc #000000
#000000 0 1;
#X obj 394 156 vsl 15 50 0 127 0 0 empty \$0-s5 empty 0 -9 0 10 #fcfcfc
#000000 #000000 0 1;
#X obj 330 73 spigot;
#X obj 327 359 pack 0 0 0;
#X obj 432 102 bng 15 250 50 0 empty \$0-b6 empty 17 7 0 10 #fcfcfc
#000000 #000000;
#X obj 432 120 tgl 15 0 empty \$0-t6 empty 17 7 0 10 #fcfcfc #000000
#000000 0 1;
#X obj 432 156 vsl 15 50 0 127 0 0 empty \$0-s6 empty 0 -9 0 10 #fcfcfc
#000000 #000000 0 1;
#X obj 352 54 spigot;
#X obj 347 378 pack 0 0 0;
#X obj 470 102 bng 15 250 50 0 empty \$0-b7 empty 17 7 0 10 #fcfcfc
#000000 #000000;
#X obj 470 120 tgl 15 0 empty \$0-t7 empty 17 7 0 10 #fcfcfc #000000
#000000 0 1;
#X obj 470 156 vsl 15 50 0 127 0 0 empty \$0-s7 empty 0 -9 0 10 #fcfcfc
#000000 #000000 0 1;
#X obj 374 35 spigot;
#X obj 369 397 pack 0 0 0;
#X obj 508 102 bng 15 250 50 0 empty \$0-b8 empty 17 7 0 10 #fcfcfc
#000000 #000000;
#X obj 508 120 tgl 15 0 empty \$0-t8 empty 17 7 0 10 #fcfcfc #000000
#000000 0 1;
#X obj 508 156 vsl 15 50 0 127 0 0 empty \$0-s8 empty 0 -9 0 10 #fcfcfc
#000000 #000000 0 1;
#X obj 396 16 spigot;
#X obj 391 416 pack 0 0 0;
#X obj 546 102 bng 15 250 50 0 empty \$0-b9 empty 17 7 0 10 #fcfcfc
#000000 #000000;
#X obj 546 120 tgl 15 0 empty \$0-t9 empty 17 7 0 10 #fcfcfc #000000
#000000 0 1;
#X obj 546 156 vsl 15 50 0 127 0 0 empty \$0-s9 empty 0 -9 0 10 #fcfcfc
#000000 #000000 0 1;
#X obj 418 73 spigot;
#X obj 415 359 pack 0 0 0;
#X obj 584 102 bng 15 250 50 0 empty \$0-b10 empty 17 7 0 10 #fcfcfc
#000000 #000000;
#X obj 584 120 tgl 15 0 empty \$0-t10 empty 17 7 0 10 #fcfcfc #000000
#000000 0 1;
#X obj 584 156 vsl 15 50 0 127 0 0 empty \$0-s10 empty 0 -9 0 10 #fcfcfc
#000000 #000000 0 1;
#X obj 440 54 spigot;
#X obj 435 378 pack 0 0 0;
#X obj 622 102 bng 15 250 50 0 empty \$0-b11 empty 17 7 0 10 #fcfcfc
#000000 #000000;
#X obj 622 120 tgl 15 0 empty \$0-t11 empty 17 7 0 10 #fcfcfc #000000
#000000 0 1;
#X obj 622 156 vsl 15 50 0 127 0 0 empty \$0-s11 empty 0 -9 0 10 #fcfcfc
#000000 #000000 0 1;
#X obj 462 35 spigot;
#X obj 457 397 pack 0 0 0;
#X obj 660 102 bng 15 250 50 0 empty \$0-b12 empty 17 7 0 10 #fcfcfc
#000000 #000000;
#X obj 660 120 tgl 15 0 empty \$0-t12 empty 17 7 0 10 #fcfcfc #000000
#000000 0 1;
#X obj 660 156 vsl 15 50 0 127 0 0 empty \$0-s12 empty 0 -9 0 10 #fcfcfc
#000000 #000000 0 1;
#X obj 484 16 spigot;
#X obj 479 416 pack 0 0 0;
#X obj 698 102 bng 15 250 50 0 empty \$0-b13 empty 17 7 0 10 #fcfcfc
#000000 #000000;
#X obj 698 120 tgl 15 0 empty \$0-t13 empty 17 7 0 10 #fcfcfc #000000
#000000 0 1;
#X obj 698 156 vsl 15 50 0 127 0 0 empty \$0-s13 empty 0 -9 0 10 #fcfcfc
#000000 #000000 0 1;
#X obj 506 73 spigot;
#X obj 505 358 pack 0 0 0;
#X obj 736 102 bng 15 250 50 0 empty \$0-b14 empty 17 7 0 10 #fcfcfc
#000000 #000000;
#X obj 736 120 tgl 15 0 empty \$0-t14 empty 17 7 0 10 #fcfcfc #000000
#000000 0 1;
#X obj 736 156 vsl 15 50 0 127 0 0 empty \$0-s14 empty 0 -9 0 10 #fcfcfc
#000000 #000000 0 1;
#X obj 528 54 spigot;
#X obj 525 377 pack 0 0 0;
#X obj 774 102 bng 15 250 50 0 empty \$0-b15 empty 17 7 0 10 #fcfcfc
#000000 #000000;
#X obj 774 120 tgl 15 0 empty \$0-t15 empty 17 7 0 10 #fcfcfc #000000
#000000 0 1;
#X obj 774 156 vsl 15 50 0 127 0 0 empty \$0-s15 empty 0 -9 0 10 #fcfcfc
#000000 #000000 0 1;
#X obj 550 35 spigot;
#X obj 547 396 pack 0 0 0;
#X obj 812 102 bng 15 250 50 0 empty \$0-b16 empty 17 7 0 10 #fcfcfc
#000000 #000000;
#X obj 812 120 tgl 15 0 empty \$0-t16 empty 17 7 0 10 #fcfcfc #000000
#000000 0 1;
#X obj 812 156 vsl 15 50 0 127 0 0 empty \$0-s16 empty 0 -9 0 10 #fcfcfc
#000000 #000000 0 1;
#X obj 565 13 spigot;
#X obj 569 415 pack 0 0 0;
#X msg 55 321 \; \$1 pos \$2 \$3;
#X obj 242 138 nbx 3 14 -1e+37 1e+37 0 0 empty \$0-n1 note: -32 8 0
10 #fcfcfc #000000 #000000 0 256;
#X obj 280 138 nbx 3 14 -1e+37 1e+37 0 0 empty \$0-n2 empty 0 -8 0
10 #fcfcfc #000000 #000000 0 256;
#X obj 318 138 nbx 3 14 -1e+37 1e+37 0 0 empty \$0-n3 empty 0 -8 0
10 #fcfcfc #000000 #000000 0 256;
#X obj 356 138 nbx 3 14 -1e+37 1e+37 0 0 empty \$0-n4 empty 0 -8 0
10 #fcfcfc #000000 #000000 0 256;
#X obj 394 138 nbx 3 14 -1e+37 1e+37 0 0 empty \$0-n5 empty 0 -8 0
10 #fcfcfc #000000 #000000 0 256;
#X obj 432 138 nbx 3 14 -1e+37 1e+37 0 0 empty \$0-n6 empty 0 -8 0
10 #fcfcfc #000000 #000000 0 256;
#X obj 470 138 nbx 3 14 -1e+37 1e+37 0 0 empty \$0-n7 empty 0 -8 0
10 #fcfcfc #000000 #000000 0 256;
#X obj 508 138 nbx 3 14 -1e+37 1e+37 0 0 empty \$0-n8 empty 0 -8 0
10 #fcfcfc #000000 #000000 0 256;
#X obj 546 138 nbx 3 14 -1e+37 1e+37 0 0 empty \$0-n9 empty 0 -8 0
10 #fcfcfc #000000 #000000 0 256;
#X obj 584 138 nbx 3 14 -1e+37 1e+37 0 0 empty \$0-n10 empty 0 -8 0
10 #fcfcfc #000000 #000000 0 256;
#X obj 622 138 nbx 3 14 -1e+37 1e+37 0 0 empty \$0-n11 empty 0 -8 0
10 #fcfcfc #000000 #000000 0 256;
#X obj 660 138 nbx 3 14 -1e+37 1e+37 0 0 empty \$0-n12 empty 0 -8 0
10 #fcfcfc #000000 #000000 0 256;
#X obj 698 138 nbx 3 14 -1e+37 1e+37 0 0 empty \$0-n13 empty 0 -8 0
10 #fcfcfc #000000 #000000 0 256;
#X obj 736 138 nbx 3 14 -1e+37 1e+37 0 0 empty \$0-n14 empty 0 -8 0
10 #fcfcfc #000000 #000000 0 256;
#X obj 774 138 nbx 3 14 -1e+37 1e+37 0 0 empty \$0-n15 empty 0 -8 0
10 #fcfcfc #000000 #000000 0 256;
#X obj 812 138 nbx 3 14 -1e+37 1e+37 0 0 empty \$0-n16 empty 0 -8 0
10 #fcfcfc #000000 #000000 0 256;
#X obj 242 -16 select 1 2 3 4 5 6 7 8 9 10 11 12 13 14 15 16;
#N canvas 150 175 420 432 setToggles 0;
#X obj 27 321 makefilename \$0-t%d;
#X obj 97 138 i;
#X obj 132 138 + 1;
#X msg 141 112 0;
#X obj 97 112 until;
#X msg 97 62 16;
#X obj 97 86 t f b;
#X obj 27 288 + 1;
#X obj 27 363 pack s f f;
#X msg 60 274 242;
#X obj 60 298 +;
#X obj 94 274 * 38;
#X msg 119 216 608;
#X obj 119 240 / 16;
#X obj 97 171 t f b f f b;
#X floatatom 281 196 5 0 0 0 subdivision - - 0;
#X obj 260 261 <;
#X obj 260 285 select 0 1;
#X obj 97 13 inlet subdivision;
#X obj 97 37 t b f f;
#X obj 27 387 outlet;
#X msg 259 329 30000;
#X msg 130 274 120;
#X connect 0 0 8 0;
#X connect 1 0 2 0;
#X connect 1 0 14 0;
#X connect 2 0 1 1;
#X connect 3 0 1 1;
#X connect 4 0 1 0;
#X connect 5 0 6 0;
#X connect 6 0 4 0;
#X connect 6 1 3 0;
#X connect 7 0 0 0;
#X connect 8 0 20 0;
#X connect 9 0 10 0;
#X connect 10 0 8 1;
#X connect 11 0 10 1;
#X connect 12 0 13 0;
#X connect 13 0 11 1;
#X connect 14 0 7 0;
#X connect 14 1 9 0;
#X connect 14 2 11 0;
#X connect 14 3 16 0;
#X connect 14 4 12 0;
#X connect 15 0 13 1;
#X connect 15 0 16 1;
#X connect 16 0 17 0;
#X connect 17 0 21 0;
#X connect 17 1 22 0;
#X connect 18 0 19 0;
#X connect 19 0 5 0;
#X connect 19 1 13 1;
#X connect 19 2 16 1;
#X connect 21 0 8 2;
#X connect 22 0 8 2;
#X restore -9 295 pd setToggles;
#N canvas 150 175 420 432 setBangs 0;
#X obj 97 138 i;
#X obj 132 138 + 1;
#X msg 141 112 0;
#X obj 97 112 until;
#X msg 97 62 16;
#X obj 97 86 t f b;
#X obj 27 288 + 1;
#X obj 27 363 pack s f f;
#X msg 60 274 242;
#X obj 60 298 +;
#X obj 94 274 * 38;
#X msg 119 216 608;
#X obj 119 240 / 16;
#X obj 97 171 t f b f f b;
#X floatatom 281 196 5 0 0 0 subdivision - - 0;
#X obj 260 261 <;
#X obj 260 285 select 0 1;
#X obj 97 13 inlet subdivision;
#X obj 97 37 t b f f;
#X obj 27 387 outlet;
#X obj 27 321 makefilename \$0-b%d;
#X msg 259 329 30000;
#X msg 130 274 102;
#X connect 0 0 1 0;
#X connect 0 0 13 0;
#X connect 1 0 0 1;
#X connect 2 0 0 1;
#X connect 3 0 0 0;
#X connect 4 0 5 0;
#X connect 5 0 3 0;
#X connect 5 1 2 0;
#X connect 6 0 20 0;
#X connect 7 0 19 0;
#X connect 8 0 9 0;
#X connect 9 0 7 1;
#X connect 10 0 9 1;
#X connect 11 0 12 0;
#X connect 12 0 10 1;
#X connect 13 0 6 0;
#X connect 13 1 8 0;
#X connect 13 2 10 0;
#X connect 13 3 15 0;
#X connect 13 4 11 0;
#X connect 14 0 12 1;
#X connect 14 0 15 1;
#X connect 15 0 16 0;
#X connect 16 0 21 0;
#X connect 16 1 22 0;
#X connect 17 0 18 0;
#X connect 18 0 4 0;
#X connect 18 1 12 1;
#X connect 18 2 15 1;
#X connect 20 0 7 0;
#X connect 21 0 7 2;
#X connect 22 0 7 2;
#X restore 89 295 pd setBangs;
#N canvas 150 175 420 432 setNumbers 0;
#X obj 97 138 i;
#X obj 132 138 + 1;
#X msg 141 112 0;
#X obj 97 112 until;
#X msg 97 62 16;
#X obj 97 86 t f b;
#X obj 27 288 + 1;
#X obj 27 363 pack s f f;
#X msg 60 274 242;
#X obj 60 298 +;
#X obj 94 274 * 38;
#X msg 119 216 608;
#X obj 119 240 / 16;
#X obj 97 171 t f b f f b;
#X floatatom 281 196 5 0 0 0 subdivision - - 0;
#X obj 260 261 <;
#X obj 260 285 select 0 1;
#X obj 97 13 inlet subdivision;
#X obj 97 37 t b f f;
#X obj 27 387 outlet;
#X obj 27 321 makefilename \$0-n%d;
#X msg 130 274 138;
#X msg 259 329 30000;
#X connect 0 0 1 0;
#X connect 0 0 13 0;
#X connect 1 0 0 1;
#X connect 2 0 0 1;
#X connect 3 0 0 0;
#X connect 4 0 5 0;
#X connect 5 0 3 0;
#X connect 5 1 2 0;
#X connect 6 0 20 0;
#X connect 7 0 19 0;
#X connect 8 0 9 0;
#X connect 9 0 7 1;
#X connect 10 0 9 1;
#X connect 11 0 12 0;
#X connect 12 0 10 1;
#X connect 13 0 6 0;
#X connect 13 1 8 0;
#X connect 13 2 10 0;
#X connect 13 3 15 0;
#X connect 13 4 11 0;
#X connect 14 0 12 1;
#X connect 14 0 15 1;
#X connect 15 0 16 0;
#X connect 16 0 22 0;
#X connect 16 1 21 0;
#X connect 17 0 18 0;
#X connect 18 0 4 0;
#X connect 18 1 12 1;
#X connect 18 2 15 1;
#X connect 20 0 7 0;
#X connect 21 0 7 2;
#X connect 22 0 7 2;
#X restore 173 295 pd setNumbers;
#N canvas 150 175 420 432 setSliders 0;
#X obj 97 138 i;
#X obj 132 138 + 1;
#X msg 141 112 0;
#X obj 97 112 until;
#X msg 97 62 16;
#X obj 97 86 t f b;
#X obj 27 288 + 1;
#X obj 27 363 pack s f f;
#X msg 60 274 242;
#X obj 60 298 +;
#X obj 94 274 * 38;
#X msg 119 216 608;
#X obj 119 240 / 16;
#X obj 97 171 t f b f f b;
#X floatatom 281 196 5 0 0 0 subdivision - - 0;
#X obj 260 261 <;
#X obj 260 285 select 0 1;
#X obj 97 13 inlet subdivision;
#X obj 97 37 t b f f;
#X obj 27 387 outlet;
#X msg 130 274 156;
#X obj 27 321 makefilename \$0-s%d;
#X msg 259 329 30000;
#X connect 0 0 1 0;
#X connect 0 0 13 0;
#X connect 1 0 0 1;
#X connect 2 0 0 1;
#X connect 3 0 0 0;
#X connect 4 0 5 0;
#X connect 5 0 3 0;
#X connect 5 1 2 0;
#X connect 6 0 21 0;
#X connect 7 0 19 0;
#X connect 8 0 9 0;
#X connect 9 0 7 1;
#X connect 10 0 9 1;
#X connect 11 0 12 0;
#X connect 12 0 10 1;
#X connect 13 0 6 0;
#X connect 13 1 8 0;
#X connect 13 2 10 0;
#X connect 13 3 15 0;
#X connect 13 4 11 0;
#X connect 14 0 12 1;
#X connect 14 0 15 1;
#X connect 15 0 16 0;
#X connect 16 0 22 0;
#X connect 16 1 20 0;
#X connect 17 0 18 0;
#X connect 18 0 4 0;
#X connect 18 1 12 1;
#X connect 18 2 15 1;
#X connect 20 0 7 2;
#X connect 21 0 7 0;
#X connect 22 0 7 2;
#X restore -107 295 pd setSliders;
#X obj 85 270 clip 2 16;
#N canvas 120 292 1092 532 subDivisionCounter 0;
#X obj 257 124 / 4;
#X floatatom 257 146 5 0 0 0 - - - 0;
#X obj 319 191 tgl 25 0 empty empty empty 17 7 0 10 #fcfcfc #000000
#000000 0 1;
#X obj 319 225 metro;
#X obj 277 225 sel 0;
#X obj 319 254 bng 15 250 50 0 empty empty empty 17 7 0 10 #fcfcfc
#000000 #000000;
#X obj 319 307 int 1;
#X obj 415 309 + 1;
#X floatatom 319 331 5 0 0 0 - - - 0;
#X obj 319 354 % 4;
#X obj 193 240 loadbang;
#X msg 382 368 0;
#X msg 277 273 0;
#X obj 377 36 inlet setSubDivision;
#X msg 423 136 0;
#X obj 382 344 select 3;
#X obj 257 102 f;
#X obj 377 61 t b f b;
#X obj 412 245 - 1;
#X obj 180 36 inlet ONE!;
#X obj 257 36 inlet whole_time;
#X obj 319 433 outlet;
#X msg 180 154 1;
#X obj 180 122 t b b;
#X obj 319 402 + 1;
#X connect 0 0 1 0;
#X connect 1 0 3 1;
#X connect 2 0 3 0;
#X connect 2 0 4 0;
#X connect 3 0 5 0;
#X connect 4 0 12 0;
#X connect 5 0 6 0;
#X connect 6 0 7 0;
#X connect 6 0 8 0;
#X connect 7 0 6 1;
#X connect 8 0 9 0;
#X connect 9 0 15 0;
#X connect 9 0 24 0;
#X connect 10 0 12 0;
#X connect 11 0 2 0;
#X connect 12 0 6 1;
#X connect 13 0 17 0;
#X connect 14 0 2 0;
#X connect 15 0 11 0;
#X connect 16 0 0 0;
#X connect 17 0 16 0;
#X connect 17 1 0 1;
#X connect 17 1 9 1;
#X connect 17 1 18 0;
#X connect 17 2 14 0;
#X connect 18 0 15 1;
#X connect 19 0 23 0;
#X connect 20 0 16 0;
#X connect 22 0 2 0;
#X connect 23 0 22 0;
#X connect 23 1 12 0;
#X connect 24 0 21 0;
#X restore 35 232 pd subDivisionCounter;
#X obj 141 20 t b b;
#X msg 141 48 16;
#X obj 657 -1 inlet presetsNote;
#X obj 657 23 unpack f f f f f f f f f f f f f f f f;
#X obj 930 23 unpack f f f f f f f f f f f f f f f f;
#X obj 930 -1 inlet presetsVelocity;
#X obj 655 521 outlet presetsNote;
#X obj 799 545 outlet presetsVelocity;
#X obj 655 429 pack f f f f f f f f f f f f f f f f f;
#X msg 655 453 set \$2 \$3 \$4 \$5 \$6 \$7 \$8 \$9 \$10 \$11 \$12 \$13
\$14 \$15 \$16 \$17;
#X obj 221 171 bng 15 250 50 0 empty empty output\\\ presets: -94 7
0 10 #fcfcfc #000000 #000000;
#X obj 196 234 t b b;
#X obj 799 498 pack f f f f f f f f f f f f f f f f f;
#X msg 799 520 set \$2 \$3 \$4 \$5 \$6 \$7 \$8 \$9 \$10 \$11 \$12 \$13
\$14 \$15 \$16 \$17;
#X text -69 431 Inlets:;
#X text -69 448 1 bang \, trigger one period;
#X text -69 466 2 number (100-6000) \, time in milliseconds of one
period;
#X text -69 580 Outlet:;
#X text -69 614 2 output list of note-presets;
#X text -69 631 3 output list of velocity-presets;
#X obj -71 56 clip 2 16;
#X text -69 483 3 number (2-16) \, specify amount of steps in one period
;
#X obj 0 56 inlet outputPresets;
#X text -69 500 4 bang \, output presets;
#X text -69 516 5 list of numbers \, preset note values;
#X text -69 533 6 list of numbers \, preset velocity values;
#X text -69 598 1 sequencer output (note/velocity-pairs);
#X connect 0 0 112 0;
#X connect 0 0 113 2;
#X connect 1 0 134 0;
#X connect 2 0 3 0;
#X connect 3 0 113 0;
#X connect 4 0 113 1;
#X connect 5 0 4 0;
#X connect 6 0 4 0;
#X connect 7 0 114 0;
#X connect 8 0 11 0;
#X connect 9 0 11 1;
#X connect 10 0 12 2;
#X connect 10 0 126 1;
#X connect 11 0 12 0;
#X connect 12 0 13 0;
#X connect 13 1 14 0;
#X connect 15 0 18 0;
#X connect 16 0 18 1;
#X connect 17 0 19 2;
#X connect 17 0 126 2;
#X connect 18 0 19 0;
#X connect 19 0 13 0;
#X connect 20 0 23 0;
#X connect 21 0 23 1;
#X connect 22 0 24 2;
#X connect 22 0 126 3;
#X connect 23 0 24 0;
#X connect 24 0 13 0;
#X connect 25 0 28 0;
#X connect 26 0 28 1;
#X connect 27 0 29 2;
#X connect 27 0 126 4;
#X connect 28 0 29 0;
#X connect 29 0 13 0;
#X connect 30 0 33 0;
#X connect 31 0 33 1;
#X connect 32 0 34 2;
#X connect 32 0 126 5;
#X connect 33 0 34 0;
#X connect 34 0 13 0;
#X connect 35 0 38 0;
#X connect 36 0 38 1;
#X connect 37 0 39 2;
#X connect 37 0 126 6;
#X connect 38 0 39 0;
#X connect 39 0 13 0;
#X connect 40 0 43 0;
#X connect 41 0 43 1;
#X connect 42 0 44 2;
#X connect 42 0 126 7;
#X connect 43 0 44 0;
#X connect 44 0 13 0;
#X connect 45 0 48 0;
#X connect 46 0 48 1;
#X connect 47 0 49 2;
#X connect 47 0 126 8;
#X connect 48 0 49 0;
#X connect 49 0 13 0;
#X connect 50 0 53 0;
#X connect 51 0 53 1;
#X connect 52 0 54 2;
#X connect 52 0 126 9;
#X connect 53 0 54 0;
#X connect 54 0 13 0;
#X connect 55 0 58 0;
#X connect 56 0 58 1;
#X connect 57 0 59 2;
#X connect 57 0 126 10;
#X connect 58 0 59 0;
#X connect 59 0 13 0;
#X connect 60 0 63 0;
#X connect 61 0 63 1;
#X connect 62 0 64 2;
#X connect 62 0 126 11;
#X connect 63 0 64 0;
#X connect 64 0 13 0;
#X connect 65 0 68 0;
#X connect 66 0 68 1;
#X connect 67 0 69 2;
#X connect 67 0 126 12;
#X connect 68 0 69 0;
#X connect 69 0 13 0;
#X connect 70 0 73 0;
#X connect 71 0 73 1;
#X connect 72 0 74 2;
#X connect 72 0 126 13;
#X connect 73 0 74 0;
#X connect 74 0 13 0;
#X connect 75 0 78 0;
#X connect 76 0 78 1;
#X connect 77 0 79 2;
#X connect 77 0 126 14;
#X connect 78 0 79 0;
#X connect 79 0 13 0;
#X connect 80 0 83 0;
#X connect 81 0 83 1;
#X connect 82 0 84 2;
#X connect 82 0 126 15;
#X connect 83 0 84 0;
#X connect 84 0 13 0;
#X connect 85 0 88 0;
#X connect 86 0 88 1;
#X connect 87 0 89 2;
#X connect 87 0 126 16;
#X connect 88 0 89 0;
#X connect 89 0 13 0;
#X connect 91 0 12 1;
#X connect 91 0 122 1;
#X connect 92 0 19 1;
#X connect 92 0 122 2;
#X connect 93 0 24 1;
#X connect 93 0 122 3;
#X connect 94 0 29 1;
#X connect 94 0 122 4;
#X connect 95 0 34 1;
#X connect 95 0 122 5;
#X connect 96 0 39 1;
#X connect 96 0 122 6;
#X connect 97 0 44 1;
#X connect 97 0 122 7;
#X connect 98 0 49 1;
#X connect 98 0 122 8;
#X connect 99 0 54 1;
#X connect 99 0 122 9;
#X connect 100 0 59 1;
#X connect 100 0 122 10;
#X connect 101 0 64 1;
#X connect 101 0 122 11;
#X connect 102 0 69 1;
#X connect 102 0 122 12;
#X connect 103 0 74 1;
#X connect 103 0 122 13;
#X connect 104 0 79 1;
#X connect 104 0 122 14;
#X connect 105 0 84 1;
#X connect 105 0 122 15;
#X connect 106 0 89 1;
#X connect 106 0 122 16;
#X connect 107 0 8 0;
#X connect 107 1 15 0;
#X connect 107 2 20 0;
#X connect 107 3 25 0;
#X connect 107 4 30 0;
#X connect 107 5 35 0;
#X connect 107 6 40 0;
#X connect 107 7 45 0;
#X connect 107 8 50 0;
#X connect 107 9 55 0;
#X connect 107 10 60 0;
#X connect 107 11 65 0;
#X connect 107 12 70 0;
#X connect 107 13 75 0;
#X connect 107 14 80 0;
#X connect 107 15 85 0;
#X connect 108 0 90 0;
#X connect 109 0 90 0;
#X connect 110 0 90 0;
#X connect 111 0 90 0;
#X connect 112 0 111 0;
#X connect 112 0 109 0;
#X connect 112 0 110 0;
#X connect 112 0 108 0;
#X connect 113 0 107 0;
#X connect 114 0 115 0;
#X connect 114 1 6 0;
#X connect 115 0 0 0;
#X connect 116 0 117 0;
#X connect 117 0 9 0;
#X connect 117 0 91 0;
#X connect 117 1 16 0;
#X connect 117 1 92 0;
#X connect 117 2 21 0;
#X connect 117 2 93 0;
#X connect 117 3 26 0;
#X connect 117 3 94 0;
#X connect 117 4 31 0;
#X connect 117 4 95 0;
#X connect 117 5 36 0;
#X connect 117 5 96 0;
#X connect 117 6 41 0;
#X connect 117 6 97 0;
#X connect 117 7 46 0;
#X connect 117 7 98 0;
#X connect 117 8 51 0;
#X connect 117 8 99 0;
#X connect 117 9 56 0;
#X connect 117 9 100 0;
#X connect 117 10 61 0;
#X connect 117 10 101 0;
#X connect 117 11 66 0;
#X connect 117 11 102 0;
#X connect 117 12 71 0;
#X connect 117 12 103 0;
#X connect 117 13 76 0;
#X connect 117 13 104 0;
#X connect 117 14 81 0;
#X connect 117 14 105 0;
#X connect 117 15 86 0;
#X connect 117 15 106 0;
#X connect 118 0 10 0;
#X connect 118 1 17 0;
#X connect 118 2 22 0;
#X connect 118 3 27 0;
#X connect 118 4 32 0;
#X connect 118 5 37 0;
#X connect 118 6 42 0;
#X connect 118 7 47 0;
#X connect 118 8 52 0;
#X connect 118 9 57 0;
#X connect 118 10 62 0;
#X connect 118 11 67 0;
#X connect 118 12 72 0;
#X connect 118 13 77 0;
#X connect 118 14 82 0;
#X connect 118 15 87 0;
#X connect 119 0 118 0;
#X connect 122 0 123 0;
#X connect 123 0 120 0;
#X connect 124 0 125 0;
#X connect 125 0 122 0;
#X connect 125 0 126 0;
#X connect 125 1 91 0;
#X connect 125 1 106 0;
#X connect 125 1 105 0;
#X connect 125 1 104 0;
#X connect 125 1 103 0;
#X connect 125 1 102 0;
#X connect 125 1 101 0;
#X connect 125 1 100 0;
#X connect 125 1 99 0;
#X connect 125 1 98 0;
#X connect 125 1 97 0;
#X connect 125 1 96 0;
#X connect 125 1 95 0;
#X connect 125 1 94 0;
#X connect 125 1 93 0;
#X connect 125 1 92 0;
#X connect 125 1 10 0;
#X connect 125 1 87 0;
#X connect 125 1 82 0;
#X connect 125 1 77 0;
#X connect 125 1 72 0;
#X connect 125 1 67 0;
#X connect 125 1 62 0;
#X connect 125 1 57 0;
#X connect 125 1 52 0;
#X connect 125 1 47 0;
#X connect 125 1 42 0;
#X connect 125 1 37 0;
#X connect 125 1 32 0;
#X connect 125 1 27 0;
#X connect 125 1 22 0;
#X connect 125 1 17 0;
#X connect 126 0 127 0;
#X connect 127 0 121 0;
#X connect 134 0 0 0;
#X connect 136 0 124 0;
#X coords 0 -1 1 1 750 112 2 100 100;
