#N canvas 58 25 1361 767 12;
#X floatatom 195 119 5 0 0 0 duration\ (ms): - - 10;
#X obj 302 183 mtof;
#X obj 303 82 loadbang;
#X text 421 48 1 amplitude \; 2 relative duration \; 3 relative frequency
\; 4 detune;
#X obj 302 208 s frequency-\$0;
#X obj 203 208 s duration-\$0;
#N canvas 295 320 1086 477 partial 0;
#X obj 507 256 sqrt;
#X text 59 110 trigger;
#X text 75 197 relative frequency;
#X obj 59 363 *~;
#X obj 269 344 line~;
#X obj 269 371 *~;
#X obj 269 398 *~;
#X msg 269 307 0 \$1;
#X obj 507 283 sqrt;
#X obj 269 180 t b b;
#X text 345 231 relative duration;
#X msg 507 310 \$1 5;
#X obj 269 207 del 5;
#X obj 507 229 * 0.1;
#X text 592 200 get amplitude from argument 1;
#X text 566 228 normalize to 0.1;
#X text 558 255 take fourth root (square root twice);
#X text 586 272 because we'll raise line~ output to;
#X text 585 289 fourth power;
#X text 557 314 attack time 5 msec;
#X text 322 206 decay after 5 msec;
#X text 511 179 attack;
#X obj 269 280 *;
#X text 306 280 actual duration;
#X obj 59 274 *;
#X obj 59 336 osc~;
#X text 91 274 times global freq.;
#X text 90 301 plus detune;
#X text 313 307 decay msg to line~;
#X text 308 372 raise to fourth power for;
#X text 309 390 natural-sounding decay shape;
#X text 62 418 add to global;
#X text 61 437 summing bus;
#X text 63 67 This patch is used as an abstraction in the additive
synthesis example \, D06.additive.pd;
#X text 67 26 partial -- sinusoidal partial for additive synthesis
;
#X text 673 34 arguments:;
#X text 647 59 1 amplitude \; 2 relative duration \; 3 relative frequency
\; 4 detune;
#X obj 258 108 inlet;
#X obj 258 132 unpack f f f f;
#X obj 59 222 float;
#X obj 268 233 float;
#X obj 507 202 float;
#X obj 59 301 +;
#X obj 411 127 inlet frequency;
#X obj 541 127 inlet duration;
#X obj 59 160 inlet trigger;
#X obj 59 390 outlet~;
#X connect 0 0 8 0;
#X connect 3 0 46 0;
#X connect 4 0 5 0;
#X connect 4 0 5 1;
#X connect 5 0 6 0;
#X connect 5 0 6 1;
#X connect 6 0 3 1;
#X connect 7 0 4 0;
#X connect 8 0 11 0;
#X connect 9 0 12 0;
#X connect 9 1 41 0;
#X connect 11 0 4 0;
#X connect 12 0 40 0;
#X connect 13 0 0 0;
#X connect 22 0 7 0;
#X connect 24 0 42 0;
#X connect 25 0 3 0;
#X connect 37 0 38 0;
#X connect 38 0 41 1;
#X connect 38 1 40 1;
#X connect 38 2 39 1;
#X connect 38 3 42 1;
#X connect 39 0 24 0;
#X connect 40 0 22 0;
#X connect 41 0 13 0;
#X connect 42 0 25 0;
#X connect 43 0 24 1;
#X connect 44 0 22 1;
#X connect 45 0 9 0;
#X connect 45 0 39 0;
#X restore 569 418 pd partial;
#X msg 591 83 1 1 0.56 0;
#X obj 613 375 r frequency-\$0;
#X obj 636 396 r duration-\$0;
#N canvas 295 320 1086 477 partial 0;
#X obj 507 256 sqrt;
#X text 59 110 trigger;
#X text 75 197 relative frequency;
#X obj 59 363 *~;
#X obj 269 344 line~;
#X obj 269 371 *~;
#X obj 269 398 *~;
#X msg 269 307 0 \$1;
#X obj 507 283 sqrt;
#X obj 269 180 t b b;
#X text 345 231 relative duration;
#X msg 507 310 \$1 5;
#X obj 269 207 del 5;
#X obj 507 229 * 0.1;
#X text 592 200 get amplitude from argument 1;
#X text 566 228 normalize to 0.1;
#X text 558 255 take fourth root (square root twice);
#X text 586 272 because we'll raise line~ output to;
#X text 585 289 fourth power;
#X text 557 314 attack time 5 msec;
#X text 322 206 decay after 5 msec;
#X text 511 179 attack;
#X obj 269 280 *;
#X text 306 280 actual duration;
#X obj 59 274 *;
#X obj 59 336 osc~;
#X text 91 274 times global freq.;
#X text 90 301 plus detune;
#X text 313 307 decay msg to line~;
#X text 308 372 raise to fourth power for;
#X text 309 390 natural-sounding decay shape;
#X text 62 418 add to global;
#X text 61 437 summing bus;
#X text 63 67 This patch is used as an abstraction in the additive
synthesis example \, D06.additive.pd;
#X text 67 26 partial -- sinusoidal partial for additive synthesis
;
#X text 673 34 arguments:;
#X text 647 59 1 amplitude \; 2 relative duration \; 3 relative frequency
\; 4 detune;
#X obj 258 108 inlet;
#X obj 258 132 unpack f f f f;
#X obj 59 222 float;
#X obj 268 233 float;
#X obj 507 202 float;
#X obj 59 301 +;
#X obj 411 127 inlet frequency;
#X obj 541 127 inlet duration;
#X obj 59 160 inlet trigger;
#X obj 59 390 outlet~;
#X connect 0 0 8 0;
#X connect 3 0 46 0;
#X connect 4 0 5 0;
#X connect 4 0 5 1;
#X connect 5 0 6 0;
#X connect 5 0 6 1;
#X connect 6 0 3 1;
#X connect 7 0 4 0;
#X connect 8 0 11 0;
#X connect 9 0 12 0;
#X connect 9 1 41 0;
#X connect 11 0 4 0;
#X connect 12 0 40 0;
#X connect 13 0 0 0;
#X connect 22 0 7 0;
#X connect 24 0 42 0;
#X connect 25 0 3 0;
#X connect 37 0 38 0;
#X connect 38 0 41 1;
#X connect 38 1 40 1;
#X connect 38 2 39 1;
#X connect 38 3 42 1;
#X connect 39 0 24 0;
#X connect 40 0 22 0;
#X connect 41 0 13 0;
#X connect 42 0 25 0;
#X connect 43 0 24 1;
#X connect 44 0 22 1;
#X connect 45 0 9 0;
#X connect 45 0 39 0;
#X restore 762 424 pd partial;
#X obj 806 381 r frequency-\$0;
#X obj 829 402 r duration-\$0;
#N canvas 295 320 1086 477 partial 0;
#X obj 507 256 sqrt;
#X text 59 110 trigger;
#X text 75 197 relative frequency;
#X obj 59 363 *~;
#X obj 269 344 line~;
#X obj 269 371 *~;
#X obj 269 398 *~;
#X msg 269 307 0 \$1;
#X obj 507 283 sqrt;
#X obj 269 180 t b b;
#X text 345 231 relative duration;
#X msg 507 310 \$1 5;
#X obj 269 207 del 5;
#X obj 507 229 * 0.1;
#X text 592 200 get amplitude from argument 1;
#X text 566 228 normalize to 0.1;
#X text 558 255 take fourth root (square root twice);
#X text 586 272 because we'll raise line~ output to;
#X text 585 289 fourth power;
#X text 557 314 attack time 5 msec;
#X text 322 206 decay after 5 msec;
#X text 511 179 attack;
#X obj 269 280 *;
#X text 306 280 actual duration;
#X obj 59 274 *;
#X obj 59 336 osc~;
#X text 91 274 times global freq.;
#X text 90 301 plus detune;
#X text 313 307 decay msg to line~;
#X text 308 372 raise to fourth power for;
#X text 309 390 natural-sounding decay shape;
#X text 62 418 add to global;
#X text 61 437 summing bus;
#X text 63 67 This patch is used as an abstraction in the additive
synthesis example \, D06.additive.pd;
#X text 67 26 partial -- sinusoidal partial for additive synthesis
;
#X text 673 34 arguments:;
#X text 647 59 1 amplitude \; 2 relative duration \; 3 relative frequency
\; 4 detune;
#X obj 258 108 inlet;
#X obj 258 132 unpack f f f f;
#X obj 59 222 float;
#X obj 268 233 float;
#X obj 507 202 float;
#X obj 59 301 +;
#X obj 411 127 inlet frequency;
#X obj 541 127 inlet duration;
#X obj 59 160 inlet trigger;
#X obj 59 390 outlet~;
#X connect 0 0 8 0;
#X connect 3 0 46 0;
#X connect 4 0 5 0;
#X connect 4 0 5 1;
#X connect 5 0 6 0;
#X connect 5 0 6 1;
#X connect 6 0 3 1;
#X connect 7 0 4 0;
#X connect 8 0 11 0;
#X connect 9 0 12 0;
#X connect 9 1 41 0;
#X connect 11 0 4 0;
#X connect 12 0 40 0;
#X connect 13 0 0 0;
#X connect 22 0 7 0;
#X connect 24 0 42 0;
#X connect 25 0 3 0;
#X connect 37 0 38 0;
#X connect 38 0 41 1;
#X connect 38 1 40 1;
#X connect 38 2 39 1;
#X connect 38 3 42 1;
#X connect 39 0 24 0;
#X connect 40 0 22 0;
#X connect 41 0 13 0;
#X connect 42 0 25 0;
#X connect 43 0 24 1;
#X connect 44 0 22 1;
#X connect 45 0 9 0;
#X connect 45 0 39 0;
#X restore 943 432 pd partial;
#X obj 987 389 r frequency-\$0;
#X obj 1010 410 r duration-\$0;
#N canvas 295 320 1086 477 partial 0;
#X obj 507 256 sqrt;
#X text 59 110 trigger;
#X text 75 197 relative frequency;
#X obj 59 363 *~;
#X obj 269 344 line~;
#X obj 269 371 *~;
#X obj 269 398 *~;
#X msg 269 307 0 \$1;
#X obj 507 283 sqrt;
#X obj 269 180 t b b;
#X text 345 231 relative duration;
#X msg 507 310 \$1 5;
#X obj 269 207 del 5;
#X obj 507 229 * 0.1;
#X text 592 200 get amplitude from argument 1;
#X text 566 228 normalize to 0.1;
#X text 558 255 take fourth root (square root twice);
#X text 586 272 because we'll raise line~ output to;
#X text 585 289 fourth power;
#X text 557 314 attack time 5 msec;
#X text 322 206 decay after 5 msec;
#X text 511 179 attack;
#X obj 269 280 *;
#X text 306 280 actual duration;
#X obj 59 274 *;
#X obj 59 336 osc~;
#X text 91 274 times global freq.;
#X text 90 301 plus detune;
#X text 313 307 decay msg to line~;
#X text 308 372 raise to fourth power for;
#X text 309 390 natural-sounding decay shape;
#X text 62 418 add to global;
#X text 61 437 summing bus;
#X text 63 67 This patch is used as an abstraction in the additive
synthesis example \, D06.additive.pd;
#X text 67 26 partial -- sinusoidal partial for additive synthesis
;
#X text 673 34 arguments:;
#X text 647 59 1 amplitude \; 2 relative duration \; 3 relative frequency
\; 4 detune;
#X obj 258 108 inlet;
#X obj 258 132 unpack f f f f;
#X obj 59 222 float;
#X obj 268 233 float;
#X obj 507 202 float;
#X obj 59 301 +;
#X obj 411 127 inlet frequency;
#X obj 541 127 inlet duration;
#X obj 59 160 inlet trigger;
#X obj 59 390 outlet~;
#X connect 0 0 8 0;
#X connect 3 0 46 0;
#X connect 4 0 5 0;
#X connect 4 0 5 1;
#X connect 5 0 6 0;
#X connect 5 0 6 1;
#X connect 6 0 3 1;
#X connect 7 0 4 0;
#X connect 8 0 11 0;
#X connect 9 0 12 0;
#X connect 9 1 41 0;
#X connect 11 0 4 0;
#X connect 12 0 40 0;
#X connect 13 0 0 0;
#X connect 22 0 7 0;
#X connect 24 0 42 0;
#X connect 25 0 3 0;
#X connect 37 0 38 0;
#X connect 38 0 41 1;
#X connect 38 1 40 1;
#X connect 38 2 39 1;
#X connect 38 3 42 1;
#X connect 39 0 24 0;
#X connect 40 0 22 0;
#X connect 41 0 13 0;
#X connect 42 0 25 0;
#X connect 43 0 24 1;
#X connect 44 0 22 1;
#X connect 45 0 9 0;
#X connect 45 0 39 0;
#X restore 1127 436 pd partial;
#X obj 1171 393 r frequency-\$0;
#X obj 1194 414 r duration-\$0;
#N canvas 295 320 1086 477 partial 0;
#X obj 507 256 sqrt;
#X text 59 110 trigger;
#X text 75 197 relative frequency;
#X obj 59 363 *~;
#X obj 269 344 line~;
#X obj 269 371 *~;
#X obj 269 398 *~;
#X msg 269 307 0 \$1;
#X obj 507 283 sqrt;
#X obj 269 180 t b b;
#X text 345 231 relative duration;
#X msg 507 310 \$1 5;
#X obj 269 207 del 5;
#X obj 507 229 * 0.1;
#X text 592 200 get amplitude from argument 1;
#X text 566 228 normalize to 0.1;
#X text 558 255 take fourth root (square root twice);
#X text 586 272 because we'll raise line~ output to;
#X text 585 289 fourth power;
#X text 557 314 attack time 5 msec;
#X text 322 206 decay after 5 msec;
#X text 511 179 attack;
#X obj 269 280 *;
#X text 306 280 actual duration;
#X obj 59 274 *;
#X obj 59 336 osc~;
#X text 91 274 times global freq.;
#X text 90 301 plus detune;
#X text 313 307 decay msg to line~;
#X text 308 372 raise to fourth power for;
#X text 309 390 natural-sounding decay shape;
#X text 62 418 add to global;
#X text 61 437 summing bus;
#X text 63 67 This patch is used as an abstraction in the additive
synthesis example \, D06.additive.pd;
#X text 67 26 partial -- sinusoidal partial for additive synthesis
;
#X text 673 34 arguments:;
#X text 647 59 1 amplitude \; 2 relative duration \; 3 relative frequency
\; 4 detune;
#X obj 258 108 inlet;
#X obj 258 132 unpack f f f f;
#X obj 59 222 float;
#X obj 268 233 float;
#X obj 507 202 float;
#X obj 59 301 +;
#X obj 411 127 inlet frequency;
#X obj 541 127 inlet duration;
#X obj 59 160 inlet trigger;
#X obj 59 390 outlet~;
#X connect 0 0 8 0;
#X connect 3 0 46 0;
#X connect 4 0 5 0;
#X connect 4 0 5 1;
#X connect 5 0 6 0;
#X connect 5 0 6 1;
#X connect 6 0 3 1;
#X connect 7 0 4 0;
#X connect 8 0 11 0;
#X connect 9 0 12 0;
#X connect 9 1 41 0;
#X connect 11 0 4 0;
#X connect 12 0 40 0;
#X connect 13 0 0 0;
#X connect 22 0 7 0;
#X connect 24 0 42 0;
#X connect 25 0 3 0;
#X connect 37 0 38 0;
#X connect 38 0 41 1;
#X connect 38 1 40 1;
#X connect 38 2 39 1;
#X connect 38 3 42 1;
#X connect 39 0 24 0;
#X connect 40 0 22 0;
#X connect 41 0 13 0;
#X connect 42 0 25 0;
#X connect 43 0 24 1;
#X connect 44 0 22 1;
#X connect 45 0 9 0;
#X connect 45 0 39 0;
#X restore 569 516 pd partial;
#X obj 613 473 r frequency-\$0;
#X obj 636 494 r duration-\$0;
#N canvas 295 320 1086 477 partial 0;
#X obj 507 256 sqrt;
#X text 59 110 trigger;
#X text 75 197 relative frequency;
#X obj 59 363 *~;
#X obj 269 344 line~;
#X obj 269 371 *~;
#X obj 269 398 *~;
#X msg 269 307 0 \$1;
#X obj 507 283 sqrt;
#X obj 269 180 t b b;
#X text 345 231 relative duration;
#X msg 507 310 \$1 5;
#X obj 269 207 del 5;
#X obj 507 229 * 0.1;
#X text 592 200 get amplitude from argument 1;
#X text 566 228 normalize to 0.1;
#X text 558 255 take fourth root (square root twice);
#X text 586 272 because we'll raise line~ output to;
#X text 585 289 fourth power;
#X text 557 314 attack time 5 msec;
#X text 322 206 decay after 5 msec;
#X text 511 179 attack;
#X obj 269 280 *;
#X text 306 280 actual duration;
#X obj 59 274 *;
#X obj 59 336 osc~;
#X text 91 274 times global freq.;
#X text 90 301 plus detune;
#X text 313 307 decay msg to line~;
#X text 308 372 raise to fourth power for;
#X text 309 390 natural-sounding decay shape;
#X text 62 418 add to global;
#X text 61 437 summing bus;
#X text 63 67 This patch is used as an abstraction in the additive
synthesis example \, D06.additive.pd;
#X text 67 26 partial -- sinusoidal partial for additive synthesis
;
#X text 673 34 arguments:;
#X text 647 59 1 amplitude \; 2 relative duration \; 3 relative frequency
\; 4 detune;
#X obj 258 108 inlet;
#X obj 258 132 unpack f f f f;
#X obj 59 222 float;
#X obj 268 233 float;
#X obj 507 202 float;
#X obj 59 301 +;
#X obj 411 127 inlet frequency;
#X obj 541 127 inlet duration;
#X obj 59 160 inlet trigger;
#X obj 59 390 outlet~;
#X connect 0 0 8 0;
#X connect 3 0 46 0;
#X connect 4 0 5 0;
#X connect 4 0 5 1;
#X connect 5 0 6 0;
#X connect 5 0 6 1;
#X connect 6 0 3 1;
#X connect 7 0 4 0;
#X connect 8 0 11 0;
#X connect 9 0 12 0;
#X connect 9 1 41 0;
#X connect 11 0 4 0;
#X connect 12 0 40 0;
#X connect 13 0 0 0;
#X connect 22 0 7 0;
#X connect 24 0 42 0;
#X connect 25 0 3 0;
#X connect 37 0 38 0;
#X connect 38 0 41 1;
#X connect 38 1 40 1;
#X connect 38 2 39 1;
#X connect 38 3 42 1;
#X connect 39 0 24 0;
#X connect 40 0 22 0;
#X connect 41 0 13 0;
#X connect 42 0 25 0;
#X connect 43 0 24 1;
#X connect 44 0 22 1;
#X connect 45 0 9 0;
#X connect 45 0 39 0;
#X restore 762 522 pd partial;
#X obj 806 479 r frequency-\$0;
#X obj 829 500 r duration-\$0;
#N canvas 295 320 1086 477 partial 0;
#X obj 507 256 sqrt;
#X text 59 110 trigger;
#X text 75 197 relative frequency;
#X obj 59 363 *~;
#X obj 269 344 line~;
#X obj 269 371 *~;
#X obj 269 398 *~;
#X msg 269 307 0 \$1;
#X obj 507 283 sqrt;
#X obj 269 180 t b b;
#X text 345 231 relative duration;
#X msg 507 310 \$1 5;
#X obj 269 207 del 5;
#X obj 507 229 * 0.1;
#X text 592 200 get amplitude from argument 1;
#X text 566 228 normalize to 0.1;
#X text 558 255 take fourth root (square root twice);
#X text 586 272 because we'll raise line~ output to;
#X text 585 289 fourth power;
#X text 557 314 attack time 5 msec;
#X text 322 206 decay after 5 msec;
#X text 511 179 attack;
#X obj 269 280 *;
#X text 306 280 actual duration;
#X obj 59 274 *;
#X obj 59 336 osc~;
#X text 91 274 times global freq.;
#X text 90 301 plus detune;
#X text 313 307 decay msg to line~;
#X text 308 372 raise to fourth power for;
#X text 309 390 natural-sounding decay shape;
#X text 62 418 add to global;
#X text 61 437 summing bus;
#X text 63 67 This patch is used as an abstraction in the additive
synthesis example \, D06.additive.pd;
#X text 67 26 partial -- sinusoidal partial for additive synthesis
;
#X text 673 34 arguments:;
#X text 647 59 1 amplitude \; 2 relative duration \; 3 relative frequency
\; 4 detune;
#X obj 258 108 inlet;
#X obj 258 132 unpack f f f f;
#X obj 59 222 float;
#X obj 268 233 float;
#X obj 507 202 float;
#X obj 59 301 +;
#X obj 411 127 inlet frequency;
#X obj 541 127 inlet duration;
#X obj 59 160 inlet trigger;
#X obj 59 390 outlet~;
#X connect 0 0 8 0;
#X connect 3 0 46 0;
#X connect 4 0 5 0;
#X connect 4 0 5 1;
#X connect 5 0 6 0;
#X connect 5 0 6 1;
#X connect 6 0 3 1;
#X connect 7 0 4 0;
#X connect 8 0 11 0;
#X connect 9 0 12 0;
#X connect 9 1 41 0;
#X connect 11 0 4 0;
#X connect 12 0 40 0;
#X connect 13 0 0 0;
#X connect 22 0 7 0;
#X connect 24 0 42 0;
#X connect 25 0 3 0;
#X connect 37 0 38 0;
#X connect 38 0 41 1;
#X connect 38 1 40 1;
#X connect 38 2 39 1;
#X connect 38 3 42 1;
#X connect 39 0 24 0;
#X connect 40 0 22 0;
#X connect 41 0 13 0;
#X connect 42 0 25 0;
#X connect 43 0 24 1;
#X connect 44 0 22 1;
#X connect 45 0 9 0;
#X connect 45 0 39 0;
#X restore 943 530 pd partial;
#X obj 987 487 r frequency-\$0;
#X obj 1010 508 r duration-\$0;
#N canvas 295 320 1086 477 partial 0;
#X obj 507 256 sqrt;
#X text 59 110 trigger;
#X text 75 197 relative frequency;
#X obj 59 363 *~;
#X obj 269 344 line~;
#X obj 269 371 *~;
#X obj 269 398 *~;
#X msg 269 307 0 \$1;
#X obj 507 283 sqrt;
#X obj 269 180 t b b;
#X text 345 231 relative duration;
#X msg 507 310 \$1 5;
#X obj 269 207 del 5;
#X obj 507 229 * 0.1;
#X text 592 200 get amplitude from argument 1;
#X text 566 228 normalize to 0.1;
#X text 558 255 take fourth root (square root twice);
#X text 586 272 because we'll raise line~ output to;
#X text 585 289 fourth power;
#X text 557 314 attack time 5 msec;
#X text 322 206 decay after 5 msec;
#X text 511 179 attack;
#X obj 269 280 *;
#X text 306 280 actual duration;
#X obj 59 274 *;
#X obj 59 336 osc~;
#X text 91 274 times global freq.;
#X text 90 301 plus detune;
#X text 313 307 decay msg to line~;
#X text 308 372 raise to fourth power for;
#X text 309 390 natural-sounding decay shape;
#X text 62 418 add to global;
#X text 61 437 summing bus;
#X text 63 67 This patch is used as an abstraction in the additive
synthesis example \, D06.additive.pd;
#X text 67 26 partial -- sinusoidal partial for additive synthesis
;
#X text 673 34 arguments:;
#X text 647 59 1 amplitude \; 2 relative duration \; 3 relative frequency
\; 4 detune;
#X obj 258 108 inlet;
#X obj 258 132 unpack f f f f;
#X obj 59 222 float;
#X obj 268 233 float;
#X obj 507 202 float;
#X obj 59 301 +;
#X obj 411 127 inlet frequency;
#X obj 541 127 inlet duration;
#X obj 59 160 inlet trigger;
#X obj 59 390 outlet~;
#X connect 0 0 8 0;
#X connect 3 0 46 0;
#X connect 4 0 5 0;
#X connect 4 0 5 1;
#X connect 5 0 6 0;
#X connect 5 0 6 1;
#X connect 6 0 3 1;
#X connect 7 0 4 0;
#X connect 8 0 11 0;
#X connect 9 0 12 0;
#X connect 9 1 41 0;
#X connect 11 0 4 0;
#X connect 12 0 40 0;
#X connect 13 0 0 0;
#X connect 22 0 7 0;
#X connect 24 0 42 0;
#X connect 25 0 3 0;
#X connect 37 0 38 0;
#X connect 38 0 41 1;
#X connect 38 1 40 1;
#X connect 38 2 39 1;
#X connect 38 3 42 1;
#X connect 39 0 24 0;
#X connect 40 0 22 0;
#X connect 41 0 13 0;
#X connect 42 0 25 0;
#X connect 43 0 24 1;
#X connect 44 0 22 1;
#X connect 45 0 9 0;
#X connect 45 0 39 0;
#X restore 1127 534 pd partial;
#X obj 1171 491 r frequency-\$0;
#X obj 1194 512 r duration-\$0;
#N canvas 295 320 1086 477 partial 0;
#X obj 507 256 sqrt;
#X text 59 110 trigger;
#X text 75 197 relative frequency;
#X obj 59 363 *~;
#X obj 269 344 line~;
#X obj 269 371 *~;
#X obj 269 398 *~;
#X msg 269 307 0 \$1;
#X obj 507 283 sqrt;
#X obj 269 180 t b b;
#X text 345 231 relative duration;
#X msg 507 310 \$1 5;
#X obj 269 207 del 5;
#X obj 507 229 * 0.1;
#X text 592 200 get amplitude from argument 1;
#X text 566 228 normalize to 0.1;
#X text 558 255 take fourth root (square root twice);
#X text 586 272 because we'll raise line~ output to;
#X text 585 289 fourth power;
#X text 557 314 attack time 5 msec;
#X text 322 206 decay after 5 msec;
#X text 511 179 attack;
#X obj 269 280 *;
#X text 306 280 actual duration;
#X obj 59 274 *;
#X obj 59 336 osc~;
#X text 91 274 times global freq.;
#X text 90 301 plus detune;
#X text 313 307 decay msg to line~;
#X text 308 372 raise to fourth power for;
#X text 309 390 natural-sounding decay shape;
#X text 62 418 add to global;
#X text 61 437 summing bus;
#X text 63 67 This patch is used as an abstraction in the additive
synthesis example \, D06.additive.pd;
#X text 67 26 partial -- sinusoidal partial for additive synthesis
;
#X text 673 34 arguments:;
#X text 647 59 1 amplitude \; 2 relative duration \; 3 relative frequency
\; 4 detune;
#X obj 258 108 inlet;
#X obj 258 132 unpack f f f f;
#X obj 59 222 float;
#X obj 268 233 float;
#X obj 507 202 float;
#X obj 59 301 +;
#X obj 411 127 inlet frequency;
#X obj 541 127 inlet duration;
#X obj 59 160 inlet trigger;
#X obj 59 390 outlet~;
#X connect 0 0 8 0;
#X connect 3 0 46 0;
#X connect 4 0 5 0;
#X connect 4 0 5 1;
#X connect 5 0 6 0;
#X connect 5 0 6 1;
#X connect 6 0 3 1;
#X connect 7 0 4 0;
#X connect 8 0 11 0;
#X connect 9 0 12 0;
#X connect 9 1 41 0;
#X connect 11 0 4 0;
#X connect 12 0 40 0;
#X connect 13 0 0 0;
#X connect 22 0 7 0;
#X connect 24 0 42 0;
#X connect 25 0 3 0;
#X connect 37 0 38 0;
#X connect 38 0 41 1;
#X connect 38 1 40 1;
#X connect 38 2 39 1;
#X connect 38 3 42 1;
#X connect 39 0 24 0;
#X connect 40 0 22 0;
#X connect 41 0 13 0;
#X connect 42 0 25 0;
#X connect 43 0 24 1;
#X connect 44 0 22 1;
#X connect 45 0 9 0;
#X connect 45 0 39 0;
#X restore 569 611 pd partial;
#X obj 613 568 r frequency-\$0;
#X obj 636 589 r duration-\$0;
#N canvas 295 320 1086 477 partial 0;
#X obj 507 256 sqrt;
#X text 59 110 trigger;
#X text 75 197 relative frequency;
#X obj 59 363 *~;
#X obj 269 344 line~;
#X obj 269 371 *~;
#X obj 269 398 *~;
#X msg 269 307 0 \$1;
#X obj 507 283 sqrt;
#X obj 269 180 t b b;
#X text 345 231 relative duration;
#X msg 507 310 \$1 5;
#X obj 269 207 del 5;
#X obj 507 229 * 0.1;
#X text 592 200 get amplitude from argument 1;
#X text 566 228 normalize to 0.1;
#X text 558 255 take fourth root (square root twice);
#X text 586 272 because we'll raise line~ output to;
#X text 585 289 fourth power;
#X text 557 314 attack time 5 msec;
#X text 322 206 decay after 5 msec;
#X text 511 179 attack;
#X obj 269 280 *;
#X text 306 280 actual duration;
#X obj 59 274 *;
#X obj 59 336 osc~;
#X text 91 274 times global freq.;
#X text 90 301 plus detune;
#X text 313 307 decay msg to line~;
#X text 308 372 raise to fourth power for;
#X text 309 390 natural-sounding decay shape;
#X text 62 418 add to global;
#X text 61 437 summing bus;
#X text 63 67 This patch is used as an abstraction in the additive
synthesis example \, D06.additive.pd;
#X text 67 26 partial -- sinusoidal partial for additive synthesis
;
#X text 673 34 arguments:;
#X text 647 59 1 amplitude \; 2 relative duration \; 3 relative frequency
\; 4 detune;
#X obj 258 108 inlet;
#X obj 258 132 unpack f f f f;
#X obj 59 222 float;
#X obj 268 233 float;
#X obj 507 202 float;
#X obj 59 301 +;
#X obj 411 127 inlet frequency;
#X obj 541 127 inlet duration;
#X obj 59 160 inlet trigger;
#X obj 59 390 outlet~;
#X connect 0 0 8 0;
#X connect 3 0 46 0;
#X connect 4 0 5 0;
#X connect 4 0 5 1;
#X connect 5 0 6 0;
#X connect 5 0 6 1;
#X connect 6 0 3 1;
#X connect 7 0 4 0;
#X connect 8 0 11 0;
#X connect 9 0 12 0;
#X connect 9 1 41 0;
#X connect 11 0 4 0;
#X connect 12 0 40 0;
#X connect 13 0 0 0;
#X connect 22 0 7 0;
#X connect 24 0 42 0;
#X connect 25 0 3 0;
#X connect 37 0 38 0;
#X connect 38 0 41 1;
#X connect 38 1 40 1;
#X connect 38 2 39 1;
#X connect 38 3 42 1;
#X connect 39 0 24 0;
#X connect 40 0 22 0;
#X connect 41 0 13 0;
#X connect 42 0 25 0;
#X connect 43 0 24 1;
#X connect 44 0 22 1;
#X connect 45 0 9 0;
#X connect 45 0 39 0;
#X restore 762 617 pd partial;
#X obj 806 574 r frequency-\$0;
#X obj 829 595 r duration-\$0;
#N canvas 295 320 1086 477 partial 0;
#X obj 507 256 sqrt;
#X text 59 110 trigger;
#X text 75 197 relative frequency;
#X obj 59 363 *~;
#X obj 269 344 line~;
#X obj 269 371 *~;
#X obj 269 398 *~;
#X msg 269 307 0 \$1;
#X obj 507 283 sqrt;
#X obj 269 180 t b b;
#X text 345 231 relative duration;
#X msg 507 310 \$1 5;
#X obj 269 207 del 5;
#X obj 507 229 * 0.1;
#X text 592 200 get amplitude from argument 1;
#X text 566 228 normalize to 0.1;
#X text 558 255 take fourth root (square root twice);
#X text 586 272 because we'll raise line~ output to;
#X text 585 289 fourth power;
#X text 557 314 attack time 5 msec;
#X text 322 206 decay after 5 msec;
#X text 511 179 attack;
#X obj 269 280 *;
#X text 306 280 actual duration;
#X obj 59 274 *;
#X obj 59 336 osc~;
#X text 91 274 times global freq.;
#X text 90 301 plus detune;
#X text 313 307 decay msg to line~;
#X text 308 372 raise to fourth power for;
#X text 309 390 natural-sounding decay shape;
#X text 62 418 add to global;
#X text 61 437 summing bus;
#X text 63 67 This patch is used as an abstraction in the additive
synthesis example \, D06.additive.pd;
#X text 67 26 partial -- sinusoidal partial for additive synthesis
;
#X text 673 34 arguments:;
#X text 647 59 1 amplitude \; 2 relative duration \; 3 relative frequency
\; 4 detune;
#X obj 258 108 inlet;
#X obj 258 132 unpack f f f f;
#X obj 59 222 float;
#X obj 268 233 float;
#X obj 507 202 float;
#X obj 59 301 +;
#X obj 411 127 inlet frequency;
#X obj 541 127 inlet duration;
#X obj 59 160 inlet trigger;
#X obj 59 390 outlet~;
#X connect 0 0 8 0;
#X connect 3 0 46 0;
#X connect 4 0 5 0;
#X connect 4 0 5 1;
#X connect 5 0 6 0;
#X connect 5 0 6 1;
#X connect 6 0 3 1;
#X connect 7 0 4 0;
#X connect 8 0 11 0;
#X connect 9 0 12 0;
#X connect 9 1 41 0;
#X connect 11 0 4 0;
#X connect 12 0 40 0;
#X connect 13 0 0 0;
#X connect 22 0 7 0;
#X connect 24 0 42 0;
#X connect 25 0 3 0;
#X connect 37 0 38 0;
#X connect 38 0 41 1;
#X connect 38 1 40 1;
#X connect 38 2 39 1;
#X connect 38 3 42 1;
#X connect 39 0 24 0;
#X connect 40 0 22 0;
#X connect 41 0 13 0;
#X connect 42 0 25 0;
#X connect 43 0 24 1;
#X connect 44 0 22 1;
#X connect 45 0 9 0;
#X connect 45 0 39 0;
#X restore 943 625 pd partial;
#X obj 987 582 r frequency-\$0;
#X obj 1010 603 r duration-\$0;
#X msg 591 102 0.67 0.9 0.56 1;
#X msg 591 121 1 0.65 0.92 0;
#X msg 591 140 1.8 0.55 0.92 1.7;
#X msg 591 159 2.67 0.325 1.19 0;
#X msg 591 178 1.67 0.35 1.7 0;
#X msg 591 197 1.46 0.25 2 0;
#X msg 591 216 1.33 0.2 2.74 0;
#X msg 591 235 1.33 0.15 3 0;
#X msg 591 254 1 0.1 3.76 0;
#X msg 591 273 1.33 0.075 4.07 0;
#X text 587 59 Partials:;
#X obj 200 50 clip 0 127;
#X obj 313 34 clip 0 20000;
#X obj 313 10 inlet duration;
#X obj 490 290 t b b;
#X msg 303 105 100;
#X text 35 449 Inlets:;
#X obj 200 5 inlet midiIn;
#X obj 200 28 unpack f f;
#X obj 269 301 clip 0 127;
#X obj 269 327 * 0.00787402;
#X obj 836 696 *~;
#X obj 836 720 outlet~;
#X text 35 517 Outlets:;
#X text 35 535 1 signal \, audio out;
#X text 36 647 Implementation of a simple additive synthesis instrument
originally from Jean-Claude Risset - using 11 partials to model a bell-sound.
;
#X text 35 695 Partial takes as arguments an amplitude \, a relative
frequency \, a detuning frequency \, and a relative duration.;
#X obj 200 72 t b f;
#X text 35 469 1 midi-input (pitch/velocity pairs);
#X text 35 487 2 number (0-20000) duration in milliseconds;
#X msg 337 105 1000;
#X text 36 630 Description:;
#X connect 0 0 5 0;
#X connect 1 0 4 0;
#X connect 2 0 55 0;
#X connect 2 0 70 0;
#X connect 6 0 61 0;
#X connect 7 0 6 1;
#X connect 8 0 6 2;
#X connect 9 0 6 3;
#X connect 10 0 61 0;
#X connect 11 0 10 2;
#X connect 12 0 10 3;
#X connect 13 0 61 0;
#X connect 14 0 13 2;
#X connect 15 0 13 3;
#X connect 16 0 61 0;
#X connect 17 0 16 2;
#X connect 18 0 16 3;
#X connect 19 0 61 0;
#X connect 20 0 19 2;
#X connect 21 0 19 3;
#X connect 22 0 61 0;
#X connect 23 0 22 2;
#X connect 24 0 22 3;
#X connect 25 0 61 0;
#X connect 26 0 25 2;
#X connect 27 0 25 3;
#X connect 28 0 61 0;
#X connect 29 0 28 2;
#X connect 30 0 28 3;
#X connect 31 0 61 0;
#X connect 32 0 31 2;
#X connect 33 0 31 3;
#X connect 34 0 61 0;
#X connect 35 0 34 2;
#X connect 36 0 34 3;
#X connect 37 0 61 0;
#X connect 38 0 37 2;
#X connect 39 0 37 3;
#X connect 40 0 10 1;
#X connect 41 0 13 1;
#X connect 42 0 16 1;
#X connect 43 0 19 1;
#X connect 44 0 22 1;
#X connect 45 0 25 1;
#X connect 46 0 28 1;
#X connect 47 0 31 1;
#X connect 48 0 34 1;
#X connect 49 0 37 1;
#X connect 51 0 67 0;
#X connect 52 0 0 0;
#X connect 53 0 52 0;
#X connect 54 0 6 0;
#X connect 54 0 37 0;
#X connect 54 0 34 0;
#X connect 54 0 31 0;
#X connect 54 0 19 0;
#X connect 54 0 22 0;
#X connect 54 0 25 0;
#X connect 54 0 28 0;
#X connect 54 0 16 0;
#X connect 54 0 13 0;
#X connect 54 0 10 0;
#X connect 54 1 7 0;
#X connect 54 1 49 0;
#X connect 54 1 48 0;
#X connect 54 1 47 0;
#X connect 54 1 46 0;
#X connect 54 1 45 0;
#X connect 54 1 44 0;
#X connect 54 1 43 0;
#X connect 54 1 42 0;
#X connect 54 1 41 0;
#X connect 54 1 40 0;
#X connect 57 0 58 0;
#X connect 58 0 51 0;
#X connect 58 1 59 0;
#X connect 59 0 60 0;
#X connect 60 0 61 1;
#X connect 61 0 62 0;
#X connect 67 0 54 0;
#X connect 67 1 1 0;
#X connect 70 0 0 0;
#X coords 0 -1 1 1 136 40 1 100 100;
