#N canvas 260 39 956 704 12;
#X floatatom 189 134 5 0 0 0 Carrier\ Freq.: - - 10;
#X floatatom 189 152 5 0 0 0 Harmonicity: - - 10;
#X obj 187 229 sig~;
#X obj 224 229 sig~;
#X obj 187 522 *~;
#N canvas 70 323 816 334 simpleFM 0;
#X obj 141 193 +~;
#X obj 181 161 *~;
#X obj 181 119 osc~;
#X obj 181 70 *~;
#X obj 226 119 *~;
#X text 23 118 modulating oscillator:;
#X text 37 160 modulator amplitude:;
#X obj 141 219 osc~;
#X text 4 220 carrier oscillator:;
#X obj 141 9 inlet~ CarrierFrequency;
#X obj 199 44 inlet~ HarmonicityRatio;
#X obj 244 80 inlet~ ModulationIndex;
#X obj 141 245 outlet~ FMsignalOut;
#X connect 0 0 7 0;
#X connect 1 0 0 1;
#X connect 2 0 1 0;
#X connect 3 0 4 0;
#X connect 3 0 2 0;
#X connect 4 0 1 1;
#X connect 7 0 12 0;
#X connect 9 0 0 0;
#X connect 9 0 3 0;
#X connect 10 0 3 1;
#X connect 11 0 4 1;
#X restore 187 388 pd simpleFM;
#X obj 261 361 vline~;
#X obj 205 497 vline~;
#N canvas 100 360 828 390 presets 0;
#N canvas 324 349 616 393 Preset1 0;
#X msg 255 205 addcomma;
#X msg 295 155 set;
#X msg 275 180 add2 6 0;
#X msg 235 229 add2 0 5000 0;
#X obj 235 114 t b b b b;
#X obj 295 284 outlet ModLine;
#X msg 518 113 set;
#X msg 471 159 add2 0.906 0;
#X msg 454 183 addcomma;
#X msg 438 207 add2 0.125 1000 0;
#X msg 405 231 add2 0.015 2000 1000;
#X msg 372 255 add2 0 2000 3000;
#X obj 488 293 outlet AmpLine;
#X msg 21 133 130.81;
#X msg 125 238 2.8;
#X obj 21 171 outlet CarrierFreq;
#X obj 125 277 outlet harmonicity;
#X obj 235 36 inlet Preset1;
#X obj 371 82 t b b b b b b b b b b;
#X connect 0 0 5 0;
#X connect 1 0 5 0;
#X connect 2 0 5 0;
#X connect 3 0 5 0;
#X connect 4 0 3 0;
#X connect 4 1 0 0;
#X connect 4 2 2 0;
#X connect 4 3 1 0;
#X connect 6 0 12 0;
#X connect 7 0 12 0;
#X connect 8 0 12 0;
#X connect 9 0 12 0;
#X connect 10 0 12 0;
#X connect 11 0 12 0;
#X connect 13 0 15 0;
#X connect 14 0 16 0;
#X connect 17 0 13 0;
#X connect 17 0 14 0;
#X connect 17 0 4 0;
#X connect 17 0 18 0;
#X connect 18 0 11 0;
#X connect 18 1 8 0;
#X connect 18 2 10 0;
#X connect 18 3 8 0;
#X connect 18 4 9 0;
#X connect 18 5 8 0;
#X connect 18 6 7 0;
#X connect 18 9 6 0;
#X restore 159 153 pd Preset1;
#X obj 362 303 outlet ModLine;
#X obj 385 340 outlet AmpLine;
#X obj 318 234 outlet CarrierFreq;
#X obj 340 268 outlet harmonicity;
#X obj 159 32 inlet Presets;
#N canvas 324 349 844 393 Preset2 0;
#X msg 287 189 addcomma;
#X msg 323 139 set;
#X obj 323 281 outlet ModLine;
#X msg 690 100 set;
#X msg 628 176 addcomma;
#X msg 579 224 add2 0.015 2000 1000;
#X msg 546 248 add2 0 2000 3000;
#X obj 662 286 outlet AmpLine;
#X msg 21 133 130.81;
#X obj 21 171 outlet CarrierFreq;
#X obj 125 277 outlet harmonicity;
#X msg 125 238 1.005;
#X obj 235 67 inlet Preset2;
#X msg 305 164 add2 7.5 0;
#X msg 270 213 add2 1.875 2706.42 0;
#X obj 235 114 t b b b b b b;
#X msg 235 237 add2 0 2293.58 2706.42;
#X obj 546 65 t b b b b b b b b b b;
#X msg 645 152 add2 0.906 5 0;
#X msg 612 200 add2 0.125 995 5;
#X connect 0 0 2 0;
#X connect 1 0 2 0;
#X connect 3 0 7 0;
#X connect 4 0 7 0;
#X connect 5 0 7 0;
#X connect 6 0 7 0;
#X connect 8 0 9 0;
#X connect 11 0 10 0;
#X connect 12 0 8 0;
#X connect 12 0 11 0;
#X connect 12 0 15 0;
#X connect 12 0 17 0;
#X connect 13 0 2 0;
#X connect 14 0 2 0;
#X connect 15 0 16 0;
#X connect 15 1 0 0;
#X connect 15 2 14 0;
#X connect 15 3 0 0;
#X connect 15 4 13 0;
#X connect 15 5 1 0;
#X connect 16 0 2 0;
#X connect 17 0 6 0;
#X connect 17 1 4 0;
#X connect 17 2 5 0;
#X connect 17 3 4 0;
#X connect 17 4 19 0;
#X connect 17 5 4 0;
#X connect 17 6 18 0;
#X connect 17 9 3 0;
#X connect 18 0 7 0;
#X connect 19 0 7 0;
#X restore 237 153 pd Preset2;
#N canvas 324 349 844 393 Preset3 0;
#X msg 283 189 addcomma;
#X msg 323 139 set;
#X obj 323 259 outlet ModLine;
#X msg 686 98 set;
#X msg 626 176 addcomma;
#X obj 658 352 outlet AmpLine;
#X msg 21 133 130.81;
#X obj 21 171 outlet CarrierFreq;
#X obj 125 277 outlet harmonicity;
#X obj 263 114 t b b b b;
#X msg 303 164 add2 1.5 0;
#X msg 263 213 add2 0 400 0;
#X obj 235 67 inlet Preset3;
#X msg 578 224 add2 0.766 60 40;
#X msg 546 248 add2 0.094 62 100;
#X msg 514 292 add2 0 238 162;
#X msg 610 200 add2 0.844 35 5;
#X msg 642 152 add2 0.688 5 0;
#X obj 514 72 t b b b b b b b b b b b b;
#X msg 125 238 0.707;
#X connect 0 0 2 0;
#X connect 1 0 2 0;
#X connect 3 0 5 0;
#X connect 4 0 5 0;
#X connect 6 0 7 0;
#X connect 9 0 11 0;
#X connect 9 1 0 0;
#X connect 9 2 10 0;
#X connect 9 3 1 0;
#X connect 10 0 2 0;
#X connect 11 0 2 0;
#X connect 12 0 6 0;
#X connect 12 0 19 0;
#X connect 12 0 9 0;
#X connect 12 0 18 0;
#X connect 13 0 5 0;
#X connect 14 0 5 0;
#X connect 15 0 5 0;
#X connect 16 0 5 0;
#X connect 17 0 5 0;
#X connect 18 0 15 0;
#X connect 18 1 4 0;
#X connect 18 2 14 0;
#X connect 18 3 4 0;
#X connect 18 4 13 0;
#X connect 18 5 4 0;
#X connect 18 6 16 0;
#X connect 18 7 4 0;
#X connect 18 8 17 0;
#X connect 18 11 3 0;
#X connect 19 0 8 0;
#X restore 318 153 pd Preset3;
#N canvas 324 349 889 393 Preset4 0;
#X msg 389 168 addcomma;
#X msg 421 120 set;
#X obj 421 340 outlet ModLine;
#X msg 686 98 set;
#X msg 626 176 addcomma;
#X obj 658 352 outlet AmpLine;
#X obj 21 171 outlet CarrierFreq;
#X obj 125 277 outlet harmonicity;
#X obj 514 72 t b b b b b b b b b b b b;
#X msg 125 238 1;
#X msg 405 143 add2 0 0;
#X msg 373 190 add2 5.25 51 0;
#X msg 342 214 add2 4.5 30 51;
#X msg 310 238 add2 0.375 246 51;
#X msg 278 264 add2 0 103 297;
#X obj 263 92 t b b b b b b b b b b b;
#X obj 263 40 inlet Preset4;
#X msg 21 133 392;
#X msg 642 152 add2 1 51 0;
#X msg 610 200 add2 0.734 41 51;
#X msg 578 224 add2 0.688 235 92;
#X msg 546 248 add2 0 73 327;
#X connect 0 0 2 0;
#X connect 1 0 2 0;
#X connect 3 0 5 0;
#X connect 4 0 5 0;
#X connect 8 2 21 0;
#X connect 8 3 4 0;
#X connect 8 4 20 0;
#X connect 8 5 4 0;
#X connect 8 6 19 0;
#X connect 8 7 4 0;
#X connect 8 8 18 0;
#X connect 8 11 3 0;
#X connect 9 0 7 0;
#X connect 10 0 2 0;
#X connect 11 0 2 0;
#X connect 12 0 2 0;
#X connect 13 0 2 0;
#X connect 14 0 2 0;
#X connect 15 1 14 0;
#X connect 15 2 0 0;
#X connect 15 3 13 0;
#X connect 15 4 0 0;
#X connect 15 5 12 0;
#X connect 15 6 0 0;
#X connect 15 7 11 0;
#X connect 15 10 1 0;
#X connect 16 0 17 0;
#X connect 16 0 9 0;
#X connect 16 0 8 0;
#X connect 16 0 15 0;
#X connect 17 0 6 0;
#X connect 18 0 5 0;
#X connect 19 0 5 0;
#X connect 20 0 5 0;
#X connect 21 0 5 0;
#X restore 398 153 pd Preset4;
#N canvas 324 349 889 393 Preset5 0;
#X msg 389 168 addcomma;
#X msg 421 120 set;
#X obj 421 340 outlet ModLine;
#X msg 686 98 set;
#X msg 626 176 addcomma;
#X obj 658 352 outlet AmpLine;
#X obj 21 171 outlet CarrierFreq;
#X obj 125 277 outlet harmonicity;
#X obj 514 72 t b b b b b b b b b b b b;
#X msg 125 238 1;
#X msg 405 143 add2 0 0;
#X msg 373 190 add2 5.25 51 0;
#X msg 342 214 add2 4.5 30 51;
#X msg 310 238 add2 0.375 246 51;
#X msg 278 264 add2 0 103 297;
#X obj 263 92 t b b b b b b b b b b b;
#X msg 642 152 add2 1 51 0;
#X msg 610 200 add2 0.734 41 51;
#X msg 578 224 add2 0.688 235 92;
#X msg 546 248 add2 0 73 327;
#X msg 21 133 1046.6;
#X obj 263 40 inlet Preset5;
#X connect 0 0 2 0;
#X connect 1 0 2 0;
#X connect 3 0 5 0;
#X connect 4 0 5 0;
#X connect 8 2 19 0;
#X connect 8 3 4 0;
#X connect 8 4 18 0;
#X connect 8 5 4 0;
#X connect 8 6 17 0;
#X connect 8 7 4 0;
#X connect 8 8 16 0;
#X connect 8 11 3 0;
#X connect 9 0 7 0;
#X connect 10 0 2 0;
#X connect 11 0 2 0;
#X connect 12 0 2 0;
#X connect 13 0 2 0;
#X connect 14 0 2 0;
#X connect 15 1 14 0;
#X connect 15 2 0 0;
#X connect 15 3 13 0;
#X connect 15 4 0 0;
#X connect 15 5 12 0;
#X connect 15 6 0 0;
#X connect 15 7 11 0;
#X connect 15 10 1 0;
#X connect 16 0 5 0;
#X connect 17 0 5 0;
#X connect 18 0 5 0;
#X connect 19 0 5 0;
#X connect 20 0 6 0;
#X connect 21 0 20 0;
#X connect 21 0 9 0;
#X connect 21 0 8 0;
#X connect 21 0 15 0;
#X restore 478 153 pd Preset5;
#N canvas 324 349 889 393 Preset6 0;
#X msg 389 168 addcomma;
#X msg 421 120 set;
#X obj 421 340 outlet ModLine;
#X msg 686 98 set;
#X msg 626 176 addcomma;
#X obj 658 352 outlet AmpLine;
#X obj 21 171 outlet CarrierFreq;
#X obj 125 277 outlet harmonicity;
#X obj 514 72 t b b b b b b b b b b b b;
#X msg 125 238 1;
#X obj 263 92 t b b b b b b b b b b b;
#X msg 21 133 1046.6;
#X msg 405 143 add2 1.875 0;
#X msg 373 190 add2 0.375 51 0;
#X msg 342 214 add2 0 149 51;
#X obj 263 40 inlet Preset6;
#X msg 610 200 add2 0.016 90 45;
#X msg 578 224 add2 0 65 135;
#X msg 642 152 add2 0.125 48 2;
#X msg 670 124 add2 1 2;
#X connect 0 0 2 0;
#X connect 1 0 2 0;
#X connect 3 0 5 0;
#X connect 4 0 5 0;
#X connect 8 4 17 0;
#X connect 8 5 4 0;
#X connect 8 6 16 0;
#X connect 8 7 4 0;
#X connect 8 8 18 0;
#X connect 8 9 4 0;
#X connect 8 10 19 0;
#X connect 8 11 3 0;
#X connect 9 0 7 0;
#X connect 10 5 14 0;
#X connect 10 6 0 0;
#X connect 10 7 13 0;
#X connect 10 8 0 0;
#X connect 10 9 12 0;
#X connect 10 10 1 0;
#X connect 11 0 6 0;
#X connect 12 0 2 0;
#X connect 13 0 2 0;
#X connect 14 0 2 0;
#X connect 15 0 11 0;
#X connect 15 0 9 0;
#X connect 15 0 8 0;
#X connect 15 0 10 0;
#X connect 16 0 5 0;
#X connect 17 0 5 0;
#X connect 18 0 5 0;
#X connect 19 0 5 0;
#X restore 559 153 pd Preset6;
#N canvas 324 349 889 393 Preset7 0;
#X msg 389 168 addcomma;
#X msg 421 120 set;
#X obj 421 340 outlet ModLine;
#X msg 686 98 set;
#X msg 626 176 addcomma;
#X obj 658 352 outlet AmpLine;
#X obj 21 171 outlet CarrierFreq;
#X obj 125 277 outlet harmonicity;
#X obj 514 72 t b b b b b b b b b b b b;
#X obj 263 92 t b b b b b b b b b b b;
#X obj 263 40 inlet Preset7;
#X msg 21 133 392;
#X msg 125 238 4;
#X msg 342 214 add2 0.75 1156 477;
#X msg 310 239 add2 0 367 1633;
#X msg 642 152 add2 0.781 789 495;
#X msg 610 200 add2 0.219 404 1284;
#X msg 578 224 add2 0 312 1688;
#X msg 670 124 add2 1 495;
#X msg 405 143 add2 0 5;
#X msg 373 190 add2 0.75 472 5;
#X connect 0 0 2 0;
#X connect 1 0 2 0;
#X connect 3 0 5 0;
#X connect 4 0 5 0;
#X connect 8 4 17 0;
#X connect 8 5 4 0;
#X connect 8 6 16 0;
#X connect 8 7 4 0;
#X connect 8 8 15 0;
#X connect 8 9 4 0;
#X connect 8 10 18 0;
#X connect 8 11 3 0;
#X connect 9 3 14 0;
#X connect 9 4 0 0;
#X connect 9 5 13 0;
#X connect 9 6 0 0;
#X connect 9 7 20 0;
#X connect 9 8 0 0;
#X connect 9 9 19 0;
#X connect 9 10 1 0;
#X connect 10 0 11 0;
#X connect 10 0 12 0;
#X connect 10 0 8 0;
#X connect 10 0 9 0;
#X connect 11 0 6 0;
#X connect 12 0 7 0;
#X connect 13 0 2 0;
#X connect 14 0 2 0;
#X connect 15 0 5 0;
#X connect 16 0 5 0;
#X connect 17 0 5 0;
#X connect 18 0 5 0;
#X connect 19 0 2 0;
#X connect 20 0 2 0;
#X restore 640 153 pd Preset7;
#N canvas 324 349 889 393 Preset8 0;
#X msg 409 172 addcomma;
#X msg 441 128 set;
#X obj 441 353 outlet ModLine;
#X msg 713 98 set;
#X msg 653 176 addcomma;
#X obj 713 354 outlet AmpLine;
#X obj 21 171 outlet CarrierFreq;
#X obj 48 286 outlet harmonicity;
#X obj 541 72 t b b b b b b b b b b b b;
#X obj 263 40 inlet Preset8;
#X msg 21 133 61.4;
#X msg 48 247 2.5;
#X msg 425 150 add2 8.25 5;
#X msg 393 194 add2 23.25 655 5;
#X msg 362 216 add2 7.875 386 660;
#X msg 341 238 add2 10.875 312 1046;
#X msg 319 260 add2 1.875 183 1358;
#X msg 298 282 add2 3 202 1541;
#X msg 281 304 add2 0 257 1743;
#X obj 241 104 t b b b b b b b b b b b b b b;
#X msg 697 124 add2 0 5;
#X msg 669 152 add2 1 32 5;
#X msg 637 200 add2 0.703 312 37;
#X msg 605 224 add2 0.672 1009 349;
#X msg 572 256 add2 0.078 403 1358;
#X msg 541 289 add2 0 239 1761;
#X connect 0 0 2 0;
#X connect 1 0 2 0;
#X connect 3 0 5 0;
#X connect 4 0 5 0;
#X connect 8 0 25 0;
#X connect 8 1 4 0;
#X connect 8 2 24 0;
#X connect 8 3 4 0;
#X connect 8 4 23 0;
#X connect 8 5 4 0;
#X connect 8 6 22 0;
#X connect 8 7 4 0;
#X connect 8 8 21 0;
#X connect 8 9 4 0;
#X connect 8 10 20 0;
#X connect 8 11 3 0;
#X connect 9 0 10 0;
#X connect 9 0 11 0;
#X connect 9 0 8 0;
#X connect 9 0 19 0;
#X connect 10 0 6 0;
#X connect 11 0 7 0;
#X connect 12 0 2 0;
#X connect 13 0 2 0;
#X connect 14 0 2 0;
#X connect 15 0 2 0;
#X connect 16 0 2 0;
#X connect 17 0 2 0;
#X connect 18 0 2 0;
#X connect 19 0 18 0;
#X connect 19 1 0 0;
#X connect 19 2 17 0;
#X connect 19 3 0 0;
#X connect 19 4 16 0;
#X connect 19 5 0 0;
#X connect 19 6 15 0;
#X connect 19 7 0 0;
#X connect 19 8 14 0;
#X connect 19 9 0 0;
#X connect 19 10 13 0;
#X connect 19 11 0 0;
#X connect 19 12 12 0;
#X connect 19 13 1 0;
#X connect 20 0 5 0;
#X connect 21 0 5 0;
#X connect 22 0 5 0;
#X connect 23 0 5 0;
#X connect 24 0 5 0;
#X connect 25 0 5 0;
#X restore 721 153 pd Preset8;
#X obj 159 65 select 0 1 2 3 4 5 6 7;
#X connect 0 0 3 0;
#X connect 0 1 4 0;
#X connect 0 2 1 0;
#X connect 0 3 2 0;
#X connect 5 0 13 0;
#X connect 6 0 3 0;
#X connect 6 1 4 0;
#X connect 6 2 1 0;
#X connect 6 3 2 0;
#X connect 7 0 3 0;
#X connect 7 1 4 0;
#X connect 7 2 1 0;
#X connect 7 3 2 0;
#X connect 8 0 3 0;
#X connect 8 1 4 0;
#X connect 8 2 1 0;
#X connect 8 3 2 0;
#X connect 9 0 3 0;
#X connect 9 1 4 0;
#X connect 9 2 1 0;
#X connect 9 3 2 0;
#X connect 10 0 3 0;
#X connect 10 1 4 0;
#X connect 10 2 1 0;
#X connect 10 3 2 0;
#X connect 11 0 3 0;
#X connect 11 1 4 0;
#X connect 11 2 1 0;
#X connect 11 3 2 0;
#X connect 12 0 3 0;
#X connect 12 1 4 0;
#X connect 12 2 1 0;
#X connect 12 3 2 0;
#X connect 13 0 0 0;
#X connect 13 1 6 0;
#X connect 13 2 7 0;
#X connect 13 3 8 0;
#X connect 13 4 9 0;
#X connect 13 5 10 0;
#X connect 13 6 11 0;
#X connect 13 7 12 0;
#X restore 253 141 pd presets;
#X msg 205 452 0.906 0 \, 0.125 1000 0 \, 0.015 2000 1000 \, 0 2000
3000;
#X msg 261 309 6 0 \, 0 5000 0;
#X obj 187 599 outlet~;
#X obj 233 24 loadbang;
#X obj 187 557 *~;
#X obj 106 28 inlet;
#X obj 106 52 unpack f f;
#X obj 284 226 bng 15 250 50 0 empty empty empty 17 7 0 10 #fcfcfc
#000000 #000000;
#X obj 106 76 mtof;
#X obj 262 534 * 0.00787402;
#X obj 102 116 hradio 15 1 0 8 empty empty empty 0 -8 0 10 #fcfcfc
#000000 #000000 0;
#X msg 233 48 0;
#X obj 348 26 inlet;
#X obj 348 50 clip 0 7;
#X text 448 151 Inlets:;
#X text 448 175 1 midi-input (note/velocity pairs);
#X text 448 194 2 number (0-7) \, preset;
#X text 448 226 Outlet:;
#X text 448 245 1 signal out;
#X connect 0 0 2 0;
#X connect 0 0 16 0;
#X connect 1 0 3 0;
#X connect 2 0 5 0;
#X connect 3 0 5 1;
#X connect 4 0 13 0;
#X connect 5 0 4 0;
#X connect 6 0 5 2;
#X connect 7 0 4 1;
#X connect 8 0 0 0;
#X connect 8 1 1 0;
#X connect 8 2 10 0;
#X connect 8 3 9 0;
#X connect 9 0 7 0;
#X connect 10 0 6 0;
#X connect 12 0 20 0;
#X connect 13 0 11 0;
#X connect 14 0 15 0;
#X connect 15 0 17 0;
#X connect 15 1 18 0;
#X connect 16 0 10 0;
#X connect 16 0 9 0;
#X connect 17 0 0 0;
#X connect 18 0 13 1;
#X connect 19 0 8 0;
#X connect 20 0 22 0;
#X connect 21 0 22 0;
#X connect 22 0 19 0;
#X coords 0 -1 1 1 127 70 1 100 100;
