#N canvas 259 128 568 460 10;
#N canvas 0 25 746 614 tr808-snare 0;
#X obj 247 14 inlet;
#X obj 174 410 vcf~ 3;
#X obj 205 109 noise~;
#X obj 196 164 *~;
#X floatatom 296 38 5 0 0 1 Decay - - 0;
#X obj 175 442 hip~ 50;
#X obj 318 271 +~ 100;
#X obj 317 244 *~ 8000;
#X obj 244 410 vcf~ 5;
#X obj 369 244 *~ 5000;
#X obj 373 272 +~ 200;
#X obj 296 15 inlet;
#X obj 175 463 outlet~;
#X obj 483 199 inlet;
#X obj 483 220 * 0.6;
#N canvas 381 209 450 300 vol_env 0;
#X obj 37 37 inlet;
#X obj 29 204 *~;
#X obj 29 225 outlet~;
#X obj 38 155 vline~;
#X msg 37 58 1 0.5 \, 0 \$1 0.5;
#X connect 0 0 4 0;
#X connect 1 0 2 0;
#X connect 3 0 1 0;
#X connect 3 0 1 1;
#X connect 4 0 3 0;
#X restore 132 82 pd vol_env;
#X obj 247 57 f 250;
#N canvas 381 209 450 300 cutoff_env 0;
#X obj 37 37 inlet;
#X obj 29 204 *~;
#X obj 29 225 outlet~;
#X obj 38 155 vline~;
#X msg 37 58 1 0.5 \, 0 \$1 0.5;
#X connect 0 0 4 0;
#X connect 1 0 2 0;
#X connect 3 0 1 0;
#X connect 3 0 1 1;
#X connect 4 0 3 0;
#X restore 400 172 pd cutoff_env;
#X obj 398 137 * 2;
#X text 520 204 Noise;
#N canvas 0 25 450 300 FM_osc 0;
#X obj 63 166 osc~ 150;
#X obj 63 136 +~;
#X obj 63 94 sig~ 150;
#X obj 129 73 osc~ 50;
#X obj 129 94 *~ 30;
#X obj 63 198 *~;
#X obj 137 182 *~;
#X obj 142 148 inlet~;
#X obj 63 219 outlet~;
#X connect 0 0 5 0;
#X connect 1 0 0 0;
#X connect 2 0 1 0;
#X connect 3 0 4 0;
#X connect 4 0 1 1;
#X connect 5 0 8 0;
#X connect 6 0 5 1;
#X connect 7 0 6 0;
#X connect 7 0 6 1;
#X restore 100 177 pd FM_osc;
#X obj 210 138 hip~ 100;
#X obj 247 35 t b;
#X connect 0 0 22 0;
#X connect 1 0 5 0;
#X connect 2 0 21 0;
#X connect 3 0 1 0;
#X connect 4 0 16 1;
#X connect 5 0 12 0;
#X connect 6 0 1 1;
#X connect 7 0 6 0;
#X connect 8 0 5 0;
#X connect 9 0 10 0;
#X connect 10 0 8 1;
#X connect 11 0 4 0;
#X connect 13 0 14 0;
#X connect 13 0 7 1;
#X connect 14 0 9 1;
#X connect 15 0 3 0;
#X connect 15 0 20 0;
#X connect 16 0 15 0;
#X connect 16 0 18 0;
#X connect 17 0 7 0;
#X connect 17 0 9 0;
#X connect 18 0 17 0;
#X connect 20 0 1 0;
#X connect 20 0 8 0;
#X connect 21 0 3 1;
#X connect 22 0 16 0;
#X restore 23 182 pd tr808-snare;
#X floatatom 104 136 5 10 2000 1 Decay - - 0;
#X floatatom 104 155 5 5 10000 1 Noise - - 0;
#X obj 339 7 loadbang;
#X obj 23 239 outlet~;
#X msg 252 131 200 300;
#X msg 305 131 500 5000;
#X msg 194 131 300 6000;
#X msg 364 131 800 3000;
#X obj 194 156 unpack f f;
#X obj 23 217 *~;
#X obj 104 118 hradio 15 1 0 4 empty empty empty 0 -8 0 10 #fcfcfc
#000000 #000000 0;
#X obj 80 201 * 0.00787402;
#X obj 23 34 unpack f f;
#X obj 194 103 select 0 1 2 3;
#X msg 339 28 2;
#X text 185 207 Inlets:;
#X text 185 223 1 midi-input (pitch/velocity pairs);
#X text 185 286 Outlet:;
#X text 185 301 1 signal out;
#X obj 23 7 inlet midiIn;
#X obj 102 7 inlet decay;
#X obj 102 28 clip 10 2000;
#X text 185 238 2 number (10-2000) \, decay;
#X obj 181 7 inlet noise;
#X obj 181 28 clip 5 10000;
#X text 185 252 3 number (5-10000) \, noise;
#X obj 259 7 inlet preset;
#X obj 259 28 clip 0 3;
#X text 185 266 4 number (0-3) \, preset;
#X obj 23 55 clip 0 127;
#X obj 80 77 clip 0 127;
#X connect 0 0 10 0;
#X connect 1 0 0 1;
#X connect 2 0 0 2;
#X connect 3 0 15 0;
#X connect 5 0 9 0;
#X connect 6 0 9 0;
#X connect 7 0 9 0;
#X connect 8 0 9 0;
#X connect 9 0 1 0;
#X connect 9 1 2 0;
#X connect 10 0 4 0;
#X connect 11 0 14 0;
#X connect 12 0 10 1;
#X connect 13 0 30 0;
#X connect 13 1 31 0;
#X connect 14 0 7 0;
#X connect 14 1 5 0;
#X connect 14 2 6 0;
#X connect 14 3 8 0;
#X connect 15 0 28 0;
#X connect 20 0 13 0;
#X connect 21 0 22 0;
#X connect 22 0 1 0;
#X connect 24 0 25 0;
#X connect 25 0 2 0;
#X connect 27 0 28 0;
#X connect 28 0 11 0;
#X connect 30 0 0 0;
#X connect 31 0 12 0;
#X coords 0 -1 1 1 85 74 1 100 100;
