#N canvas 562 46 871 544 10;
#N canvas 806 53 634 693 kick_synth 0;
#X floatatom 267 137 5 0 0 0 - - - 0;
#X text 270 197 fDec = 250;
#X floatatom 292 356 5 0 0 0 - - - 0;
#X text 327 360 pScale = 1;
#X obj 233 401 *~ 1;
#X obj 233 422 phasor~;
#X obj 233 442 expr~ if ($v1 > 0.5 \, 0 \, 1);
#X obj 265 471 noise~;
#X floatatom 450 371 5 0 0 0 - - - 0;
#X obj 339 413 *~ 1.5;
#X obj 236 514 vcf~ 0.5;
#X obj 199 625 *~;
#X obj 357 535 osc~;
#X floatatom 488 471 5 0 0 0 - - - 0;
#X obj 356 504 *~ 1;
#X obj 221 160 f 250;
#X obj 210 46 inlet;
#X text 204 25 trig;
#X obj 265 115 inlet;
#X text 265 93 decay time;
#X obj 292 325 inlet;
#X text 290 305 pitchScale;
#X text 432 322 filterScale;
#X obj 432 336 inlet;
#X text 453 448 sineVol;
#X obj 199 646 outlet~;
#X obj 500 447 inlet;
#N canvas 0 23 450 300 vol_env 0;
#X obj 125 167 vline~;
#X obj 125 188 *~;
#X msg 115 115 0.5 \, 1 5 \, 0.5 60 5 \, 0 \$1 65;
#X obj 108 69 inlet;
#X obj 125 209 outlet~;
#X connect 0 0 1 0;
#X connect 0 0 1 1;
#X connect 1 0 4 0;
#X connect 2 0 0 0;
#X connect 3 0 2 0;
#X restore 51 502 pd vol_env;
#N canvas 0 23 450 300 pitch_env 0;
#X obj 37 37 inlet;
#X obj 33 107 vline~;
#X obj 36 222 mtof~;
#X msg 36 73 1 \, 0.5 5 \, 0 \$1 5;
#X obj 33 155 *~ 80;
#X obj 33 176 +~ 29;
#X obj 33 128 *~;
#X obj 36 243 outlet~;
#X connect 0 0 3 0;
#X connect 1 0 6 0;
#X connect 1 0 6 1;
#X connect 2 0 7 0;
#X connect 3 0 1 0;
#X connect 4 0 5 0;
#X connect 5 0 2 0;
#X connect 6 0 4 0;
#X restore 221 247 pd pitch_env;
#X obj 210 67 t b;
#X connect 0 0 15 1;
#X connect 2 0 4 1;
#X connect 4 0 5 0;
#X connect 5 0 6 0;
#X connect 6 0 10 0;
#X connect 7 0 10 0;
#X connect 8 0 9 1;
#X connect 9 0 10 1;
#X connect 10 1 11 1;
#X connect 11 0 25 0;
#X connect 12 0 11 1;
#X connect 13 0 14 1;
#X connect 14 0 12 0;
#X connect 15 0 27 0;
#X connect 15 0 28 0;
#X connect 16 0 29 0;
#X connect 18 0 0 0;
#X connect 20 0 2 0;
#X connect 23 0 8 0;
#X connect 26 0 13 0;
#X connect 27 0 11 0;
#X connect 28 0 4 0;
#X connect 28 0 9 0;
#X connect 28 0 14 0;
#X connect 29 0 15 0;
#X restore 41 346 pd kick_synth;
#X f 28;
#X floatatom 104 136 5 1 2000 1 decay - - 0;
#X floatatom 104 155 5 0 20 1 pitchScale - - 0;
#X floatatom 104 193 5 0 50 1 sineScale - - 0;
#X floatatom 104 174 5 0 20 1 filterScale - - 0;
#X obj 549 26 loadbang;
#X obj 225 233 unpack f f f f;
#X obj 41 50 inlet;
#X obj 41 437 outlet~;
#X msg 225 128 250 1 1.5 1;
#X msg 280 188 450 0.25 0.5 1, f 17;
#X msg 243 148 50 2.25 1.5 0.8;
#X msg 262 168 150 0.5 1.5 1;
#X msg 299 208 1500 0.5 0.5 0.5;
#X obj 41 391 *~;
#X obj 104 117 hradio 15 1 0 5 empty empty empty 0 -8 0 10 #fcfcfc
#000000 #000000 0;
#X obj 225 105 select 0 1 2 3 4;
#X msg 549 47 3;
#X obj 56 367 * 0.00787402;
#X obj 41 71 unpack f f;
#X obj 469 26 inlet preset;
#X obj 469 47 clip 0 4;
#X obj 87 26 inlet decay;
#X obj 87 47 clip 1 2000;
#X obj 160 47 clip 0 20;
#X obj 160 26 inlet pitchScale;
#X obj 263 47 clip 0 20;
#X obj 263 26 inlet filterScale;
#X obj 372 26 inlet sineScale;
#X obj 372 47 clip 0 50;
#X text 344 245 Inlets:;
#X text 344 261 1 midi-input (pitch/velocity pairs);
#X text 344 276 2 number (1-2000) \, decay;
#X text 344 290 3 number (0-20) \, pitchScale;
#X text 344 304 4 number (0-20) \, filterScale;
#X text 344 318 5 number (0-50) \, sineScale;
#X text 344 332 6 number (0-4) \, preset;
#X text 344 360 Outlet:;
#X text 344 375 1 signal out;
#X connect 0 0 14 0;
#X connect 1 0 0 1;
#X connect 2 0 0 2;
#X connect 3 0 0 4;
#X connect 4 0 0 3;
#X connect 5 0 17 0;
#X connect 6 0 1 0;
#X connect 6 1 2 0;
#X connect 6 2 4 0;
#X connect 6 3 3 0;
#X connect 7 0 19 0;
#X connect 9 0 6 0;
#X connect 10 0 6 0;
#X connect 11 0 6 0;
#X connect 12 0 6 0;
#X connect 13 0 6 0;
#X connect 14 0 8 0;
#X connect 15 0 16 0;
#X connect 16 0 9 0;
#X connect 16 1 11 0;
#X connect 16 2 12 0;
#X connect 16 3 10 0;
#X connect 16 4 13 0;
#X connect 17 0 21 0;
#X connect 18 0 14 1;
#X connect 19 0 0 0;
#X connect 19 1 18 0;
#X connect 20 0 21 0;
#X connect 21 0 15 0;
#X connect 22 0 23 0;
#X connect 23 0 1 0;
#X connect 24 0 2 0;
#X connect 25 0 24 0;
#X connect 26 0 4 0;
#X connect 27 0 26 0;
#X connect 28 0 29 0;
#X connect 29 0 3 0;
#X coords 0 -1 1 1 105 112 1 100 100;
