#N canvas 327 70 862 588 12;
#X obj 97 330 unpack f f f f f f f f f;
#N canvas 0 25 782 408 sformant 0;
#X obj 64 297 *~;
#X obj 255 253 + 100;
#X obj 255 278 dbtorms;
#X obj 64 327 outlet~;
#X obj 255 228 line;
#X obj 87 144 *;
#X obj 285 125 t b f;
#X obj 165 221 pack f 100;
#X obj 255 203 pack f 100;
#X obj 87 221 pack f 100;
#X obj 87 244 line;
#X obj 165 246 line;
#X obj 64 270 bp~ 0 0;
#X obj 285 98 inlet FormantBase;
#X obj 255 61 inlet Amplitude;
#X obj 87 115 inlet CenterFreq;
#X obj 165 93 inlet Q;
#X obj 322 151 inlet TransitionTime;
#X obj 64 69 inlet~ SignalIn;
#X connect 0 0 3 0;
#X connect 1 0 2 0;
#X connect 2 0 0 1;
#X connect 4 0 1 0;
#X connect 5 0 9 0;
#X connect 6 0 5 0;
#X connect 6 1 5 1;
#X connect 7 0 11 0;
#X connect 8 0 4 0;
#X connect 9 0 10 0;
#X connect 10 0 12 1;
#X connect 11 0 12 2;
#X connect 12 0 0 0;
#X connect 13 0 6 0;
#X connect 14 0 8 0;
#X connect 15 0 5 0;
#X connect 16 0 7 0;
#X connect 17 0 9 1;
#X connect 17 0 7 1;
#X connect 17 0 8 1;
#X connect 18 0 12 0;
#X restore 144 441 pd sformant;
#X obj 291 278 * 0.01;
#X obj 291 302 float;
#X obj 144 573 outlet~;
#N canvas 0 25 782 408 sformant 0;
#X obj 64 297 *~;
#X obj 255 253 + 100;
#X obj 255 278 dbtorms;
#X obj 64 327 outlet~;
#X obj 255 228 line;
#X obj 87 144 *;
#X obj 285 125 t b f;
#X obj 165 221 pack f 100;
#X obj 255 203 pack f 100;
#X obj 87 221 pack f 100;
#X obj 87 244 line;
#X obj 165 246 line;
#X obj 64 270 bp~ 0 0;
#X obj 285 98 inlet FormantBase;
#X obj 255 61 inlet Amplitude;
#X obj 87 115 inlet CenterFreq;
#X obj 165 93 inlet Q;
#X obj 322 151 inlet TransitionTime;
#X obj 64 69 inlet~ SignalIn;
#X connect 0 0 3 0;
#X connect 1 0 2 0;
#X connect 2 0 0 1;
#X connect 4 0 1 0;
#X connect 5 0 9 0;
#X connect 6 0 5 0;
#X connect 6 1 5 1;
#X connect 7 0 11 0;
#X connect 8 0 4 0;
#X connect 9 0 10 0;
#X connect 10 0 12 1;
#X connect 11 0 12 2;
#X connect 12 0 0 0;
#X connect 13 0 6 0;
#X connect 14 0 8 0;
#X connect 15 0 5 0;
#X connect 16 0 7 0;
#X connect 17 0 9 1;
#X connect 17 0 7 1;
#X connect 17 0 8 1;
#X connect 18 0 12 0;
#X restore 232 509 pd sformant;
#N canvas 0 25 782 408 sformant 0;
#X obj 64 297 *~;
#X obj 255 253 + 100;
#X obj 255 278 dbtorms;
#X obj 64 327 outlet~;
#X obj 255 228 line;
#X obj 87 144 *;
#X obj 285 125 t b f;
#X obj 165 221 pack f 100;
#X obj 255 203 pack f 100;
#X obj 87 221 pack f 100;
#X obj 87 244 line;
#X obj 165 246 line;
#X obj 64 270 bp~ 0 0;
#X obj 285 98 inlet FormantBase;
#X obj 255 61 inlet Amplitude;
#X obj 87 115 inlet CenterFreq;
#X obj 165 93 inlet Q;
#X obj 322 151 inlet TransitionTime;
#X obj 64 69 inlet~ SignalIn;
#X connect 0 0 3 0;
#X connect 1 0 2 0;
#X connect 2 0 0 1;
#X connect 4 0 1 0;
#X connect 5 0 9 0;
#X connect 6 0 5 0;
#X connect 6 1 5 1;
#X connect 7 0 11 0;
#X connect 8 0 4 0;
#X connect 9 0 10 0;
#X connect 10 0 12 1;
#X connect 11 0 12 2;
#X connect 12 0 0 0;
#X connect 13 0 6 0;
#X connect 14 0 8 0;
#X connect 15 0 5 0;
#X connect 16 0 7 0;
#X connect 17 0 9 1;
#X connect 17 0 7 1;
#X connect 17 0 8 1;
#X connect 18 0 12 0;
#X restore 10 482 pd sformant;
#X obj 10 383 inlet~ SignalIn;
#N canvas 1004 65 346 193 formantData 0;
#N canvas 110 191 945 633 interpolate 0;
#X obj 23 128 unpack f f f f f f f f f;
#X obj 140 33 inlet;
#N canvas 445 77 574 498 Formant 0;
#X msg 162 159 844 30 6 1210 80 6 2700 100 -4;
#X msg 162 189 630 30 6 1800 80 5 2550 100 0;
#X msg 162 219 430 30 5 1300 80 2 2550 100 0;
#X msg 162 249 340 30 9 2130 80 2 2650 100 0;
#X msg 162 279 535 30 7 875 80 3 2720 100 -4;
#X msg 162 309 525 30 8 1350 80 3 2220 100 -4;
#X msg 162 339 346 30 4 960 80 4 2400 100 -2;
#X msg 162 369 350 30 4 1705 80 4 2240 100 -2;
#X text 124 158 1- a;
#X text 124 189 2- e;
#X text 124 219 3- I;
#X text 124 249 4- i;
#X text 124 279 5- o;
#X text 124 339 7- u;
#X obj 162 71 int;
#X text 124 368 8- y;
#X text 124 310 6- ø;
#X obj 162 409 outlet;
#X obj 162 41 inlet;
#X obj 162 112 select 0 1 2 3 4 5 6 7;
#X connect 0 0 17 0;
#X connect 1 0 17 0;
#X connect 2 0 17 0;
#X connect 3 0 17 0;
#X connect 4 0 17 0;
#X connect 5 0 17 0;
#X connect 6 0 17 0;
#X connect 7 0 17 0;
#X connect 14 0 19 0;
#X connect 18 0 14 0;
#X connect 19 0 0 0;
#X connect 19 1 1 0;
#X connect 19 2 2 0;
#X connect 19 3 3 0;
#X connect 19 4 4 0;
#X connect 19 5 5 0;
#X connect 19 6 6 0;
#X connect 19 7 7 0;
#X restore 23 101 pd Formant;
#N canvas 0 25 574 498 Formant 0;
#X msg 162 159 844 30 6 1210 80 6 2700 100 -4;
#X msg 162 189 630 30 6 1800 80 5 2550 100 0;
#X msg 162 219 430 30 5 1300 80 2 2550 100 0;
#X msg 162 249 340 30 9 2130 80 2 2650 100 0;
#X msg 162 279 535 30 7 875 80 3 2720 100 -4;
#X msg 162 309 525 30 8 1350 80 3 2220 100 -4;
#X msg 162 339 346 30 4 960 80 4 2400 100 -2;
#X msg 162 369 350 30 4 1705 80 4 2240 100 -2;
#X text 124 158 1- a;
#X text 124 189 2- e;
#X text 124 219 3- I;
#X text 124 249 4- i;
#X text 124 279 5- o;
#X text 124 339 7- u;
#X obj 162 71 int;
#X text 124 368 8- y;
#X text 124 310 6- ø;
#X obj 162 409 outlet;
#X obj 162 41 inlet;
#X obj 162 112 select 0 1 2 3 4 5 6 7;
#X connect 0 0 17 0;
#X connect 1 0 17 0;
#X connect 2 0 17 0;
#X connect 3 0 17 0;
#X connect 4 0 17 0;
#X connect 5 0 17 0;
#X connect 6 0 17 0;
#X connect 7 0 17 0;
#X connect 14 0 19 0;
#X connect 18 0 14 0;
#X connect 19 0 0 0;
#X connect 19 1 1 0;
#X connect 19 2 2 0;
#X connect 19 3 3 0;
#X connect 19 4 4 0;
#X connect 19 5 5 0;
#X connect 19 6 6 0;
#X connect 19 7 7 0;
#X restore 210 101 pd Formant;
#X obj 140 54 unpack f f f;
#X obj 210 128 unpack f f f f f f f f f;
#X obj 23 163 expr (($f2-$f1)*$f3)+$f1;
#X obj 40 184 expr (($f2-$f1)*$f3)+$f1;
#X obj 56 207 expr (($f2-$f1)*$f3)+$f1;
#X obj 73 228 expr (($f2-$f1)*$f3)+$f1;
#X obj 88 251 expr (($f2-$f1)*$f3)+$f1;
#X obj 105 272 expr (($f2-$f1)*$f3)+$f1;
#X obj 121 295 expr (($f2-$f1)*$f3)+$f1;
#X obj 138 316 expr (($f2-$f1)*$f3)+$f1;
#X obj 156 339 expr (($f2-$f1)*$f3)+$f1;
#X obj 23 412 pack f f f f f f f f f;
#X obj 23 433 outlet;
#X connect 0 0 6 0;
#X connect 0 1 7 0;
#X connect 0 2 8 0;
#X connect 0 3 9 0;
#X connect 0 4 10 0;
#X connect 0 5 11 0;
#X connect 0 6 12 0;
#X connect 0 7 13 0;
#X connect 0 8 14 0;
#X connect 1 0 4 0;
#X connect 2 0 0 0;
#X connect 3 0 5 0;
#X connect 4 0 2 0;
#X connect 4 1 3 0;
#X connect 4 2 6 2;
#X connect 4 2 7 2;
#X connect 4 2 8 2;
#X connect 4 2 9 2;
#X connect 4 2 10 2;
#X connect 4 2 11 2;
#X connect 4 2 12 2;
#X connect 4 2 13 2;
#X connect 4 2 14 2;
#X connect 5 0 6 1;
#X connect 5 1 7 1;
#X connect 5 2 8 1;
#X connect 5 3 9 1;
#X connect 5 4 10 1;
#X connect 5 5 11 1;
#X connect 5 6 12 1;
#X connect 5 7 13 1;
#X connect 5 8 14 1;
#X connect 6 0 15 0;
#X connect 7 0 15 1;
#X connect 8 0 15 2;
#X connect 9 0 15 3;
#X connect 10 0 15 4;
#X connect 11 0 15 5;
#X connect 12 0 15 6;
#X connect 13 0 15 7;
#X connect 14 0 15 8;
#X connect 15 0 16 0;
#X restore 99 127 pd interpolate;
#X obj 99 103 pack f f f;
#X obj 226 75 * 0.00787402;
#X obj 99 148 outlet;
#X obj 99 66 t b f;
#X obj 194 30 t b f;
#X obj 3 4 inlet vowel1;
#X obj 99 4 inlet vowel2;
#X obj 194 4 inlet Interpolation;
#X connect 0 0 3 0;
#X connect 1 0 0 0;
#X connect 2 0 1 2;
#X connect 4 0 1 0;
#X connect 4 1 1 1;
#X connect 5 0 1 0;
#X connect 5 1 2 0;
#X connect 6 0 1 0;
#X connect 7 0 4 0;
#X connect 8 0 5 0;
#X restore 97 296 pd formantData;
#N canvas 890 100 341 470 setSymbol 0;
#X obj 83 331 outlet;
#X obj 12 13 inlet;
#X obj 12 41 select 0 1 2 3 4 5 6 7;
#X msg 143 107 symbol vocal1:A;
#X msg 143 132 symbol vocal1:E;
#X msg 144 158 symbol vocal1:Ø;
#X msg 144 183 symbol vocal1:I;
#X msg 145 208 symbol vocal1:O;
#X msg 145 233 symbol vocal1:Øh;
#X msg 146 259 symbol vocal1:U;
#X msg 146 284 symbol vocal1:Y;
#X connect 1 0 2 0;
#X connect 2 0 3 0;
#X connect 2 1 4 0;
#X connect 2 2 5 0;
#X connect 2 3 6 0;
#X connect 2 4 7 0;
#X connect 2 5 8 0;
#X connect 2 6 9 0;
#X connect 2 7 10 0;
#X connect 3 0 0 0;
#X connect 4 0 0 0;
#X connect 5 0 0 0;
#X connect 6 0 0 0;
#X connect 7 0 0 0;
#X connect 8 0 0 0;
#X connect 9 0 0 0;
#X connect 10 0 0 0;
#X restore 347 123 pd setSymbol;
#X obj 103 131 cnv 15 96 14 empty \$0-label1 vocal1:A 2 8 0 9 #e0e0e0
#404040 0;
#X msg 347 148 label \$1;
#X obj 103 117 hradio 12 1 0 8 empty empty empty 0 -8 0 10 #fcfcfc
#000000 #000000 0;
#X obj 347 173 send \$0-label1;
#N canvas 890 100 341 470 setSymbol 0;
#X obj 83 331 outlet;
#X obj 12 13 inlet;
#X obj 12 41 select 0 1 2 3 4 5 6 7;
#X msg 143 107 symbol vocal2:A;
#X msg 143 132 symbol vocal2:E;
#X msg 144 158 symbol vocal2:Ø;
#X msg 144 183 symbol vocal2:I;
#X msg 145 208 symbol vocal2:O;
#X msg 145 233 symbol vocal2:Øh;
#X msg 146 259 symbol vocal2:U;
#X msg 146 284 symbol vocal2:Y;
#X connect 1 0 2 0;
#X connect 2 0 3 0;
#X connect 2 1 4 0;
#X connect 2 2 5 0;
#X connect 2 3 6 0;
#X connect 2 4 7 0;
#X connect 2 5 8 0;
#X connect 2 6 9 0;
#X connect 2 7 10 0;
#X connect 3 0 0 0;
#X connect 4 0 0 0;
#X connect 5 0 0 0;
#X connect 6 0 0 0;
#X connect 7 0 0 0;
#X connect 8 0 0 0;
#X connect 9 0 0 0;
#X connect 10 0 0 0;
#X restore 347 204 pd setSymbol;
#X obj 103 163 cnv 15 96 14 empty \$0-label2 vocal2:A 2 8 0 9 #e0e0e0
#404040 0;
#X msg 347 229 label \$1;
#X obj 103 149 hradio 12 1 0 8 empty empty empty 0 -8 0 10 #fcfcfc
#000000 #000000 0;
#X obj 347 254 send \$0-label2;
#X floatatom 103 194 5 0 127 2 Interp.\ (0-127): - - 8;
#X floatatom 103 224 5 0 100 2 formantBase\ (0-100): - - 8;
#X msg 135 66 85;
#X msg 103 66 0;
#X obj 103 36 loadbang;
#X floatatom 306 129 5 0 0 0 transitionTime: - - 8;
#X obj 528 35 inlet interpolation;
#X obj 673 35 inlet formantBase;
#X obj 334 35 inlet vocal1;
#X obj 431 35 inlet vocal2;
#X obj 528 59 clip 0 127;
#X obj 673 59 clip 0 100;
#X msg 167 66 40;
#X obj 334 59 clip 0 7;
#X obj 431 59 clip 0 7;
#X text 361 359 Inlets:;
#X text 361 476 Outlet:;
#X text 361 493 1 signal out;
#X text 361 393 2 number (0-7) \, vocal formant;
#X text 361 410 3 number (0-7) \, vocal formant;
#X text 361 427 4 number (0-127) \, interpolation between vocal 1 &
2;
#X text 361 444 5 number (0-100) \, formantBase;
#X text 361 376 1 signal in \, to be filtered;
#X text 362 306 Description: formantfilters simulating vowel sounds
\, works with incoming signal to be filtered - works best with Pulsetrain-signal
;
#X connect 0 0 6 1;
#X connect 0 1 6 2;
#X connect 0 2 6 3;
#X connect 0 3 1 1;
#X connect 0 4 1 2;
#X connect 0 5 1 3;
#X connect 0 6 5 1;
#X connect 0 7 5 2;
#X connect 0 8 5 3;
#X connect 1 0 4 0;
#X connect 2 0 3 0;
#X connect 3 0 1 4;
#X connect 3 0 5 4;
#X connect 3 0 6 4;
#X connect 5 0 4 0;
#X connect 6 0 4 0;
#X connect 7 0 1 0;
#X connect 7 0 5 0;
#X connect 7 0 6 0;
#X connect 8 0 0 0;
#X connect 9 0 11 0;
#X connect 11 0 13 0;
#X connect 12 0 9 0;
#X connect 12 0 8 0;
#X connect 14 0 16 0;
#X connect 16 0 18 0;
#X connect 17 0 14 0;
#X connect 17 0 8 1;
#X connect 19 0 8 2;
#X connect 20 0 2 0;
#X connect 21 0 20 0;
#X connect 22 0 19 0;
#X connect 22 0 12 0;
#X connect 22 0 17 0;
#X connect 23 0 22 0;
#X connect 23 0 21 0;
#X connect 23 0 31 0;
#X connect 24 0 6 5;
#X connect 24 0 1 5;
#X connect 24 0 5 5;
#X connect 25 0 29 0;
#X connect 26 0 30 0;
#X connect 27 0 32 0;
#X connect 28 0 33 0;
#X connect 29 0 19 0;
#X connect 30 0 20 0;
#X connect 31 0 24 0;
#X connect 32 0 12 0;
#X connect 33 0 17 0;
#X coords 0 -1 1 1 102 140 1 100 100;
