#N canvas 483 82 581 385 10;
#X floatatom 201 175 5 0 200 0 filterScale: - - 0;
#X floatatom 201 137 5 1 40 0 filterOffset: - - 0;
#X floatatom 201 194 5 50 1000 0 decayTime: - - 0;
#X floatatom 201 156 5 0 1000 0 filterTime: - - 0;
#X floatatom 201 118 5 1 500 0 filterResonance: - - 0;
#N canvas 41 330 881 471 filterSynth 0;
#X obj 63 114 mtof;
#X obj 114 385 *~;
#N canvas 362 287 1078 523 env 0;
#X obj 58 115 line~;
#X obj 49 41 bng 15 250 50 0 empty empty empty 17 7 0 10 #fcfcfc #000000
#000000;
#X obj 88 78 pack 0 500;
#X floatatom 185 46 5 0 0 0 - - - 0;
#X obj 59 137 *~;
#X text 91 137 square the output;
#X obj 59 156 *~;
#X text 221 45 decay time;
#X msg 42 86 1 3;
#X obj 44 7 inlet;
#X obj 57 191 outlet~;
#X text 111 191 note the ~ !!;
#X obj 189 8 inlet;
#X obj 88 60 del 10;
#X connect 0 0 4 0;
#X connect 0 0 4 1;
#X connect 1 0 8 0;
#X connect 1 0 13 0;
#X connect 2 0 0 0;
#X connect 3 0 2 1;
#X connect 4 0 6 0;
#X connect 4 0 6 1;
#X connect 6 0 10 0;
#X connect 8 0 0 0;
#X connect 9 0 1 0;
#X connect 12 0 3 0;
#X connect 13 0 2 0;
#X restore 132 354 pd env;
#X obj 63 289 phasor~;
#N canvas 512 287 1078 523 env 0;
#X obj 58 115 line~;
#X obj 49 41 bng 15 250 50 0 empty empty empty 17 7 0 10 #fcfcfc #000000
#000000;
#X obj 88 78 pack 0 500;
#X floatatom 185 46 5 0 0 0 - - - 0;
#X obj 59 137 *~;
#X text 91 137 square the output;
#X text 221 45 decay time;
#X obj 44 7 inlet;
#X obj 57 191 outlet~;
#X text 111 191 note the ~ !!;
#X obj 189 8 inlet;
#X msg 42 86 1;
#X obj 87 54 del 10;
#X connect 0 0 4 0;
#X connect 0 0 4 1;
#X connect 1 0 11 0;
#X connect 1 0 12 0;
#X connect 2 0 0 0;
#X connect 3 0 2 1;
#X connect 4 0 8 0;
#X connect 7 0 1 0;
#X connect 10 0 3 0;
#X connect 11 0 0 0;
#X connect 12 0 2 0;
#X restore 195 179 pd env;
#X obj 195 276 +~ 50;
#X obj 195 250 *~ 4000;
#X floatatom 234 230 5 0 0 0 - - - 0;
#X obj 63 322 vcf~ 2, f 9;
#X obj 63 79 t f b b, f 12;
#X obj 234 205 * 4;
#X obj 114 443 outlet~;
#X obj 153 208 * 2;
#X obj 7 289 phasor~;
#X obj 7 246 * 1.002;
#X obj 249 179 inlet filterScale;
#X obj 228 140 inlet filterTime;
#X obj 168 55 inlet filterOffset;
#X obj 114 31 inlet filterResonance;
#X obj 275 338 inlet decayTime;
#X obj 114 417 *~;
#X obj 189 386 * 0.00787402;
#X obj 63 55 unpack f f;
#X obj 63 7 inlet midiIn;
#X connect 0 0 3 0;
#X connect 0 0 10 0;
#X connect 0 0 12 0;
#X connect 0 0 14 0;
#X connect 1 0 20 0;
#X connect 2 0 1 1;
#X connect 3 0 8 0;
#X connect 4 0 6 0;
#X connect 5 0 8 1;
#X connect 6 0 5 0;
#X connect 7 0 6 1;
#X connect 8 1 1 0;
#X connect 9 0 0 0;
#X connect 9 1 4 0;
#X connect 9 2 2 0;
#X connect 10 0 7 0;
#X connect 12 0 5 1;
#X connect 13 0 8 0;
#X connect 14 0 13 0;
#X connect 15 0 10 1;
#X connect 16 0 4 1;
#X connect 17 0 12 1;
#X connect 18 0 8 2;
#X connect 19 0 2 1;
#X connect 20 0 11 0;
#X connect 21 0 20 1;
#X connect 22 0 9 0;
#X connect 22 1 21 0;
#X connect 23 0 22 0;
#X restore 60 242 pd filterSynth;
#X obj 60 321 outlet~;
#X obj 258 57 inlet filterScale;
#X obj 227 10 inlet filterTime;
#X obj 142 57 inlet filterOffset;
#X obj 92 9 inlet filterResonance;
#X obj 349 10 inlet decayTime;
#X msg 273 124 30 14 27 16 438;
#X obj 273 103 loadbang;
#X obj 273 145 unpack f f f f f;
#X obj 60 57 inlet midiIn;
#X text 278 212 Inlets:;
#X text 278 227 1 midi-input (note/velocity-pairs);
#X obj 92 30 clip 1 500;
#X text 278 242 2 number (1-500) \, set filter resonance;
#X text 278 257 3 number (1-40) \, set filter offset;
#X obj 142 78 clip 1 40;
#X obj 258 78 clip 0 200;
#X obj 227 31 clip 0 1000;
#X text 278 272 4 number (0-1000) \, set filter time;
#X text 278 329 Outlet:;
#X text 278 344 1 Synth output;
#X obj 349 36 clip 50 1000;
#X text 278 303 6 number (50-1000) \, set decay time;
#X text 278 288 5 number (0-1000) \, set filter scale;
#X connect 0 0 5 4;
#X connect 1 0 5 2;
#X connect 2 0 5 5;
#X connect 3 0 5 3;
#X connect 4 0 5 1;
#X connect 5 0 6 0;
#X connect 7 0 22 0;
#X connect 8 0 23 0;
#X connect 9 0 21 0;
#X connect 10 0 18 0;
#X connect 11 0 27 0;
#X connect 12 0 14 0;
#X connect 13 0 12 0;
#X connect 14 0 4 0;
#X connect 14 1 1 0;
#X connect 14 2 3 0;
#X connect 14 3 0 0;
#X connect 14 4 2 0;
#X connect 15 0 5 0;
#X connect 18 0 4 0;
#X connect 21 0 1 0;
#X connect 22 0 0 0;
#X connect 23 0 3 0;
#X connect 27 0 2 0;
#X coords 0 -1 1 1 136 112 1 100 100;
