#N canvas 247 25 795 634 12;
#X obj 347 390 phasor~;
#X obj 347 421 expr~ $v1 > $v2;
#X obj 347 507 outlet~;
#X obj 347 339 line~;
#X obj 444 386 expr 1-($f1/100);
#X obj 347 315 pack f 40;
#X obj 347 365 +~;
#X obj 524 346 *~ 10;
#X obj 524 268 phasor~;
#X obj 524 294 *~ 2051;
#X obj 492 241 select 0;
#X obj 492 215 t f f;
#X msg 492 265 0;
#X obj 347 290 mtof;
#X obj 347 479 *~ 2;
#X obj 347 455 -~ 0.5;
#X floatatom 196 117 5 0 127 0 voiceFreq: - - 0;
#X floatatom 196 137 5 0 1000 0 portamento: - - 0;
#X floatatom 196 157 5 1 99 0 pulseWidth: - - 0;
#X floatatom 196 177 5 0 20 0 vibratoFreq: - - 0;
#X floatatom 196 197 5 0 20 0 vibratoDepth: - - 0;
#X obj 196 217 tgl 15 0 empty empty voiceOnOff: -66 7 0 10 #fcfcfc
#000000 #000000 0 1;
#X obj 196 251 switch~;
#X msg 196 74 0;
#X msg 164 74 21;
#X msg 132 74 100;
#X msg 99 74 50;
#X obj 99 49 loadbang;
#N canvas 0 22 450 278 (subpatch) 0;
#X array \$0-array-sine 2051 float 2;
#X coords 0 1 2051 -1 100 70 2 0 0;
#X restore 604 524 graph;
#X obj 585 436 t s s;
#X obj 585 414 symbol \$0-array-sine;
#X msg 617 463 \; \$1 sinesum 2051 1;
#X obj 585 374 loadbang;
#X obj 524 319 tabread4~ \$0-array-sine;
#X obj 197 3 inlet;
#X obj 240 3 inlet;
#X obj 283 3 inlet;
#X obj 326 3 inlet;
#X obj 368 3 inlet;
#X obj 410 3 inlet;
#X obj 197 31 clip 0 127;
#X obj 240 59 clip 0 1000;
#X obj 283 85 clip 1 99;
#X obj 326 109 clip 0 20;
#X obj 368 133 clip 0 20;
#X obj 410 156 clip 0 1;
#X text 504 21 Inlets:;
#X text 504 53 2 number (0-1000) \, portamento;
#X text 504 38 1 number (0-127) \, midi-pitch in;
#X text 504 69 3 number (1-99) \, pulseWidth;
#X text 504 85 4 number (0-20) \, vibratoFreq;
#X text 504 101 5 number (0-20) \, vibratoDepth;
#X text 504 118 6 number (0-1) \, voice on/off;
#X text 504 148 Outlet:;
#X text 504 165 1 signal \, pulsetrain out;
#X connect 0 0 1 0;
#X connect 1 0 15 0;
#X connect 3 0 6 0;
#X connect 4 0 1 1;
#X connect 5 0 3 0;
#X connect 6 0 0 0;
#X connect 7 0 6 1;
#X connect 8 0 9 0;
#X connect 9 0 33 0;
#X connect 10 0 12 0;
#X connect 11 0 10 0;
#X connect 11 1 8 0;
#X connect 12 0 8 1;
#X connect 13 0 5 0;
#X connect 14 0 2 0;
#X connect 15 0 14 0;
#X connect 16 0 13 0;
#X connect 17 0 5 1;
#X connect 18 0 4 0;
#X connect 19 0 11 0;
#X connect 20 0 7 1;
#X connect 21 0 22 0;
#X connect 23 0 19 0;
#X connect 23 0 20 0;
#X connect 23 0 21 0;
#X connect 24 0 18 0;
#X connect 25 0 17 0;
#X connect 26 0 16 0;
#X connect 27 0 26 0;
#X connect 27 0 25 0;
#X connect 27 0 24 0;
#X connect 27 0 23 0;
#X connect 29 1 31 0;
#X connect 30 0 29 0;
#X connect 32 0 30 0;
#X connect 33 0 7 0;
#X connect 34 0 40 0;
#X connect 35 0 41 0;
#X connect 36 0 42 0;
#X connect 37 0 43 0;
#X connect 38 0 44 0;
#X connect 39 0 45 0;
#X connect 40 0 16 0;
#X connect 41 0 17 0;
#X connect 42 0 18 0;
#X connect 43 0 19 0;
#X connect 44 0 20 0;
#X connect 45 0 21 0;
#X coords 0 -1 1 1 135 134 1 100 100;
