#N canvas 367 25 870 799 12;
#X obj 76 568 dac~;
#X obj 77 118 AudioOnOff;
#X obj 76 187 SynthFormant-PulseTrain;
#X obj 204 541 ShowFreqDomain;
#X obj 76 356 SynthFormant-Bank;
#X obj 307 42 loadbang;
#X msg 268 67 1;
#X msg 266 313 0 3;
#X obj 266 337 unpack f f;
#X obj 491 337 line;
#X msg 491 302 127 1000;
#X msg 589 315 0 1000;
#X obj 589 285 delay 1000;
#X obj 491 257 metro 2000;
#X obj 491 232 tgl 15 0 empty empty empty 17 7 0 10 #fcfcfc #000000
#000000 0 1;
#X connect 2 0 4 0;
#X connect 4 0 3 0;
#X connect 4 0 0 0;
#X connect 4 0 0 1;
#X connect 5 0 6 0;
#X connect 5 0 7 0;
#X connect 6 0 2 5;
#X connect 6 0 1 0;
#X connect 6 0 3 1;
#X connect 6 0 14 0;
#X connect 7 0 8 0;
#X connect 8 0 4 1;
#X connect 8 1 4 2;
#X connect 9 0 4 3;
#X connect 10 0 9 0;
#X connect 11 0 9 0;
#X connect 12 0 11 0;
#X connect 13 0 10 0;
#X connect 13 0 12 0;
#X connect 14 0 13 0;
