#N canvas 37 37 1287 668 12;
#X obj 80 117 audioOnOff;
#X obj 201 247 SynthGuitar;
#X obj 201 96 tgl 15 0 empty empty empty 17 7 0 10 #fcfcfc #000000
#000000 0 1;
#X obj 372 247 SynthGuitar;
#N canvas 134 297 1306 508 sequencere 0;
#X obj 167 100 stepSequencer2;
#X obj 147 36 inlet;
#X obj 152 260 outlet;
#X obj 355 39 inlet;
#X msg 519 252 50 0 58 60 0 0 0 56 0 0 0 34 0 0 0 0;
#X msg 799 260 67.3878 64.7959 31.102 80.3469 0 0 0 20.7347 0 0 0 59.6122
0 0 0 0;
#X msg 708 54 0 0 0 0 0 0 0 0 0 0 0 0 0 0 0 0;
#X obj 208 303 stepSequencer2;
#X obj 193 463 outlet;
#X obj 1033 142 loadbang;
#X msg 1028 190 53 100;
#X obj 1028 214 unpack f f;
#X connect 0 0 2 0;
#X connect 0 1 4 0;
#X connect 0 2 5 0;
#X connect 1 0 0 0;
#X connect 1 0 7 0;
#X connect 3 0 0 1;
#X connect 3 0 7 1;
#X connect 4 0 0 4;
#X connect 5 0 0 5;
#X connect 6 0 0 4;
#X connect 6 0 0 5;
#X connect 7 0 8 0;
#X connect 9 0 4 0;
#X connect 9 0 5 0;
#X connect 9 0 10 0;
#X connect 10 0 11 0;
#X connect 11 0 7 4;
#X connect 11 1 7 5;
#X restore 201 194 pd sequencere;
#X obj 201 134 metro 2000;
#X floatatom 289 94 5 0 0 0 - - - 0;
#X obj 201 527 reverberator;
#X obj 201 620 dac~;
#X obj 201 415 Equalizer;
#X obj 201 10 loadbang;
#X msg 201 34 1;
#X connect 1 0 9 0;
#X connect 2 0 5 0;
#X connect 3 0 9 0;
#X connect 4 0 1 0;
#X connect 4 1 3 0;
#X connect 5 0 4 0;
#X connect 6 0 5 1;
#X connect 6 0 4 1;
#X connect 7 0 8 0;
#X connect 7 1 8 1;
#X connect 9 0 7 0;
#X connect 9 0 7 1;
#X connect 10 0 11 0;
#X connect 11 0 2 0;
#X connect 11 0 0 0;
