#N canvas 92 117 526 569 12;
#X obj 252 21 notein;
#X floatatom 159 74 5 0 0 0 note: - - 0;
#X floatatom 271 75 5 0 0 0 velocity: - - 0;
#X obj 271 164 ADSRenvelope;
#X obj 38 187 mtof;
#X obj 38 211 waveGenerator;
#X obj 38 323 *~;
#X obj 38 412 dac~;
#X obj 154 383 showWave;
#X connect 0 0 1 0;
#X connect 0 1 2 0;
#X connect 1 0 4 0;
#X connect 2 0 3 0;
#X connect 3 0 6 1;
#X connect 4 0 5 0;
#X connect 5 0 6 0;
#X connect 6 0 7 0;
#X connect 6 0 7 1;
#X connect 6 0 8 0;
