#N canvas 74 98 1243 602 12;
#X obj 490 527 dac~;
#X obj 583 453 showWave;
#X obj 501 459 *~;
#X obj 241 164 Envelope;
#X obj 500 168 Envelope;
#X obj 503 98 key;
#X obj 503 122 select 32;
#X obj 500 377 +~ 50;
#X obj 703 50 loadbang;
#X msg 703 74 200 100;
#X obj 703 98 unpack f f;
#X obj 939 385 writesf~ 2;
#X msg 967 242 bang;
#X msg 1023 297 start;
#X msg 1030 325 stop;
#X text 1067 299 start streaming audio;
#X text 1069 325 stop streaming audio;
#X obj 500 405 waveGenerator;
#X obj 136 60 audioOnOff;
#X obj 413 80 loadbang;
#X msg 413 104 32;
#X msg 375 103 1;
#X text 454 25 Press 'space' to trigger sound!!;
#X obj 967 216 t b b;
#X obj 967 275 del 200;
#X obj 1006 85 tgl 15 0 empty empty empty 17 7 0 10 #fcfcfc #000000
#000000 0 1;
#X obj 967 182 spigot;
#X text 806 84 toggle here to record sound:;
#X text 806 104 sound will then be located;
#X text 806 124 in folder with the patch.;
#X obj 500 353 *~ 5000;
#X msg 879 315 open LaserSound.wav;
#X connect 2 0 1 0;
#X connect 2 0 0 0;
#X connect 2 0 0 1;
#X connect 2 0 11 0;
#X connect 2 0 11 1;
#X connect 3 0 2 1;
#X connect 4 0 30 0;
#X connect 5 0 6 0;
#X connect 6 0 4 0;
#X connect 6 0 3 0;
#X connect 6 0 26 0;
#X connect 7 0 17 0;
#X connect 8 0 9 0;
#X connect 9 0 10 0;
#X connect 10 0 3 1;
#X connect 10 1 4 1;
#X connect 12 0 13 0;
#X connect 12 0 24 0;
#X connect 13 0 11 0;
#X connect 14 0 11 0;
#X connect 17 0 2 0;
#X connect 19 0 20 0;
#X connect 19 0 21 0;
#X connect 20 0 6 0;
#X connect 21 0 18 0;
#X connect 23 0 12 0;
#X connect 23 1 31 0;
#X connect 24 0 14 0;
#X connect 25 0 26 1;
#X connect 26 0 23 0;
#X connect 30 0 7 0;
#X connect 31 0 11 0;
