#N canvas 84 25 1135 800 12;
#X obj 270 623 showWave;
#X obj 14 65 AudioOnOff;
#X obj 87 732 dac~;
#X obj 241 406 Envelope;
#X obj 169 56 tgl 15 0 empty empty empty 17 7 0 10 #fcfcfc #000000
#000000 0 1;
#X obj 209 325 waveGenerator;
#X obj 209 592 *~;
#X obj 209 298 t f b;
#X obj 209 269 mtof;
#X obj 14 13 loadbang;
#X msg 14 37 1;
#X obj 169 108 bng 15 250 50 0 empty empty empty 17 7 0 10 #fcfcfc
#000000 #000000;
#X obj 169 84 metro 500;
#X floatatom 202 135 5 10 127 0 midi-pitch\ (10-127) - - 0;
#X floatatom 209 159 5 1 127 0 velocity\ (0-127): - - 0;
#X obj 169 207 pack 0 f f;
#X obj 169 237 unpack f f f;
#X obj 236 183 * 0.00787402;
#X obj 209 373 *~;
#X floatatom 560 246 5 0 0 0 - - - 0;
#X obj 349 68 loadbang;
#X msg 349 92 64 10;
#X obj 349 116 unpack f f;
#X obj 550 370 showWave;
#X obj 87 645 Panner;
#X connect 3 0 6 1;
#X connect 4 0 12 0;
#X connect 5 0 18 0;
#X connect 5 0 23 0;
#X connect 6 0 0 0;
#X connect 6 0 24 1;
#X connect 6 0 24 2;
#X connect 7 0 5 0;
#X connect 7 1 3 0;
#X connect 8 0 7 0;
#X connect 9 0 10 0;
#X connect 10 0 1 0;
#X connect 10 0 4 0;
#X connect 11 0 15 0;
#X connect 12 0 11 0;
#X connect 13 0 15 1;
#X connect 14 0 17 0;
#X connect 15 0 16 0;
#X connect 16 1 8 0;
#X connect 16 2 18 1;
#X connect 16 2 19 0;
#X connect 17 0 15 2;
#X connect 18 0 6 0;
#X connect 20 0 21 0;
#X connect 21 0 22 0;
#X connect 22 0 13 0;
#X connect 22 1 14 0;
#X connect 24 0 2 0;
#X connect 24 1 2 1;
