#N canvas 186 56 958 677 12;
#X obj 295 518 showWave;
#X obj 201 99 AudioOnOff;
#X obj 200 505 dac~;
#X obj 200 234 Midi-In;
#X obj 200 323 pack f f;
#X obj 380 33 tgl 15 0 empty empty empty 17 7 0 10 #fcfcfc #000000
#000000 0 1;
#X floatatom 440 31 5 0 0 0 - - - 0;
#X obj 380 220 random 12;
#X obj 380 277 + 30;
#X floatatom 440 194 5 0 0 0 - - - 0;
#X obj 380 121 random 2;
#X floatatom 433 96 5 1 10 0 - - - 0;
#X obj 392 176 bng 15 250 50 0 empty empty empty 17 7 0 10 #fcfcfc
#000000 #000000;
#X floatatom 405 252 5 0 0 0 - - - 0;
#X obj 200 378 SynthAcid;
#X obj 380 145 select 0;
#X obj 380 337 pack f 100;
#X floatatom 447 311 5 0 127 0 - - - 0;
#X obj 201 38 loadbang;
#X msg 201 62 1;
#X text 119 421 Acid-Synth:;
#X obj 380 62 metro 140;
#X connect 3 0 4 0;
#X connect 3 1 4 1;
#X connect 4 0 14 0;
#X connect 5 0 21 0;
#X connect 6 0 21 1;
#X connect 7 0 8 0;
#X connect 8 0 16 0;
#X connect 9 0 7 1;
#X connect 10 0 15 0;
#X connect 11 0 10 1;
#X connect 13 0 8 1;
#X connect 14 0 0 0;
#X connect 14 0 2 1;
#X connect 14 0 2 0;
#X connect 15 0 7 0;
#X connect 15 0 12 0;
#X connect 16 0 14 0;
#X connect 17 0 16 1;
#X connect 18 0 19 0;
#X connect 19 0 1 0;
#X connect 19 0 5 0;
#X connect 21 0 10 0;
