#N canvas 0 25 1373 671 12;
#X obj 302 578 dac~;
#X obj 142 322 sampler;
#X obj 142 277 adc~;
#X obj 798 313 SynthRissetsBell;
#X obj 798 119 simpleStepSequencer;
#X obj 491 19 loadbang;
#X msg 491 44 1;
#X obj 491 282 SynthKickdrum;
#X obj 491 72 tgl 25 0 empty empty empty 17 7 0 10 #fcfcfc #000000
#000000 0 1;
#X obj 491 119 simpleStepSequencer;
#X obj 951 68 loadbang;
#X floatatom 566 77 5 0 0 0 - - - 0;
#X msg 491 252 5 127;
#X msg 644 85 1 0 0 0 0 0 1 0;
#X msg 951 92 0 0 0 0 1 0 0 0;
#X obj 141 96 AudioOnOff;
#X obj 141 44 loadbang;
#X msg 141 68 1;
#X obj 1058 121 simpleStepSequencer;
#X obj 1211 70 loadbang;
#X obj 1058 325 SynthCymbal;
#X msg 1058 275 5 60;
#X msg 1211 94 1 1 1 1 1 1 1 1;
#X msg 798 230 100 127;
#X msg 566 45 300;
#X connect 1 0 0 0;
#X connect 1 0 0 1;
#X connect 2 0 1 0;
#X connect 3 0 0 0;
#X connect 4 0 1 4;
#X connect 4 0 23 0;
#X connect 5 0 6 0;
#X connect 5 0 24 0;
#X connect 5 0 13 0;
#X connect 6 0 8 0;
#X connect 7 0 0 1;
#X connect 8 0 9 0;
#X connect 8 0 4 0;
#X connect 8 0 18 0;
#X connect 9 0 12 0;
#X connect 10 0 14 0;
#X connect 11 0 9 1;
#X connect 11 0 4 1;
#X connect 11 0 18 1;
#X connect 12 0 7 0;
#X connect 13 0 9 2;
#X connect 14 0 4 2;
#X connect 16 0 17 0;
#X connect 17 0 15 0;
#X connect 18 0 21 0;
#X connect 19 0 22 0;
#X connect 20 0 0 0;
#X connect 20 0 0 1;
#X connect 21 0 20 0;
#X connect 22 0 18 2;
#X connect 23 0 3 0;
#X connect 24 0 11 0;
