#N canvas 0 27 1371 628 12;
#X obj 63 47 phasor~;
#X obj 63 70 *~ 2048;
#X obj 63 463 outlet~;
#N canvas 0 22 450 278 (subpatch) 0;
#X array \$0-array-triangle 2051 float 2;
#X coords 0 1 2051 -1 40 40 2 0 0;
#X restore 871 412 graph;
#N canvas 0 22 450 278 (subpatch) 0;
#X array \$0-array-square 2051 float 2;
#X coords 0 1 2051 -1 40 40 2 0 0;
#X restore 871 476 graph;
#N canvas 0 22 450 278 (subpatch) 0;
#X array \$0-array-sawtooth 2051 float 2;
#X coords 0 1 2051 -1 40 40 2 0 0;
#X restore 744 477 graph;
#N canvas 0 22 450 278 (subpatch) 0;
#X array \$0-array-sine 2051 float 2;
#X coords 0 1 2051 -1 40 40 2 0 0;
#X restore 744 414 graph;
#X obj 311 23 loadbang;
#N canvas 0 22 450 278 (subpatch) 0;
#X array \$0-array-triangle2 2051 float 2;
#X coords 0 1 2051 -1 40 40 2 0 0;
#X restore 1002 475 graph;
#N canvas 0 22 450 278 (subpatch) 0;
#X array \$0-array-square2 2051 float 2;
#X coords 0 1 2051 -1 40 40 2 0 0;
#X restore 743 539 graph;
#N canvas 0 22 450 278 (subpatch) 0;
#X array \$0-array-sawtooth2 2051 float 2;
#X coords 0 1 2051 -1 40 40 2 0 0;
#X restore 870 538 graph;
#N canvas 0 25 193 238 sawtooth 0;
#X obj 79 80 bng 15 250 50 0 empty empty empty 17 7 0 10 #fcfcfc #000000
#000000;
#X floatatom 132 78 5 0 0 0 - - - 0;
#N canvas 392 311 449 464 Uzi 0;
#X obj 117 6 inlet;
#X obj 300 19 inlet;
#X obj 125 220 outlet;
#X obj 293 152 until;
#X obj 121 124 until;
#X msg 129 93 3;
#X text 165 94 start limited to 3 iterations;
#X obj 121 152 f;
#X obj 159 152 + 1;
#X obj 204 151 sel 0;
#X obj 159 178 mod 10;
#X connect 0 0 4 0;
#X connect 1 0 10 1;
#X connect 4 0 7 0;
#X connect 5 0 4 0;
#X connect 7 0 8 0;
#X connect 7 0 2 0;
#X connect 8 0 10 0;
#X connect 9 0 4 1;
#X connect 10 0 7 1;
#X connect 10 0 9 0;
#X restore 79 102 pd Uzi;
#X obj 79 40 t b b b;
#X msg 132 56 2051;
#X obj 22 120 /;
#X obj 7 143 *;
#X msg 22 99 2;
#X obj 7 164 - 1;
#X obj 79 127 t f f;
#X obj 106 155 outlet;
#X obj 7 192 outlet;
#X obj 79 15 inlet;
#X connect 0 0 2 0;
#X connect 1 0 2 1;
#X connect 2 0 9 0;
#X connect 3 0 0 0;
#X connect 3 1 7 0;
#X connect 3 2 4 0;
#X connect 4 0 1 0;
#X connect 4 0 5 1;
#X connect 5 0 6 1;
#X connect 6 0 8 0;
#X connect 7 0 5 0;
#X connect 8 0 11 0;
#X connect 9 0 6 0;
#X connect 9 1 10 0;
#X connect 12 0 3 0;
#X restore 339 266 pd sawtooth;
#N canvas 1072 329 222 363 square 0;
#X obj 79 80 bng 15 250 50 0 empty empty empty 17 7 0 10 #fcfcfc #000000
#000000;
#X floatatom 132 78 5 0 0 0 - - - 0;
#N canvas 392 311 449 464 Uzi 0;
#X obj 117 6 inlet;
#X obj 300 19 inlet;
#X obj 125 220 outlet;
#X obj 293 152 until;
#X obj 121 124 until;
#X msg 129 93 3;
#X text 165 94 start limited to 3 iterations;
#X obj 121 152 f;
#X obj 159 152 + 1;
#X obj 204 151 sel 0;
#X obj 159 178 mod 10;
#X connect 0 0 4 0;
#X connect 1 0 10 1;
#X connect 4 0 7 0;
#X connect 5 0 4 0;
#X connect 7 0 8 0;
#X connect 7 0 2 0;
#X connect 8 0 10 0;
#X connect 9 0 4 1;
#X connect 10 0 7 1;
#X connect 10 0 9 0;
#X restore 79 102 pd Uzi;
#X obj 79 40 t b b b;
#X msg 132 56 2051;
#X obj 79 127 t f f;
#X obj 106 155 outlet;
#X obj 18 236 outlet;
#X obj 79 15 inlet;
#X obj 33 139 / 2;
#X obj 18 161 <;
#X obj 18 182 select 1;
#X msg 63 203 -1;
#X msg 18 203 1;
#X connect 0 0 2 0;
#X connect 1 0 2 1;
#X connect 2 0 5 0;
#X connect 3 0 0 0;
#X connect 3 2 4 0;
#X connect 4 0 1 0;
#X connect 4 0 9 0;
#X connect 5 0 10 0;
#X connect 5 1 6 0;
#X connect 8 0 3 0;
#X connect 9 0 10 1;
#X connect 10 0 11 0;
#X connect 11 0 13 0;
#X connect 11 1 12 0;
#X connect 12 0 7 0;
#X connect 13 0 7 0;
#X restore 376 354 pd square;
#N canvas 436 40 1004 497 triangle 0;
#X obj 79 80 bng 15 250 50 0 empty empty empty 17 7 0 10 #fcfcfc #000000
#000000;
#X floatatom 132 78 5 0 0 0 - - - 0;
#N canvas 392 311 449 464 Uzi 0;
#X obj 117 6 inlet;
#X obj 300 19 inlet;
#X obj 125 220 outlet;
#X obj 293 152 until;
#X obj 121 124 until;
#X msg 129 93 3;
#X text 165 94 start limited to 3 iterations;
#X obj 121 152 f;
#X obj 159 152 + 1;
#X obj 204 151 sel 0;
#X obj 159 178 mod 10;
#X connect 0 0 4 0;
#X connect 1 0 10 1;
#X connect 4 0 7 0;
#X connect 5 0 4 0;
#X connect 7 0 8 0;
#X connect 7 0 2 0;
#X connect 8 0 10 0;
#X connect 9 0 4 1;
#X connect 10 0 7 1;
#X connect 10 0 9 0;
#X restore 79 102 pd Uzi;
#X obj 79 40 t b b b;
#X msg 132 56 2051;
#X obj 118 155 outlet;
#X obj 18 338 outlet;
#X obj 79 15 inlet;
#X obj 33 139 / 2;
#X obj 18 161 <;
#X obj 18 182 select 1;
#X obj 128 247 /;
#X obj 113 270 *;
#X obj 79 127 t f f f;
#X obj 30 230 spigot;
#X obj -15 230 spigot;
#X obj 113 295 * -1;
#X msg -10 206 1;
#X msg 18 206 0;
#X msg 53 206 1;
#X msg 81 206 0;
#X obj 113 316 + 2;
#X msg 128 226 2;
#X obj 14 279 * 2;
#X obj 14 300 - 1;
#X connect 0 0 2 0;
#X connect 1 0 2 1;
#X connect 2 0 13 0;
#X connect 3 0 0 0;
#X connect 3 1 22 0;
#X connect 3 2 4 0;
#X connect 4 0 1 0;
#X connect 4 0 8 0;
#X connect 4 0 11 1;
#X connect 7 0 3 0;
#X connect 8 0 9 1;
#X connect 9 0 10 0;
#X connect 10 0 17 0;
#X connect 10 0 20 0;
#X connect 10 1 19 0;
#X connect 10 1 18 0;
#X connect 11 0 12 1;
#X connect 12 0 16 0;
#X connect 12 0 15 0;
#X connect 13 0 12 0;
#X connect 13 1 9 0;
#X connect 13 2 5 0;
#X connect 14 0 23 0;
#X connect 15 0 23 0;
#X connect 16 0 21 0;
#X connect 17 0 15 1;
#X connect 18 0 15 1;
#X connect 19 0 14 1;
#X connect 20 0 14 1;
#X connect 21 0 14 0;
#X connect 22 0 11 0;
#X connect 23 0 24 0;
#X connect 24 0 6 0;
#X restore 357 310 pd triangle;
#N canvas 506 52 667 391 sawtoothInverted 0;
#X obj 79 80 bng 15 250 50 0 empty empty empty 17 7 0 10 #fcfcfc #000000
#000000;
#X floatatom 132 78 5 0 0 0 - - - 0;
#N canvas 392 311 449 464 Uzi 0;
#X obj 117 6 inlet;
#X obj 300 19 inlet;
#X obj 125 220 outlet;
#X obj 293 152 until;
#X obj 121 124 until;
#X msg 129 93 3;
#X text 165 94 start limited to 3 iterations;
#X obj 121 152 f;
#X obj 159 152 + 1;
#X obj 204 151 sel 0;
#X obj 159 178 mod 10;
#X connect 0 0 4 0;
#X connect 1 0 10 1;
#X connect 4 0 7 0;
#X connect 5 0 4 0;
#X connect 7 0 8 0;
#X connect 7 0 2 0;
#X connect 8 0 10 0;
#X connect 9 0 4 1;
#X connect 10 0 7 1;
#X connect 10 0 9 0;
#X restore 79 102 pd Uzi;
#X obj 79 40 t b b b;
#X msg 132 56 2051;
#X obj 22 120 /;
#X obj 7 143 *;
#X msg 22 99 2;
#X obj 7 164 - 1;
#X obj 79 127 t f f;
#X obj 106 155 outlet;
#X obj 7 241 outlet;
#X obj 79 15 inlet;
#X obj 7 185 * -1;
#X connect 0 0 2 0;
#X connect 1 0 2 1;
#X connect 2 0 9 0;
#X connect 3 0 0 0;
#X connect 3 1 7 0;
#X connect 3 2 4 0;
#X connect 4 0 1 0;
#X connect 4 0 5 1;
#X connect 5 0 6 1;
#X connect 6 0 8 0;
#X connect 7 0 5 0;
#X connect 8 0 13 0;
#X connect 9 0 6 0;
#X connect 9 1 10 0;
#X connect 12 0 3 0;
#X connect 13 0 11 0;
#X restore 394 398 pd sawtoothInverted;
#N canvas 353 378 450 278 (subpatch) 0;
#X array \$0-array-sawtoothInverted 2051 float 2;
#X coords 0 1 2051 -1 40 40 2 0 0;
#X restore 1002 414 graph;
#N canvas 506 52 667 391 sawtoothInverted2 0;
#X obj 79 80 bng 15 250 50 0 empty empty empty 17 7 0 10 #fcfcfc #000000
#000000;
#X floatatom 112 83 5 0 0 0 - - - 0;
#N canvas 392 311 449 464 Uzi 0;
#X obj 117 6 inlet;
#X obj 300 19 inlet;
#X obj 125 220 outlet;
#X obj 293 152 until;
#X obj 121 124 until;
#X msg 129 93 3;
#X text 165 94 start limited to 3 iterations;
#X obj 121 152 f;
#X obj 159 152 + 1;
#X obj 204 151 sel 0;
#X obj 159 178 mod 10;
#X connect 0 0 4 0;
#X connect 1 0 10 1;
#X connect 4 0 7 0;
#X connect 5 0 4 0;
#X connect 7 0 8 0;
#X connect 7 0 2 0;
#X connect 8 0 10 0;
#X connect 9 0 4 1;
#X connect 10 0 7 1;
#X connect 10 0 9 0;
#X restore 79 102 pd Uzi;
#X msg 112 61 2051;
#X obj 79 127 t f f;
#X obj 106 155 outlet;
#X obj 41 315 outlet;
#X obj 79 15 inlet;
#X obj 41 259 * -1;
#X obj 79 40 t b b;
#X obj 41 215 tabread4 \$0-array-sawtooth2;
#X connect 0 0 2 0;
#X connect 1 0 2 1;
#X connect 2 0 4 0;
#X connect 3 0 1 0;
#X connect 4 0 10 0;
#X connect 4 1 5 0;
#X connect 7 0 9 0;
#X connect 8 0 6 0;
#X connect 9 0 0 0;
#X connect 9 1 3 0;
#X connect 10 0 8 0;
#X restore 413 442 pd sawtoothInverted2;
#N canvas 0 22 450 278 (subpatch) 0;
#X array \$0-array-sawtoothInverted2 2051 float 2;
#X coords 0 1 2051 -1 40 40 2 0 0;
#X restore 1003 537 graph;
#X obj 339 288 tabwrite \$0-array-sawtooth;
#X obj 357 332 tabwrite \$0-array-triangle;
#X obj 376 376 tabwrite \$0-array-square;
#X obj 394 420 tabwrite \$0-array-sawtoothInverted;
#X obj 413 464 tabwrite \$0-array-sawtoothInverted2;
#X obj 528 87 symbol \$0-array-sawtooth2;
#X msg 381 187 \; \$1 normalize;
#X obj 528 109 t s s;
#X obj 381 109 t s s;
#X obj 381 87 symbol \$0-array-sine;
#X msg 413 136 \; \$1 sinesum 2051 1;
#X obj 710 109 t s s;
#X obj 710 87 symbol \$0-array-square2;
#X obj 878 109 t s s;
#X obj 878 87 symbol \$0-array-triangle2;
#X obj 339 243 t b b b b b;
#X obj 311 44 t b b b b b b;
#X msg 102 392 set \$1;
#X obj 63 426 tabread4~;
#X obj 102 102 hradio 15 1 0 9 empty empty empty 0 24 0 10 #fcfcfc
#000000 #000000 0;
#X obj 102 157 select 0 1 2 3 4 5 6 7 8;
#N canvas 3 77 322 382 setSymbol 0;
#X obj 12 41 select 0 1 2 3 4 5 6 7 8;
#X obj 46 342 outlet;
#X obj 12 13 inlet;
#X msg 94 98 symbol sine;
#X msg 94 123 symbol triangle;
#X msg 95 149 symbol square;
#X msg 95 174 symbol sawtooth;
#X msg 96 199 symbol sawtooth-inv.;
#X msg 96 224 symbol triangle-bandpassed;
#X msg 97 250 symbol square-bandpassed;
#X msg 97 275 symbol sawtooth-bandpassed;
#X msg 97 300 symbol sawtooth-inv.-bandpassed;
#X connect 0 0 3 0;
#X connect 0 1 4 0;
#X connect 0 2 5 0;
#X connect 0 3 6 0;
#X connect 0 4 7 0;
#X connect 0 5 8 0;
#X connect 0 6 9 0;
#X connect 0 7 10 0;
#X connect 0 8 11 0;
#X connect 2 0 0 0;
#X connect 3 0 1 0;
#X connect 4 0 1 0;
#X connect 5 0 1 0;
#X connect 6 0 1 0;
#X connect 7 0 1 0;
#X connect 8 0 1 0;
#X connect 9 0 1 0;
#X connect 10 0 1 0;
#X connect 11 0 1 0;
#X restore 162 392 pd setSymbol;
#X msg 311 85 0;
#X obj 102 119 cnv 15 135 16 empty \$0-label sine 2 10 0 9 #e0e0e0
#404040 0;
#X obj 162 442 send \$0-label;
#X msg 162 417 label \$1;
#X obj 102 337 symbol \$0-array-sawtooth2;
#X obj 102 183 symbol \$0-array-sine;
#X obj 102 315 symbol \$0-array-square2;
#X obj 102 293 symbol \$0-array-triangle2;
#X obj 102 249 symbol \$0-array-sawtooth;
#X obj 102 227 symbol \$0-array-square;
#X obj 102 205 symbol \$0-array-triangle;
#X obj 102 271 symbol \$0-array-sawtoothInverted;
#X obj 102 359 symbol \$0-array-sawtoothInverted2;
#X obj 112 24 inlet;
#X msg 910 224 \; \$1 sinesum 2051 1 0 -0.111111 0 0.04 0 0.0204082
0 0.0123457 0 -0.00826446 0 0.00591716 0 -0.00444444 0 0.00346021 0
-0.00277008 0 0.00226757 0 -0.00189036 0 0.0016 0 -0.00137174 0 0.00118906
0 0.00104058;
#X msg 560 131 \; \$1 sinesum 2051 -1 -0.5 -0.333333 -0.25 -0.2 -0.166667
-0.142857 -0.125 -0.111111 -0.1 -0.090909 -0.0833333 -0.076923 -0.0714286
-0.0666667 -0.0625 -0.0588235 -0.0555556 -0.0526316 -0.05 -0.047619
-0.0454545 -0.0434783 -0.0416667 -0.04;
#X msg 742 303 \; \$1 sinesum 2051 1 0 0.333333 0 0.2 0 0.142857 0
0.111111 0 0.090909 0 0.076923 0 0.0666667 0 0.0588235 0 0.0526316
0 0.047619 0 0.0434783 0 0.0384615 0 0.0357143 0 0.0333333 0 0.03125
0 0.0294118 0 0.0277778;
#X obj 63 24 inlet~;
#X text 61 506 Inlets:;
#X text 61 524 1 signal or number \, frequency in;
#X text 61 541 2 number (0-8) \, preset (selects type of waveform)
;
#X text 61 567 Outlets:;
#X text 61 583 1 signal out;
#X connect 0 0 1 0;
#X connect 1 0 36 0;
#X connect 7 0 34 0;
#X connect 11 0 18 0;
#X connect 11 1 18 1;
#X connect 12 0 20 0;
#X connect 12 1 20 1;
#X connect 13 0 19 0;
#X connect 13 1 19 1;
#X connect 14 0 21 0;
#X connect 14 1 21 1;
#X connect 16 0 22 0;
#X connect 16 1 22 1;
#X connect 23 0 25 0;
#X connect 25 0 24 0;
#X connect 25 1 55 0;
#X connect 26 0 24 0;
#X connect 26 1 28 0;
#X connect 27 0 26 0;
#X connect 29 0 24 0;
#X connect 29 1 56 0;
#X connect 30 0 29 0;
#X connect 31 0 24 0;
#X connect 31 1 54 0;
#X connect 32 0 31 0;
#X connect 33 0 11 0;
#X connect 33 1 13 0;
#X connect 33 2 12 0;
#X connect 33 3 14 0;
#X connect 33 4 16 0;
#X connect 34 0 40 0;
#X connect 34 1 33 0;
#X connect 34 2 27 0;
#X connect 34 3 23 0;
#X connect 34 4 30 0;
#X connect 34 5 32 0;
#X connect 35 0 36 0;
#X connect 36 0 2 0;
#X connect 37 0 38 0;
#X connect 37 0 39 0;
#X connect 38 0 45 0;
#X connect 38 1 50 0;
#X connect 38 2 49 0;
#X connect 38 3 48 0;
#X connect 38 4 51 0;
#X connect 38 5 47 0;
#X connect 38 6 46 0;
#X connect 38 7 44 0;
#X connect 38 8 52 0;
#X connect 39 0 43 0;
#X connect 40 0 37 0;
#X connect 43 0 42 0;
#X connect 44 0 35 0;
#X connect 45 0 35 0;
#X connect 46 0 35 0;
#X connect 47 0 35 0;
#X connect 48 0 35 0;
#X connect 49 0 35 0;
#X connect 50 0 35 0;
#X connect 51 0 35 0;
#X connect 52 0 35 0;
#X connect 53 0 37 0;
#X connect 57 0 0 0;
#X coords 0 -1 1 1 139 37 2 100 100;
